<svg height="512" viewBox="0 0 58 50" width="512" xmlns="http://www.w3.org/2000/svg"><g id="Page-1" fill="none" fill-rule="evenodd"><g id="030---Score-Board" fill-rule="nonzero"><path id="Shape" d="m41 12v38.0003486l15.938-.0003486c.5684489.0146077 1.0424281-.4317003 1.062-1v-37z" fill="#ecf0f1"/><path id="Rectangle-path" d="m41 26h17v12h-17z" fill="#d1d4d1"/><path id="Shape" d="m35 12v26 7 5h7v-5-7-26z" fill="#f3d55b"/><path id="Rectangle-path" d="m35 26h7v12h-7z" fill="#f0c419"/><path id="Shape" d="m5 26v12 12h26v-12-12-14h-26z" fill="#ecf0f1"/><path id="Rectangle-path" d="m5 26h26v12h-26z" fill="#d1d4d1"/><path id="Shape" d="m30 12v11 3 24h6v-24-3-11z" fill="#fb7b76"/><path id="Rectangle-path" d="m30 26h6v12h-6z" fill="#ff5364"/><path id="Shape" d="m48.293 22.707c.1874927.1875494.4418052.2929434.707.293h.071c.2895429-.0211914.5555841-.1671673.729-.4l3-4c.2143594-.2858125.2599565-.6642734.1196153-.9928203s-.4452995-.5572656-.8-.6000001c-.3547006-.0427344-.705256.1070079-.9196153.3928204l-2.308 3.078-.185-.185c-.3923789-.3789722-1.0160848-.3735524-1.4018186.0121814s-.3911536 1.0094397-.0121814 1.4018186z" fill="#4fba6f"/><path id="Shape" d="m51.2 41.4-2.308 3.078-.185-.185c-.3923789-.3789722-1.0160848-.3735524-1.4018186.0121814s-.3911536 1.0094397-.0121814 1.4018186l1 1c.1874927.1875494.4418052.2929434.707.293h.071c.2895429-.0211914.5555841-.1671673.729-.4l3-4c.2143594-.2858125.2599564-.6642734.1196152-.9928203-.1403411-.3285469-.4452994-.5572656-.8-.6-.3547005-.0427344-.7052558.1070078-.9196152.3928203z" fill="#4fba6f"/><path id="Shape" d="m51.414 32 1.293-1.293c.3789722-.3923789.3735524-1.0160848-.0121814-1.4018186s-1.0094397-.3911536-1.4018186-.0121814l-1.293 1.293-1.293-1.293c-.3923789-.3789722-1.0160848-.3735524-1.4018186.0121814s-.3911536 1.0094397-.0121814 1.4018186l1.293 1.293-1.293 1.293c-.2599566.2510745-.3642126.6228779-.2726972.9725073.0915155.3496295.3645604.6226744.7141899.7141899.3496294.0915154.7214328-.0127406.9725073-.2726972l1.293-1.293 1.293 1.293c.3923789.3789722 1.0160848.3735524 1.4018186-.0121814s.3911536-1.0094397.0121814-1.4018186z" fill="#e64c3c"/><g fill="#35495e"><path id="Shape" d="m10 21h4c.5522847 0 1-.4477153 1-1s-.4477153-1-1-1h-4c-.55228475 0-1 .4477153-1 1s.44771525 1 1 1z"/><path id="Shape" d="m26 19h-8c-.5522847 0-1 .4477153-1 1s.4477153 1 1 1h8c.5522847 0 1-.4477153 1-1s-.4477153-1-1-1z"/><path id="Shape" d="m10 33h3c.5522847 0 1-.4477153 1-1s-.4477153-1-1-1h-3c-.55228475 0-1 .4477153-1 1s.44771525 1 1 1z"/><path id="Shape" d="m26 31h-9c-.5522847 0-1 .4477153-1 1s.4477153 1 1 1h9c.5522847 0 1-.4477153 1-1s-.4477153-1-1-1z"/><path id="Shape" d="m19 43h-9c-.55228475 0-1 .4477153-1 1s.44771525 1 1 1h9c.5522847 0 1-.4477153 1-1s-.4477153-1-1-1z"/><path id="Shape" d="m26 43h-3c-.5522847 0-1 .4477153-1 1s.4477153 1 1 1h3c.5522847 0 1-.4477153 1-1s-.4477153-1-1-1z"/></g><path id="Shape" d="m0 12v37c0 .5522847.44771525 1 1 1h5v-38z" fill="#f3d55b"/><path id="Rectangle-path" d="m0 26h6v12h-6z" fill="#f0c419"/><path id="Shape" d="m58 1v13h-58v-13c0-.55228475.44771525-1 1-1h56c.5522847 0 1 .44771525 1 1z" fill="#35495e"/><path id="Shape" d="m48 8h-38c-.55228475 0-1-.44771525-1-1s.44771525-1 1-1h38c.5522847 0 1 .44771525 1 1s-.4477153 1-1 1z" fill="#f3d55b"/></g></g></svg>