<svg id="svg" version="1.1" xmlns="http://www.w3.org/2000/svg" xmlns:xlink="http://www.w3.org/1999/xlink" width="400" height="400" viewBox="0, 0, 400,400"><g id="svgg"><path id="path0" d="M269.537 106.746 C 269.021 107.378,266.800 110.551,264.600 113.797 C 262.400 117.044,260.410 119.903,260.179 120.150 C 259.947 120.398,258.046 123.120,255.955 126.200 C 249.211 136.133,243.834 143.797,243.513 143.933 C 243.341 144.007,243.200 144.294,243.200 144.571 C 243.200 144.849,242.840 145.402,242.400 145.800 C 241.960 146.198,241.600 146.751,241.600 147.029 C 241.600 147.306,241.456 147.593,241.281 147.667 C 241.105 147.740,239.424 150.050,237.546 152.800 C 233.465 158.774,225.784 169.876,224.954 171.000 C 224.327 171.849,215.089 185.233,210.045 192.600 C 208.389 195.020,206.878 197.180,206.688 197.400 C 206.499 197.620,205.141 199.548,203.672 201.685 C 202.202 203.822,199.920 207.128,198.600 209.033 C 197.280 210.938,196.020 212.790,195.800 213.148 C 195.580 213.507,195.298 213.890,195.174 214.000 C 195.049 214.110,193.596 216.180,191.945 218.600 C 185.293 228.347,179.027 237.411,178.811 237.600 C 178.685 237.710,177.776 239.009,176.791 240.487 C 174.821 243.443,174.147 243.723,172.429 242.300 C 171.831 241.805,170.816 241.002,170.171 240.515 C 169.527 240.028,167.020 238.079,164.600 236.185 C 162.180 234.290,159.570 232.262,158.800 231.678 C 158.030 231.093,156.486 229.892,155.370 229.008 C 154.253 228.123,152.740 226.950,152.007 226.400 C 151.273 225.850,150.477 225.220,150.237 225.000 C 149.996 224.780,148.270 223.432,146.400 222.003 C 144.530 220.575,142.640 219.106,142.200 218.739 C 141.442 218.106,134.335 212.582,131.836 210.684 C 131.196 210.198,129.650 208.990,128.400 208.000 C 127.150 207.010,125.532 205.750,124.805 205.200 C 124.078 204.650,121.935 202.988,120.042 201.506 C 118.149 200.025,116.510 198.817,116.400 198.823 C 116.203 198.834,115.119 200.188,110.834 205.776 C 109.643 207.329,108.554 208.690,108.415 208.800 C 108.275 208.910,107.729 209.630,107.200 210.400 C 106.671 211.170,106.134 211.890,106.006 212.000 C 105.878 212.110,103.260 215.439,100.187 219.398 C 93.804 227.621,94.245 227.059,91.777 230.132 C 90.728 231.438,90.057 232.613,90.252 232.803 C 90.615 233.158,98.117 239.065,100.407 240.800 C 101.133 241.350,101.923 241.986,102.163 242.213 C 102.404 242.440,103.230 243.066,104.000 243.604 C 104.770 244.142,105.813 244.992,106.318 245.491 C 106.823 245.991,107.365 246.400,107.522 246.400 C 107.680 246.400,108.262 246.805,108.817 247.300 C 109.869 248.238,110.641 248.842,116.600 253.391 C 118.580 254.903,120.290 256.244,120.400 256.372 C 120.510 256.500,121.259 257.096,122.065 257.696 C 122.871 258.297,123.771 259.022,124.065 259.307 C 124.359 259.593,125.230 260.268,126.000 260.807 C 126.770 261.347,127.670 262.012,128.000 262.285 C 129.071 263.170,137.343 269.614,139.439 271.196 C 140.560 272.042,141.730 272.981,142.039 273.281 C 142.348 273.581,143.230 274.268,144.000 274.807 C 144.770 275.347,145.670 276.008,146.000 276.275 C 147.217 277.263,153.579 282.250,155.600 283.800 C 156.747 284.680,159.167 286.570,160.979 288.000 C 162.790 289.430,164.869 291.050,165.599 291.600 C 166.329 292.150,167.123 292.780,167.363 293.000 C 167.604 293.220,168.880 294.210,170.200 295.199 C 171.520 296.188,172.690 297.094,172.800 297.210 C 174.613 299.135,183.737 305.585,184.155 305.237 C 184.439 305.002,185.998 302.872,187.619 300.504 C 189.241 298.137,190.799 295.962,191.084 295.671 C 191.368 295.381,191.600 294.989,191.600 294.800 C 191.600 294.611,191.837 294.219,192.127 293.929 C 192.416 293.638,194.171 291.168,196.027 288.440 C 197.882 285.712,200.120 282.446,201.000 281.182 C 201.880 279.919,203.936 276.931,205.570 274.542 C 207.203 272.154,208.688 270.140,208.870 270.067 C 209.051 269.993,209.200 269.693,209.200 269.400 C 209.200 269.107,209.350 268.807,209.534 268.733 C 209.717 268.660,211.141 266.710,212.699 264.400 C 214.256 262.090,216.727 258.490,218.189 256.400 C 219.651 254.310,221.947 250.980,223.291 249.000 C 224.636 247.020,225.885 245.340,226.068 245.267 C 226.250 245.193,226.400 244.912,226.400 244.642 C 226.400 244.372,226.720 243.802,227.112 243.375 C 227.794 242.631,233.975 233.745,241.145 223.200 C 243.014 220.450,244.662 218.110,244.807 218.000 C 244.951 217.890,246.343 215.910,247.900 213.600 C 249.457 211.290,251.927 207.690,253.389 205.600 C 254.851 203.510,257.152 200.180,258.501 198.200 C 259.851 196.220,261.280 194.251,261.677 193.825 C 262.075 193.398,262.400 192.828,262.400 192.558 C 262.400 192.288,262.543 192.007,262.718 191.933 C 262.894 191.860,264.996 188.920,267.391 185.400 C 269.786 181.880,271.848 178.910,271.973 178.800 C 272.228 178.575,272.532 178.139,277.137 171.400 C 278.941 168.760,282.667 163.360,285.417 159.400 C 288.166 155.440,291.344 150.850,292.478 149.200 C 293.611 147.550,294.688 146.140,294.870 146.067 C 295.051 145.993,295.200 145.712,295.200 145.442 C 295.200 145.172,295.515 144.602,295.900 144.175 C 296.285 143.749,297.140 142.591,297.800 141.602 C 298.460 140.614,300.185 138.094,301.632 136.002 C 303.080 133.911,304.577 131.718,304.959 131.130 L 305.653 130.060 302.526 127.962 C 300.807 126.808,299.310 125.746,299.200 125.602 C 299.090 125.458,297.830 124.557,296.400 123.601 C 291.229 120.143,275.788 109.405,275.271 108.909 C 274.981 108.629,274.589 108.400,274.400 108.400 C 274.211 108.400,273.819 108.169,273.529 107.887 C 273.238 107.605,272.431 106.974,271.737 106.486 L 270.473 105.598 269.537 106.746 " stroke="none" fill="#fbfbfb" fill-rule="evenodd"></path><path id="path1" d="M180.300 0.272 C 178.155 0.358,176.400 0.602,176.400 0.814 C 176.400 1.030,174.987 1.200,173.200 1.200 C 171.333 1.200,170.000 1.367,170.000 1.600 C 170.000 1.822,168.933 2.000,167.600 2.000 C 166.267 2.000,165.200 2.178,165.200 2.400 C 165.200 2.620,164.311 2.800,163.224 2.800 C 162.137 2.800,161.136 2.980,161.000 3.200 C 160.864 3.420,160.054 3.600,159.200 3.600 C 158.346 3.600,157.536 3.780,157.400 4.000 C 157.264 4.220,156.353 4.400,155.376 4.400 C 154.399 4.400,153.600 4.580,153.600 4.800 C 153.600 5.020,152.880 5.200,152.000 5.200 C 151.120 5.200,150.400 5.380,150.400 5.600 C 150.400 5.820,149.781 6.000,149.024 6.000 C 148.267 6.000,147.536 6.180,147.400 6.400 C 147.264 6.620,146.634 6.800,146.000 6.800 C 145.366 6.800,144.736 6.980,144.600 7.200 C 144.464 7.420,143.823 7.600,143.176 7.600 C 142.529 7.600,142.000 7.780,142.000 8.000 C 142.000 8.220,141.460 8.400,140.800 8.400 C 140.140 8.400,139.600 8.580,139.600 8.800 C 139.600 9.020,139.060 9.200,138.400 9.200 C 137.740 9.200,137.200 9.380,137.200 9.600 C 137.200 9.820,136.771 10.000,136.246 10.000 C 135.092 10.000,131.626 11.024,129.304 12.050 C 128.372 12.463,127.337 12.800,127.004 12.800 C 126.672 12.800,126.400 12.947,126.400 13.128 C 126.400 13.308,125.500 13.700,124.400 14.000 C 123.300 14.300,122.400 14.692,122.400 14.872 C 122.400 15.053,122.040 15.200,121.600 15.200 C 121.160 15.200,120.800 15.380,120.800 15.600 C 120.800 15.820,120.521 16.000,120.181 16.000 C 119.840 16.000,118.816 16.360,117.906 16.800 C 116.995 17.240,116.014 17.600,115.725 17.600 C 115.436 17.600,115.200 17.780,115.200 18.000 C 115.200 18.220,114.840 18.400,114.400 18.400 C 113.960 18.400,113.599 18.535,113.599 18.700 C 113.598 18.865,112.608 19.450,111.400 20.000 C 110.192 20.550,109.202 21.135,109.201 21.300 C 109.201 21.465,108.840 21.600,108.400 21.600 C 107.960 21.600,107.600 21.780,107.600 22.000 C 107.600 22.220,107.240 22.400,106.800 22.400 C 106.360 22.400,106.000 22.580,106.000 22.800 C 106.000 23.020,105.640 23.200,105.200 23.200 C 104.760 23.200,104.400 23.380,104.400 23.600 C 104.400 23.820,104.055 24.000,103.633 24.000 C 103.212 24.000,102.807 24.135,102.733 24.300 C 102.566 24.676,100.436 25.975,99.500 26.271 C 99.115 26.393,98.800 26.652,98.800 26.847 C 98.800 27.041,98.526 27.200,98.192 27.200 C 97.858 27.200,96.871 27.650,96.000 28.200 C 95.129 28.750,94.298 29.200,94.155 29.200 C 94.011 29.200,93.603 29.516,93.247 29.903 C 92.891 30.289,92.105 30.860,91.500 31.170 C 90.895 31.481,90.400 31.885,90.400 32.068 C 90.400 32.250,90.040 32.400,89.600 32.400 C 89.160 32.400,88.800 32.550,88.800 32.732 C 88.800 32.915,88.305 33.319,87.700 33.630 C 87.095 33.940,86.330 34.467,86.000 34.800 C 85.670 35.133,84.905 35.660,84.300 35.970 C 83.695 36.281,83.200 36.685,83.200 36.868 C 83.200 37.050,82.930 37.200,82.600 37.200 C 82.270 37.200,82.000 37.380,82.000 37.600 C 82.000 37.820,81.730 38.000,81.400 38.000 C 81.070 38.000,80.800 38.138,80.800 38.306 C 80.800 38.474,80.078 39.057,79.196 39.602 C 78.314 40.147,77.492 40.910,77.369 41.297 C 77.247 41.684,76.933 42.000,76.673 42.000 C 76.413 42.001,75.722 42.406,75.137 42.900 C 74.553 43.395,73.669 44.070,73.174 44.400 C 71.956 45.212,69.620 47.176,68.400 48.415 C 67.850 48.974,66.770 49.871,66.000 50.408 C 65.230 50.946,63.610 52.442,62.400 53.734 C 59.834 56.472,57.345 58.978,52.844 63.354 C 51.060 65.089,49.600 66.682,49.600 66.894 C 49.600 67.106,49.105 67.756,48.500 68.340 C 47.186 69.607,45.231 71.920,44.400 73.192 C 44.070 73.697,43.395 74.527,42.900 75.037 C 42.405 75.547,42.000 76.145,42.000 76.366 C 42.000 76.588,41.280 77.482,40.400 78.353 C 39.520 79.224,38.800 80.092,38.800 80.280 C 38.800 80.469,38.440 80.883,38.000 81.200 C 37.560 81.517,37.200 82.057,37.200 82.400 C 37.200 82.743,36.840 83.283,36.400 83.600 C 35.960 83.917,35.600 84.380,35.600 84.629 C 35.600 84.878,35.060 85.646,34.400 86.337 C 33.740 87.028,33.200 87.864,33.200 88.196 C 33.200 88.528,33.042 88.800,32.849 88.800 C 32.655 88.800,32.273 89.340,32.000 90.000 C 31.727 90.660,31.367 91.200,31.200 91.200 C 31.033 91.200,30.673 91.740,30.400 92.400 C 30.127 93.060,29.745 93.600,29.551 93.600 C 29.358 93.600,29.200 93.790,29.200 94.021 C 29.200 94.253,28.750 95.105,28.200 95.914 C 27.650 96.723,27.200 97.621,27.200 97.910 C 27.200 98.198,26.840 98.820,26.400 99.292 C 25.960 99.764,25.600 100.387,25.600 100.675 C 25.600 100.964,25.420 101.200,25.200 101.200 C 24.980 101.200,24.800 101.560,24.800 102.000 C 24.800 102.440,24.620 102.800,24.400 102.800 C 24.180 102.800,24.000 103.160,24.000 103.600 C 24.000 104.040,23.820 104.400,23.600 104.400 C 23.380 104.400,23.200 104.678,23.200 105.017 C 23.200 105.356,22.840 106.020,22.400 106.492 C 21.960 106.964,21.596 107.632,21.591 107.975 C 21.586 108.319,21.230 109.050,20.800 109.600 C 20.370 110.150,20.014 110.825,20.009 111.100 C 20.004 111.375,19.820 111.600,19.600 111.600 C 19.380 111.600,19.200 111.960,19.200 112.400 C 19.200 112.840,19.020 113.200,18.800 113.200 C 18.580 113.200,18.400 113.650,18.400 114.200 C 18.400 114.750,18.220 115.200,18.000 115.200 C 17.780 115.200,17.600 115.560,17.600 116.000 C 17.600 116.440,17.420 116.800,17.200 116.800 C 16.980 116.800,16.800 117.160,16.800 117.600 C 16.800 118.040,16.620 118.400,16.400 118.400 C 16.180 118.400,16.000 118.749,16.000 119.176 C 16.000 119.603,15.820 120.064,15.600 120.200 C 15.380 120.336,15.200 120.887,15.200 121.424 C 15.200 121.961,15.020 122.400,14.800 122.400 C 14.580 122.400,14.400 122.760,14.400 123.200 C 14.400 123.640,14.220 124.000,14.000 124.000 C 13.780 124.000,13.600 124.439,13.600 124.976 C 13.600 125.513,13.420 126.064,13.200 126.200 C 12.980 126.336,12.800 126.709,12.800 127.028 C 12.800 127.564,11.645 130.439,10.758 132.109 C 10.552 132.499,10.271 133.628,10.135 134.620 C 9.999 135.611,9.733 136.518,9.544 136.635 C 9.355 136.752,9.200 137.287,9.200 137.824 C 9.200 138.361,9.020 138.800,8.800 138.800 C 8.580 138.800,8.400 139.329,8.400 139.976 C 8.400 140.623,8.220 141.264,8.000 141.400 C 7.780 141.536,7.600 142.166,7.600 142.800 C 7.600 143.434,7.420 144.064,7.200 144.200 C 6.980 144.336,6.800 144.966,6.800 145.600 C 6.800 146.234,6.620 146.864,6.400 147.000 C 6.180 147.136,6.000 147.766,6.000 148.400 C 6.000 149.034,5.820 149.664,5.600 149.800 C 5.380 149.936,5.200 150.746,5.200 151.600 C 5.200 152.454,5.020 153.264,4.800 153.400 C 4.580 153.536,4.400 154.357,4.400 155.224 C 4.400 156.091,4.220 156.800,4.000 156.800 C 3.780 156.800,3.600 157.509,3.600 158.376 C 3.600 159.243,3.420 160.064,3.200 160.200 C 2.980 160.336,2.800 161.337,2.800 162.424 C 2.800 163.511,2.620 164.400,2.400 164.400 C 2.180 164.400,2.000 165.379,2.000 166.576 C 2.000 167.773,1.820 168.864,1.600 169.000 C 1.380 169.136,1.200 170.572,1.200 172.190 C 1.200 174.189,1.040 175.187,0.700 175.300 C -0.030 175.543,-0.030 223.729,0.700 224.460 C 1.008 224.768,1.200 226.073,1.200 227.856 C 1.200 229.449,1.380 230.864,1.600 231.000 C 1.820 231.136,2.000 232.227,2.000 233.424 C 2.000 234.621,2.180 235.600,2.400 235.600 C 2.620 235.600,2.800 236.590,2.800 237.800 C 2.800 239.010,2.980 240.000,3.200 240.000 C 3.420 240.000,3.600 240.720,3.600 241.600 C 3.600 242.480,3.780 243.200,4.000 243.200 C 4.220 243.200,4.400 243.909,4.400 244.776 C 4.400 245.643,4.580 246.464,4.800 246.600 C 5.020 246.736,5.200 247.647,5.200 248.624 C 5.200 249.601,5.380 250.400,5.600 250.400 C 5.820 250.400,6.000 250.929,6.000 251.576 C 6.000 252.223,6.180 252.864,6.400 253.000 C 6.620 253.136,6.800 253.867,6.800 254.624 C 6.800 255.381,6.980 256.000,7.200 256.000 C 7.420 256.000,7.600 256.529,7.600 257.176 C 7.600 257.823,7.780 258.464,8.000 258.600 C 8.220 258.736,8.400 259.377,8.400 260.024 C 8.400 260.671,8.580 261.200,8.800 261.200 C 9.020 261.200,9.200 261.639,9.200 262.176 C 9.200 262.713,9.355 263.248,9.544 263.365 C 9.733 263.482,9.999 264.389,10.135 265.380 C 10.271 266.372,10.545 267.501,10.744 267.891 C 10.944 268.281,11.284 269.050,11.500 269.600 C 11.716 270.150,12.097 271.095,12.346 271.700 C 12.596 272.305,13.001 273.295,13.247 273.900 C 13.492 274.505,13.852 275.313,14.047 275.695 C 14.241 276.077,14.400 276.662,14.400 276.995 C 14.400 277.328,14.580 277.600,14.800 277.600 C 15.020 277.600,15.200 278.140,15.200 278.800 C 15.200 279.460,15.335 280.001,15.500 280.003 C 15.859 280.007,16.800 281.944,16.800 282.680 C 16.800 282.966,16.980 283.200,17.200 283.200 C 17.420 283.200,17.600 283.560,17.600 284.000 C 17.600 284.440,17.780 284.800,18.000 284.800 C 18.220 284.800,18.400 285.124,18.400 285.520 C 18.400 286.414,19.294 288.393,19.700 288.397 C 19.865 288.399,20.000 288.760,20.000 289.200 C 20.000 289.640,20.180 290.000,20.400 290.000 C 20.620 290.000,20.800 290.270,20.800 290.600 C 20.800 290.930,20.980 291.200,21.200 291.200 C 21.420 291.200,21.600 291.526,21.600 291.925 C 21.600 292.323,21.960 293.036,22.400 293.508 C 22.840 293.980,23.200 294.644,23.200 294.983 C 23.200 295.322,23.380 295.600,23.600 295.600 C 23.820 295.600,24.000 295.960,24.000 296.400 C 24.000 296.840,24.180 297.200,24.400 297.200 C 24.620 297.200,24.800 297.478,24.800 297.817 C 24.800 298.156,25.160 298.820,25.600 299.292 C 26.040 299.764,26.400 300.387,26.400 300.675 C 26.400 300.964,26.580 301.200,26.800 301.200 C 27.020 301.200,27.200 301.535,27.200 301.944 C 27.200 302.353,27.605 303.298,28.100 304.044 C 28.595 304.790,29.255 305.895,29.568 306.500 C 29.880 307.105,30.285 307.600,30.468 307.600 C 30.650 307.600,30.800 307.870,30.800 308.200 C 30.800 308.530,30.958 308.800,31.151 308.800 C 31.345 308.800,31.727 309.340,32.000 310.000 C 32.273 310.660,32.655 311.200,32.849 311.200 C 33.042 311.200,33.200 311.520,33.200 311.912 C 33.200 312.303,33.560 312.883,34.000 313.200 C 34.440 313.517,34.800 313.980,34.800 314.229 C 34.800 314.478,35.340 315.246,36.000 315.937 C 36.660 316.628,37.200 317.376,37.200 317.600 C 37.200 317.824,37.740 318.572,38.400 319.263 C 39.060 319.954,39.600 320.690,39.600 320.899 C 39.600 321.108,40.140 321.783,40.800 322.400 C 41.460 323.017,42.000 323.637,42.000 323.779 C 42.000 323.920,42.405 324.470,42.900 324.999 C 44.022 326.198,44.423 326.714,45.310 328.096 C 45.697 328.699,46.820 329.999,47.807 330.986 C 48.793 331.972,49.600 332.964,49.600 333.189 C 49.600 333.415,49.780 333.600,50.000 333.600 C 50.220 333.600,50.400 333.787,50.400 334.015 C 50.400 334.365,53.541 337.553,59.000 342.742 C 59.660 343.369,60.932 344.674,61.827 345.641 C 63.691 347.656,66.662 350.400,66.980 350.400 C 67.098 350.400,68.292 351.480,69.632 352.800 C 70.973 354.120,72.233 355.200,72.432 355.200 C 72.631 355.200,73.200 355.543,73.697 355.962 C 74.194 356.382,75.770 357.647,77.200 358.775 C 78.630 359.903,80.117 361.090,80.505 361.413 C 80.892 361.736,81.387 362.000,81.605 362.000 C 81.822 362.000,82.000 362.180,82.000 362.400 C 82.000 362.620,82.230 362.800,82.512 362.800 C 82.793 362.800,83.283 363.160,83.600 363.600 C 83.917 364.040,84.409 364.400,84.692 364.400 C 84.975 364.400,85.772 364.940,86.463 365.600 C 87.154 366.260,87.962 366.800,88.259 366.800 C 88.557 366.800,88.800 366.980,88.800 367.200 C 88.800 367.420,89.036 367.600,89.325 367.600 C 89.613 367.600,90.236 367.960,90.708 368.400 C 91.180 368.840,91.804 369.200,92.095 369.200 C 92.386 369.200,92.883 369.560,93.200 370.000 C 93.517 370.440,93.929 370.800,94.116 370.800 C 94.303 370.800,95.208 371.301,96.128 371.913 C 97.048 372.526,98.880 373.561,100.200 374.213 C 101.520 374.866,102.660 375.535,102.733 375.700 C 102.807 375.865,103.212 376.000,103.633 376.000 C 104.055 376.000,104.400 376.180,104.400 376.400 C 104.400 376.620,104.760 376.800,105.200 376.800 C 105.640 376.800,106.000 376.980,106.000 377.200 C 106.000 377.420,106.360 377.600,106.800 377.600 C 107.240 377.600,107.600 377.780,107.600 378.000 C 107.600 378.220,107.960 378.400,108.400 378.400 C 108.840 378.400,109.200 378.580,109.200 378.800 C 109.200 379.020,109.470 379.200,109.800 379.200 C 110.130 379.200,110.400 379.380,110.400 379.600 C 110.400 379.820,110.760 380.000,111.200 380.000 C 111.640 380.000,112.000 380.180,112.000 380.400 C 112.000 380.620,112.360 380.800,112.800 380.800 C 113.240 380.800,113.600 380.980,113.600 381.200 C 113.600 381.420,113.960 381.600,114.400 381.600 C 114.840 381.600,115.200 381.780,115.200 382.000 C 115.200 382.220,115.560 382.400,116.000 382.400 C 116.440 382.400,116.800 382.580,116.800 382.800 C 116.800 383.020,117.149 383.200,117.576 383.200 C 118.003 383.200,118.464 383.380,118.600 383.600 C 118.736 383.820,119.287 384.000,119.824 384.000 C 120.361 384.000,120.800 384.180,120.800 384.400 C 120.800 384.620,121.160 384.800,121.600 384.800 C 122.040 384.800,122.400 384.980,122.400 385.200 C 122.400 385.420,122.749 385.600,123.176 385.600 C 123.603 385.600,124.064 385.780,124.200 386.000 C 124.336 386.220,124.887 386.400,125.424 386.400 C 125.961 386.400,126.400 386.580,126.400 386.800 C 126.400 387.020,126.672 387.200,127.005 387.200 C 127.338 387.200,127.968 387.380,128.405 387.600 C 128.842 387.820,129.558 388.180,129.995 388.400 C 130.432 388.620,131.152 388.800,131.595 388.800 C 132.038 388.800,132.400 388.980,132.400 389.200 C 132.400 389.420,132.929 389.600,133.576 389.600 C 134.223 389.600,134.864 389.780,135.000 390.000 C 135.136 390.220,135.676 390.400,136.200 390.400 C 136.724 390.400,137.256 390.567,137.383 390.772 C 137.509 390.977,138.600 391.267,139.806 391.418 C 141.013 391.569,142.000 391.851,142.000 392.046 C 142.000 392.241,142.529 392.400,143.176 392.400 C 143.823 392.400,144.464 392.580,144.600 392.800 C 144.736 393.020,145.377 393.200,146.024 393.200 C 146.671 393.200,147.200 393.380,147.200 393.600 C 147.200 393.820,147.920 394.000,148.800 394.000 C 149.680 394.000,150.400 394.180,150.400 394.400 C 150.400 394.620,151.109 394.800,151.976 394.800 C 152.843 394.800,153.664 394.980,153.800 395.200 C 153.936 395.420,154.746 395.600,155.600 395.600 C 156.454 395.600,157.264 395.780,157.400 396.000 C 157.536 396.220,158.357 396.400,159.224 396.400 C 160.091 396.400,160.800 396.580,160.800 396.800 C 160.800 397.020,161.790 397.200,163.000 397.200 C 164.210 397.200,165.200 397.380,165.200 397.600 C 165.200 397.822,166.267 398.000,167.600 398.000 C 168.933 398.000,170.000 398.178,170.000 398.400 C 170.000 398.633,171.322 398.800,173.167 398.800 C 175.344 398.800,176.385 398.956,176.500 399.300 C 176.631 399.692,181.672 399.800,199.913 399.800 C 217.977 399.800,223.271 399.689,223.660 399.300 C 223.961 398.999,225.233 398.800,226.856 398.800 C 228.339 398.800,229.664 398.620,229.800 398.400 C 229.936 398.180,231.016 398.000,232.200 398.000 C 233.384 398.000,234.464 397.820,234.600 397.600 C 234.736 397.380,235.827 397.200,237.024 397.200 C 238.221 397.200,239.200 397.020,239.200 396.800 C 239.200 396.580,239.909 396.400,240.776 396.400 C 241.643 396.400,242.464 396.220,242.600 396.000 C 242.736 395.780,243.647 395.600,244.624 395.600 C 245.601 395.600,246.400 395.420,246.400 395.200 C 246.400 394.980,247.120 394.800,248.000 394.800 C 248.880 394.800,249.600 394.620,249.600 394.400 C 249.600 394.180,250.320 394.000,251.200 394.000 C 252.080 394.000,252.800 393.820,252.800 393.600 C 252.800 393.380,253.329 393.200,253.976 393.200 C 254.623 393.200,255.264 393.020,255.400 392.800 C 255.536 392.580,256.166 392.400,256.800 392.400 C 257.434 392.400,258.056 392.233,258.183 392.028 C 258.309 391.823,259.400 391.533,260.606 391.382 C 261.813 391.231,262.800 390.949,262.800 390.754 C 262.800 390.559,263.239 390.400,263.776 390.400 C 264.313 390.400,264.864 390.220,265.000 390.000 C 265.136 389.780,265.777 389.600,266.424 389.600 C 267.071 389.600,267.600 389.420,267.600 389.200 C 267.600 388.980,267.962 388.800,268.405 388.800 C 269.183 388.800,269.569 388.658,271.495 387.662 C 271.987 387.408,272.662 387.200,272.995 387.200 C 273.328 387.200,273.600 387.020,273.600 386.800 C 273.600 386.580,274.039 386.400,274.576 386.400 C 275.113 386.400,275.664 386.220,275.800 386.000 C 275.936 385.780,276.397 385.600,276.824 385.600 C 277.251 385.600,277.600 385.420,277.600 385.200 C 277.600 384.980,277.960 384.800,278.400 384.800 C 278.840 384.800,279.200 384.620,279.200 384.400 C 279.200 384.180,279.639 384.000,280.176 384.000 C 280.713 384.000,281.264 383.820,281.400 383.600 C 281.536 383.380,281.997 383.200,282.424 383.200 C 282.851 383.200,283.200 383.020,283.200 382.800 C 283.200 382.580,283.560 382.400,284.000 382.400 C 284.440 382.400,284.800 382.220,284.800 382.000 C 284.800 381.780,285.160 381.600,285.600 381.600 C 286.040 381.600,286.400 381.420,286.400 381.200 C 286.400 380.980,286.760 380.800,287.200 380.800 C 287.640 380.800,288.000 380.620,288.000 380.400 C 288.000 380.180,288.360 380.000,288.800 380.000 C 289.240 380.000,289.600 379.820,289.600 379.600 C 289.600 379.380,289.960 379.200,290.400 379.200 C 290.840 379.200,291.200 379.020,291.200 378.800 C 291.200 378.580,291.470 378.400,291.800 378.400 C 292.130 378.400,292.400 378.220,292.400 378.000 C 292.400 377.780,292.760 377.600,293.200 377.600 C 293.640 377.600,294.000 377.420,294.000 377.200 C 294.000 376.980,294.360 376.800,294.800 376.800 C 295.240 376.800,295.600 376.620,295.600 376.400 C 295.600 376.180,295.960 376.000,296.400 376.000 C 296.840 376.000,297.200 375.820,297.200 375.600 C 297.200 375.380,297.547 375.200,297.971 375.200 C 298.396 375.200,298.981 374.975,299.271 374.700 C 299.751 374.246,301.980 372.978,304.297 371.840 C 304.790 371.598,305.195 371.265,305.197 371.100 C 305.199 370.935,305.470 370.800,305.800 370.800 C 306.130 370.800,306.400 370.620,306.400 370.400 C 306.400 370.180,306.670 370.000,307.000 370.000 C 307.330 370.000,307.600 369.820,307.600 369.600 C 307.600 369.380,307.870 369.200,308.200 369.200 C 308.530 369.200,308.800 369.042,308.800 368.849 C 308.800 368.655,309.340 368.273,310.000 368.000 C 310.660 367.727,311.200 367.345,311.200 367.151 C 311.200 366.958,311.443 366.800,311.741 366.800 C 312.038 366.800,312.846 366.260,313.537 365.600 C 314.228 364.940,315.025 364.400,315.308 364.400 C 315.591 364.400,316.083 364.040,316.400 363.600 C 316.717 363.160,317.162 362.800,317.388 362.799 C 317.615 362.799,318.430 362.259,319.200 361.600 C 319.970 360.941,320.759 360.401,320.953 360.401 C 321.147 360.400,321.597 360.076,321.953 359.679 C 322.309 359.283,323.320 358.430,324.200 357.784 C 325.080 357.138,326.091 356.292,326.447 355.904 C 326.803 355.517,327.282 355.200,327.512 355.200 C 327.742 355.200,329.027 354.120,330.368 352.800 C 331.708 351.480,332.974 350.400,333.180 350.400 C 333.481 350.400,336.444 347.524,341.800 342.033 C 342.020 341.807,343.644 340.222,345.408 338.511 C 347.172 336.800,349.058 334.774,349.599 334.010 C 350.140 333.245,351.622 331.564,352.892 330.275 C 354.161 328.985,355.200 327.766,355.200 327.566 C 355.200 327.365,355.920 326.459,356.800 325.552 C 357.680 324.645,358.400 323.770,358.400 323.606 C 358.400 323.442,358.937 322.699,359.594 321.954 C 360.250 321.209,360.790 320.493,360.794 320.362 C 360.797 320.231,361.250 319.601,361.800 318.962 C 362.349 318.323,362.799 317.663,362.800 317.496 C 362.800 317.329,363.340 316.628,364.000 315.937 C 364.660 315.246,365.200 314.438,365.200 314.141 C 365.200 313.843,365.350 313.600,365.532 313.600 C 365.715 313.600,366.119 313.105,366.430 312.500 C 366.740 311.895,367.311 311.109,367.697 310.753 C 368.084 310.397,368.400 309.812,368.400 309.453 C 368.400 309.094,368.580 308.800,368.800 308.800 C 369.020 308.800,369.200 308.530,369.200 308.200 C 369.200 307.870,369.380 307.600,369.600 307.600 C 369.820 307.600,370.000 307.330,370.000 307.000 C 370.000 306.670,370.180 306.400,370.400 306.400 C 370.620 306.400,370.800 306.207,370.800 305.972 C 370.800 305.737,371.340 304.759,372.000 303.800 C 372.660 302.841,373.200 301.878,373.200 301.661 C 373.200 301.444,373.335 301.207,373.500 301.133 C 373.973 300.923,375.200 298.544,375.200 297.838 C 375.200 297.487,375.380 297.200,375.600 297.200 C 375.820 297.200,376.000 296.840,376.000 296.400 C 376.000 295.960,376.180 295.600,376.400 295.600 C 376.620 295.600,376.800 295.240,376.800 294.800 C 376.800 294.360,376.952 294.000,377.137 294.000 C 377.323 294.000,377.908 293.145,378.437 292.100 C 378.967 291.055,379.535 290.140,379.700 290.067 C 379.865 289.993,380.000 289.683,380.000 289.376 C 380.000 289.070,380.359 288.230,380.799 287.510 C 381.238 286.789,381.598 285.885,381.599 285.500 C 381.599 285.115,381.780 284.800,382.000 284.800 C 382.220 284.800,382.400 284.440,382.400 284.000 C 382.400 283.560,382.580 283.200,382.800 283.200 C 383.020 283.200,383.200 282.840,383.200 282.400 C 383.200 281.960,383.380 281.600,383.600 281.600 C 383.820 281.600,384.000 281.240,384.000 280.800 C 384.000 280.360,384.180 280.000,384.400 280.000 C 384.620 280.000,384.800 279.561,384.800 279.024 C 384.800 278.487,384.980 277.936,385.200 277.800 C 385.420 277.664,385.600 277.203,385.600 276.776 C 385.600 276.349,385.780 276.000,386.000 276.000 C 386.220 276.000,386.400 275.550,386.400 275.000 C 386.400 274.450,386.580 274.000,386.800 274.000 C 387.020 274.000,387.200 273.638,387.200 273.195 C 387.200 272.752,387.359 272.077,387.553 271.695 C 387.748 271.313,388.108 270.505,388.353 269.900 C 388.599 269.295,388.966 268.395,389.168 267.900 C 390.246 265.265,391.600 260.642,391.600 259.596 C 391.600 258.938,391.780 258.400,392.000 258.400 C 392.220 258.400,392.400 257.860,392.400 257.200 C 392.400 256.540,392.580 256.000,392.800 256.000 C 393.020 256.000,393.200 255.381,393.200 254.624 C 393.200 253.867,393.380 253.136,393.600 253.000 C 393.820 252.864,394.000 252.223,394.000 251.576 C 394.000 250.929,394.180 250.400,394.400 250.400 C 394.620 250.400,394.800 249.691,394.800 248.824 C 394.800 247.957,394.980 247.136,395.200 247.000 C 395.420 246.864,395.600 245.953,395.600 244.976 C 395.600 243.999,395.780 243.200,396.000 243.200 C 396.220 243.200,396.400 242.480,396.400 241.600 C 396.400 240.720,396.580 240.000,396.800 240.000 C 397.020 240.000,397.200 239.021,397.200 237.824 C 397.200 236.627,397.380 235.536,397.600 235.400 C 397.820 235.264,398.000 234.274,398.000 233.200 C 398.000 232.126,398.180 231.136,398.400 231.000 C 398.620 230.864,398.800 229.539,398.800 228.056 C 398.800 226.433,398.999 225.161,399.300 224.860 C 399.689 224.471,399.800 218.955,399.800 200.000 C 399.800 181.045,399.689 175.529,399.300 175.140 C 398.999 174.839,398.800 173.567,398.800 171.944 C 398.800 170.461,398.620 169.136,398.400 169.000 C 398.180 168.864,398.000 167.773,398.000 166.576 C 398.000 165.379,397.820 164.400,397.600 164.400 C 397.380 164.400,397.200 163.410,397.200 162.200 C 397.200 160.990,397.020 160.000,396.800 160.000 C 396.580 160.000,396.400 159.280,396.400 158.400 C 396.400 157.520,396.220 156.800,396.000 156.800 C 395.780 156.800,395.600 155.990,395.600 155.000 C 395.600 154.010,395.420 153.200,395.200 153.200 C 394.980 153.200,394.800 152.390,394.800 151.400 C 394.800 150.410,394.620 149.600,394.400 149.600 C 394.180 149.600,394.000 149.071,394.000 148.424 C 394.000 147.777,393.820 147.136,393.600 147.000 C 393.380 146.864,393.200 146.311,393.200 145.771 C 393.200 145.231,393.042 144.477,392.849 144.095 C 392.360 143.127,391.727 140.896,391.402 139.000 C 391.252 138.120,390.992 137.220,390.826 137.000 C 390.660 136.780,390.290 135.700,390.003 134.600 C 389.717 133.500,389.329 132.429,389.141 132.220 C 388.953 132.011,388.800 131.426,388.800 130.920 C 388.800 130.414,388.620 130.000,388.400 130.000 C 388.180 130.000,388.000 129.728,388.000 129.395 C 388.000 129.062,387.820 128.432,387.600 127.995 C 387.380 127.558,387.020 126.842,386.800 126.405 C 386.580 125.968,386.400 125.248,386.400 124.805 C 386.400 124.362,386.220 124.000,386.000 124.000 C 385.780 124.000,385.600 123.640,385.600 123.200 C 385.600 122.760,385.420 122.400,385.200 122.400 C 384.980 122.400,384.800 121.860,384.800 121.200 C 384.800 120.540,384.665 119.999,384.500 119.997 C 384.141 119.993,383.200 118.056,383.200 117.320 C 383.200 117.034,383.020 116.800,382.800 116.800 C 382.580 116.800,382.400 116.440,382.400 116.000 C 382.400 115.560,382.220 115.200,382.000 115.200 C 381.780 115.200,381.600 114.750,381.600 114.200 C 381.600 113.650,381.465 113.199,381.300 113.197 C 380.989 113.194,380.000 111.297,380.000 110.704 C 380.000 110.518,379.640 109.980,379.200 109.508 C 378.760 109.036,378.400 108.357,378.400 108.000 C 378.400 107.643,378.040 106.964,377.600 106.492 C 377.160 106.020,376.800 105.356,376.800 105.017 C 376.800 104.678,376.620 104.400,376.400 104.400 C 376.180 104.400,376.000 104.040,376.000 103.600 C 376.000 103.160,375.820 102.800,375.600 102.800 C 375.380 102.800,375.200 102.453,375.200 102.029 C 375.200 101.604,374.930 100.987,374.600 100.657 C 374.270 100.327,374.000 99.951,374.000 99.821 C 374.000 99.692,373.280 98.400,372.400 96.952 C 371.520 95.503,370.800 94.196,370.800 94.047 C 370.800 93.898,370.440 93.517,370.000 93.200 C 369.560 92.883,369.200 92.303,369.200 91.912 C 369.200 91.520,369.020 91.200,368.800 91.200 C 368.580 91.200,368.400 90.880,368.400 90.488 C 368.400 90.097,368.040 89.517,367.600 89.200 C 367.160 88.883,366.800 88.343,366.800 88.000 C 366.800 87.657,366.440 87.117,366.000 86.800 C 365.560 86.483,365.200 86.020,365.200 85.771 C 365.200 85.522,364.660 84.754,364.000 84.063 C 363.340 83.372,362.800 82.617,362.800 82.385 C 362.800 82.153,362.395 81.549,361.900 81.043 C 360.565 79.678,358.677 77.238,358.035 76.047 C 357.724 75.471,356.959 74.523,356.335 73.940 C 355.711 73.356,355.200 72.702,355.200 72.486 C 355.200 72.270,354.030 70.888,352.600 69.415 C 351.170 67.942,350.000 66.571,350.000 66.368 C 350.000 66.166,348.605 64.655,346.900 63.012 C 343.119 59.367,342.564 58.812,337.794 53.900 C 335.711 51.755,333.843 50.000,333.644 50.000 C 333.445 50.000,332.150 48.920,330.767 47.600 C 329.384 46.280,328.133 45.200,327.988 45.200 C 327.842 45.200,327.349 44.885,326.894 44.500 C 326.438 44.115,325.568 43.440,324.960 43.000 C 324.353 42.560,323.483 41.836,323.028 41.391 C 322.573 40.947,321.570 40.141,320.800 39.602 C 320.030 39.063,319.051 38.302,318.625 37.911 C 318.198 37.520,317.653 37.200,317.413 37.200 C 317.173 37.200,316.717 36.840,316.400 36.400 C 316.083 35.960,315.585 35.600,315.294 35.600 C 315.002 35.600,314.328 35.164,313.795 34.631 C 313.262 34.098,312.460 33.546,312.013 33.404 C 311.566 33.262,311.200 33.000,311.200 32.822 C 311.200 32.643,310.660 32.273,310.000 32.000 C 309.340 31.727,308.800 31.345,308.800 31.151 C 308.800 30.958,308.614 30.800,308.387 30.800 C 308.161 30.800,306.767 29.990,305.292 29.000 C 303.816 28.010,302.292 27.200,301.904 27.200 C 301.517 27.200,301.200 27.020,301.200 26.800 C 301.200 26.580,300.964 26.400,300.675 26.400 C 300.387 26.400,299.764 26.040,299.292 25.600 C 298.820 25.160,298.156 24.800,297.817 24.800 C 297.478 24.800,297.200 24.620,297.200 24.400 C 297.200 24.180,296.840 24.000,296.400 24.000 C 295.960 24.000,295.600 23.820,295.600 23.600 C 295.600 23.380,295.240 23.200,294.800 23.200 C 294.360 23.200,294.000 23.020,294.000 22.800 C 294.000 22.580,293.640 22.400,293.200 22.400 C 292.760 22.400,292.400 22.254,292.400 22.075 C 292.400 21.896,291.770 21.502,291.000 21.200 C 290.230 20.898,289.600 20.504,289.600 20.325 C 289.600 20.146,289.240 20.000,288.800 20.000 C 288.360 20.000,288.000 19.820,288.000 19.600 C 288.000 19.380,287.640 19.200,287.200 19.200 C 286.760 19.200,286.400 19.020,286.400 18.800 C 286.400 18.580,286.040 18.400,285.600 18.400 C 285.160 18.400,284.800 18.220,284.800 18.000 C 284.800 17.780,284.440 17.600,284.000 17.600 C 283.560 17.600,283.200 17.453,283.200 17.272 C 283.200 17.092,282.300 16.700,281.200 16.400 C 280.100 16.100,279.200 15.708,279.200 15.528 C 279.200 15.347,278.840 15.200,278.400 15.200 C 277.960 15.200,277.600 15.020,277.600 14.800 C 277.600 14.580,277.328 14.400,276.995 14.400 C 276.662 14.400,276.077 14.241,275.695 14.047 C 274.979 13.683,273.354 12.989,271.600 12.300 C 271.050 12.084,270.287 11.748,269.905 11.553 C 269.523 11.359,268.859 11.200,268.429 11.200 C 267.999 11.200,267.544 11.033,267.417 10.828 C 267.291 10.623,266.200 10.333,264.994 10.182 C 263.787 10.031,262.800 9.749,262.800 9.554 C 262.800 9.359,262.260 9.200,261.600 9.200 C 260.940 9.200,260.400 9.020,260.400 8.800 C 260.400 8.580,259.961 8.400,259.424 8.400 C 258.887 8.400,258.336 8.220,258.200 8.000 C 258.064 7.780,257.434 7.600,256.800 7.600 C 256.166 7.600,255.536 7.420,255.400 7.200 C 255.264 6.980,254.623 6.800,253.976 6.800 C 253.329 6.800,252.800 6.620,252.800 6.400 C 252.800 6.180,252.080 6.000,251.200 6.000 C 250.320 6.000,249.600 5.820,249.600 5.600 C 249.600 5.380,248.891 5.200,248.024 5.200 C 247.157 5.200,246.336 5.020,246.200 4.800 C 246.064 4.580,245.254 4.400,244.400 4.400 C 243.546 4.400,242.736 4.220,242.600 4.000 C 242.464 3.780,241.654 3.600,240.800 3.600 C 239.946 3.600,239.136 3.420,239.000 3.200 C 238.864 2.980,237.863 2.800,236.776 2.800 C 235.689 2.800,234.800 2.620,234.800 2.400 C 234.800 2.178,233.733 2.000,232.400 2.000 C 231.067 2.000,230.000 1.822,230.000 1.600 C 230.000 1.367,228.678 1.200,226.833 1.200 C 224.758 1.200,223.613 1.038,223.509 0.728 C 223.352 0.257,189.564 -0.100,180.300 0.272 M272.348 106.037 C 272.798 106.457,273.320 106.800,273.508 106.800 C 273.696 106.800,274.198 107.122,274.625 107.515 C 275.051 107.909,278.640 110.445,282.600 113.151 C 292.860 120.163,297.694 123.524,298.505 124.206 C 298.892 124.533,299.387 124.800,299.605 124.800 C 299.822 124.800,300.000 124.980,300.000 125.200 C 300.000 125.420,300.255 125.600,300.567 125.600 C 300.878 125.600,301.193 125.747,301.267 125.928 C 301.340 126.108,302.541 127.026,303.936 127.967 C 305.706 129.162,306.418 129.879,306.292 130.340 C 306.079 131.120,297.969 142.939,297.513 143.133 C 297.341 143.207,297.200 143.488,297.200 143.758 C 297.200 144.028,296.876 144.598,296.481 145.025 C 296.085 145.451,294.972 146.970,294.008 148.400 C 293.044 149.830,292.108 151.060,291.928 151.133 C 291.747 151.207,291.600 151.488,291.600 151.758 C 291.600 152.028,291.285 152.608,290.900 153.046 C 290.515 153.485,290.020 154.126,289.800 154.470 C 288.770 156.085,280.311 168.282,279.790 168.905 C 279.465 169.292,279.200 169.772,279.200 169.971 C 279.200 170.170,279.053 170.393,278.872 170.467 C 278.692 170.540,277.759 171.770,276.800 173.200 C 275.841 174.630,274.908 175.860,274.728 175.933 C 274.547 176.007,274.400 176.288,274.400 176.558 C 274.400 176.828,274.085 177.398,273.700 177.825 C 273.315 178.251,272.460 179.408,271.800 180.395 C 268.378 185.515,264.204 191.416,263.921 191.533 C 263.744 191.607,263.600 191.888,263.600 192.158 C 263.600 192.428,263.285 193.008,262.900 193.446 C 262.515 193.885,262.020 194.524,261.800 194.866 C 261.388 195.507,257.646 200.921,253.001 207.600 C 251.547 209.690,249.256 213.020,247.911 215.000 C 246.565 216.980,245.315 218.660,245.132 218.733 C 244.950 218.807,244.800 219.122,244.800 219.433 C 244.800 219.745,244.620 220.000,244.400 220.000 C 244.180 220.000,244.000 220.255,244.000 220.567 C 244.000 220.878,243.850 221.193,243.668 221.267 C 243.485 221.340,242.195 223.110,240.801 225.200 C 239.408 227.290,238.160 229.090,238.028 229.200 C 237.896 229.310,236.804 230.914,235.602 232.764 C 234.399 234.614,233.222 236.324,232.986 236.564 C 232.749 236.804,231.769 238.170,230.808 239.600 C 229.847 241.030,228.956 242.290,228.829 242.400 C 228.703 242.510,228.344 243.095,228.032 243.700 C 227.720 244.305,227.315 244.800,227.132 244.800 C 226.950 244.800,226.800 245.055,226.800 245.367 C 226.800 245.678,226.657 245.993,226.482 246.067 C 226.308 246.140,224.026 249.350,221.412 253.200 C 218.799 257.050,216.551 260.290,216.417 260.400 C 216.284 260.510,214.840 262.580,213.210 265.000 C 211.580 267.420,210.101 269.460,209.923 269.533 C 209.745 269.607,209.600 269.922,209.600 270.233 C 209.600 270.545,209.420 270.800,209.200 270.800 C 208.980 270.800,208.800 271.055,208.800 271.367 C 208.800 271.678,208.653 271.993,208.473 272.067 C 208.294 272.140,205.830 275.620,202.999 279.800 C 200.167 283.980,197.736 287.490,197.595 287.600 C 197.455 287.710,196.556 288.970,195.598 290.400 C 194.639 291.830,193.708 293.060,193.528 293.133 C 193.347 293.207,193.200 293.488,193.200 293.758 C 193.200 294.028,192.885 294.598,192.500 295.025 C 192.115 295.451,190.463 297.780,188.829 300.200 C 184.604 306.457,184.670 306.374,183.901 306.387 C 183.372 306.397,175.164 300.446,174.000 299.208 C 173.890 299.091,173.141 298.504,172.335 297.904 C 171.529 297.303,170.629 296.584,170.335 296.306 C 170.041 296.028,168.724 294.990,167.409 294.000 C 166.094 293.010,164.744 291.983,164.409 291.719 C 160.865 288.918,157.066 285.958,152.000 282.050 C 149.690 280.268,147.302 278.358,146.693 277.805 C 146.084 277.252,145.486 276.800,145.365 276.800 C 145.243 276.800,144.906 276.575,144.616 276.300 C 143.803 275.529,142.732 274.682,141.200 273.600 C 140.430 273.056,139.440 272.310,139.000 271.941 C 138.560 271.572,136.310 269.812,134.000 268.029 C 131.690 266.246,129.529 264.565,129.199 264.294 C 128.868 264.022,127.789 263.170,126.800 262.400 C 125.811 261.630,124.732 260.783,124.401 260.519 C 123.060 259.444,118.564 255.949,112.945 251.611 C 109.675 249.087,106.910 246.927,106.800 246.811 C 106.690 246.695,105.790 245.977,104.800 245.215 C 103.810 244.453,102.940 243.688,102.867 243.515 C 102.793 243.342,102.555 243.200,102.338 243.200 C 102.121 243.200,101.714 242.975,101.435 242.700 C 101.155 242.425,100.328 241.750,99.595 241.200 C 98.863 240.650,97.586 239.660,96.758 239.000 C 95.930 238.340,93.991 236.832,92.449 235.648 C 90.907 234.465,89.551 233.250,89.436 232.948 C 89.200 232.335,89.539 231.200,89.957 231.200 C 90.106 231.200,90.533 230.682,90.907 230.049 C 91.281 229.416,92.130 228.317,92.794 227.607 C 93.457 226.897,94.000 226.198,94.000 226.054 C 94.000 225.910,94.405 225.338,94.900 224.783 C 95.838 223.731,96.442 222.959,100.991 217.000 C 102.503 215.020,103.844 213.310,103.972 213.200 C 104.100 213.090,104.696 212.341,105.296 211.535 C 105.897 210.729,106.622 209.829,106.907 209.535 C 107.193 209.241,107.864 208.370,108.400 207.600 C 108.936 206.830,109.560 205.997,109.787 205.749 C 110.014 205.501,111.460 203.657,113.000 201.652 C 116.282 197.377,116.228 197.390,119.637 200.102 C 121.088 201.256,122.875 202.650,123.609 203.200 C 125.219 204.408,127.325 206.102,127.600 206.413 C 127.710 206.537,128.430 207.071,129.200 207.600 C 129.970 208.129,130.870 208.857,131.200 209.218 C 131.530 209.579,131.998 209.948,132.239 210.037 C 132.481 210.127,133.381 210.775,134.239 211.478 C 135.098 212.181,137.690 214.220,140.000 216.009 C 142.310 217.798,144.564 219.563,145.009 219.931 C 145.454 220.299,146.894 221.410,148.209 222.400 C 149.524 223.390,150.796 224.380,151.037 224.600 C 151.277 224.820,152.070 225.450,152.800 226.000 C 153.530 226.550,154.323 227.186,154.563 227.413 C 154.804 227.640,155.630 228.262,156.400 228.794 C 157.170 229.326,157.890 229.869,158.000 229.999 C 158.110 230.130,159.370 231.121,160.800 232.200 C 162.230 233.279,163.490 234.262,163.600 234.382 C 163.710 234.503,164.880 235.412,166.200 236.401 C 167.520 237.390,168.796 238.380,169.037 238.600 C 169.277 238.820,170.066 239.450,170.790 240.000 C 171.514 240.550,172.470 241.315,172.915 241.700 C 174.014 242.653,174.568 242.580,175.200 241.400 C 175.494 240.850,175.885 240.400,176.068 240.400 C 176.250 240.400,176.400 240.164,176.400 239.875 C 176.400 239.587,176.715 238.992,177.100 238.554 C 177.485 238.115,177.980 237.469,178.200 237.119 C 178.420 236.768,179.509 235.158,180.621 233.541 C 186.477 225.018,188.203 222.588,188.487 222.467 C 188.659 222.393,188.800 222.112,188.800 221.842 C 188.800 221.572,189.122 221.002,189.516 220.575 C 189.911 220.149,191.570 217.820,193.204 215.400 C 194.837 212.980,196.285 210.910,196.419 210.800 C 196.554 210.690,197.380 209.520,198.255 208.200 C 201.515 203.280,205.385 197.796,205.687 197.667 C 205.859 197.593,206.000 197.323,206.001 197.067 C 206.001 196.810,206.541 195.970,207.200 195.200 C 207.859 194.430,208.399 193.590,208.399 193.333 C 208.400 193.077,208.542 192.807,208.715 192.733 C 208.889 192.660,210.449 190.530,212.182 188.000 C 213.915 185.470,216.083 182.320,217.000 181.000 C 217.917 179.680,219.724 177.070,221.017 175.200 C 222.309 173.330,223.509 171.740,223.683 171.667 C 223.857 171.593,224.000 171.278,224.000 170.967 C 224.000 170.655,224.180 170.400,224.400 170.400 C 224.620 170.400,224.800 170.222,224.800 170.005 C 224.800 169.787,225.066 169.292,225.391 168.905 C 225.717 168.517,227.961 165.320,230.378 161.800 C 239.187 148.973,240.572 146.990,241.081 146.471 C 241.366 146.181,241.600 145.804,241.600 145.634 C 241.600 145.464,242.050 144.801,242.600 144.162 C 243.149 143.523,243.599 142.790,243.600 142.533 C 243.600 142.277,243.746 142.007,243.924 141.933 C 244.102 141.860,246.207 138.920,248.602 135.400 C 250.996 131.880,253.059 128.910,253.187 128.800 C 253.314 128.690,254.575 126.890,255.988 124.800 C 257.401 122.710,258.702 120.940,258.879 120.867 C 259.055 120.793,259.200 120.493,259.200 120.200 C 259.200 119.907,259.343 119.607,259.518 119.533 C 259.692 119.460,261.974 116.250,264.588 112.400 C 270.302 103.983,270.217 104.052,272.348 106.037 " stroke="none" fill="#34bca4" fill-rule="evenodd"></path><path id="path2" d="M270.200 105.489 C 270.640 105.598,271.270 105.892,271.600 106.143 C 272.122 106.540,272.128 106.509,271.651 105.900 C 271.349 105.515,270.719 105.221,270.251 105.246 C 269.443 105.290,269.440 105.303,270.200 105.489 M295.600 122.546 C 295.600 122.656,296.140 123.130,296.800 123.600 C 297.460 124.070,298.000 124.364,298.000 124.254 C 298.000 124.144,297.460 123.670,296.800 123.200 C 296.140 122.730,295.600 122.436,295.600 122.546 M239.600 148.800 C 239.130 149.460,238.836 150.000,238.946 150.000 C 239.056 150.000,239.530 149.460,240.000 148.800 C 240.470 148.140,240.764 147.600,240.654 147.600 C 240.544 147.600,240.070 148.140,239.600 148.800 M246.800 215.600 C 246.330 216.260,246.036 216.800,246.146 216.800 C 246.256 216.800,246.730 216.260,247.200 215.600 C 247.670 214.940,247.964 214.400,247.854 214.400 C 247.744 214.400,247.270 214.940,246.800 215.600 M145.344 220.709 C 145.660 221.221,148.000 222.953,148.000 222.675 C 148.000 222.576,147.339 221.991,146.532 221.375 C 145.724 220.759,145.189 220.459,145.344 220.709 M194.400 291.200 C 193.930 291.860,193.636 292.400,193.746 292.400 C 193.856 292.400,194.330 291.860,194.800 291.200 C 195.270 290.540,195.564 290.000,195.454 290.000 C 195.344 290.000,194.870 290.540,194.400 291.200 " stroke="none" fill="#80d7c8" fill-rule="evenodd"></path><path id="path3" d="M273.200 107.527 C 273.200 107.716,273.650 108.077,274.200 108.327 C 274.750 108.578,275.200 108.717,275.200 108.637 C 275.200 108.557,274.750 108.197,274.200 107.837 C 273.650 107.476,273.200 107.337,273.200 107.527 M275.618 109.098 C 275.627 109.264,277.922 110.959,280.718 112.864 C 283.513 114.769,288.214 117.994,291.165 120.031 C 294.116 122.068,296.421 123.558,296.288 123.342 C 296.154 123.126,293.110 120.930,289.522 118.462 C 285.935 115.994,281.335 112.810,279.300 111.385 C 277.265 109.961,275.608 108.932,275.618 109.098 M265.886 111.300 C 263.379 114.714,259.632 120.398,259.900 120.382 C 260.218 120.362,267.324 110.000,267.019 110.000 C 266.921 110.000,266.411 110.585,265.886 111.300 M299.209 125.480 C 299.214 125.656,300.661 126.751,302.425 127.913 C 304.517 129.291,305.533 130.195,305.347 130.513 C 305.191 130.781,303.895 132.710,302.468 134.800 C 301.041 136.890,300.162 138.330,300.515 138.000 C 302.756 135.901,305.988 130.211,305.299 129.576 C 304.021 128.397,299.200 125.154,299.209 125.480 M254.698 127.500 C 252.210 130.951,250.670 133.327,251.091 133.068 C 251.575 132.768,256.534 125.600,256.256 125.600 C 256.153 125.600,255.452 126.455,254.698 127.500 M248.986 135.700 C 246.387 139.288,243.276 143.997,243.513 143.982 C 243.827 143.962,250.123 134.800,249.823 134.800 C 249.721 134.800,249.344 135.205,248.986 135.700 M295.669 144.439 C 294.910 145.654,295.366 145.816,296.155 144.612 C 296.520 144.056,296.678 143.600,296.505 143.600 C 296.333 143.600,295.957 143.978,295.669 144.439 M242.206 145.488 L 241.504 146.600 242.430 145.711 C 242.939 145.222,243.255 144.722,243.132 144.599 C 243.009 144.476,242.592 144.876,242.206 145.488 M293.296 148.032 C 292.580 149.115,292.077 150.000,292.178 150.000 C 292.450 150.000,294.900 146.367,294.738 146.204 C 294.661 146.127,294.012 146.950,293.296 148.032 M238.535 150.774 C 237.911 151.640,235.819 154.655,233.886 157.474 C 231.953 160.293,229.030 164.535,227.391 166.900 C 225.752 169.265,224.543 171.193,224.705 171.184 C 224.867 171.175,226.674 168.700,228.720 165.684 C 230.766 162.668,234.150 157.725,236.240 154.700 C 239.671 149.733,241.326 146.902,238.535 150.774 M290.349 152.300 C 287.974 155.488,281.900 164.509,282.291 164.268 C 282.492 164.143,284.535 161.319,286.829 157.992 C 289.123 154.665,291.247 151.595,291.549 151.171 C 292.710 149.539,291.692 150.497,290.349 152.300 M280.337 166.700 C 279.332 167.898,274.650 175.034,275.284 174.400 C 276.030 173.656,281.323 166.000,281.092 166.000 C 281.000 166.000,280.660 166.315,280.337 166.700 M220.701 176.500 C 218.623 179.436,213.240 187.297,212.457 188.538 C 210.594 191.491,214.652 186.013,218.377 180.545 C 222.693 174.212,224.299 171.416,220.701 176.500 M273.750 176.300 C 272.567 177.925,272.202 178.752,273.177 177.600 C 274.078 176.534,274.919 175.200,274.689 175.200 C 274.613 175.200,274.190 175.695,273.750 176.300 M268.248 184.118 C 266.294 187.023,264.974 189.130,265.315 188.800 C 266.221 187.924,272.403 178.797,272.077 178.818 C 271.925 178.827,270.201 181.212,268.248 184.118 M210.752 190.900 C 210.256 191.615,209.058 193.325,208.090 194.700 C 207.122 196.075,206.481 197.196,206.665 197.191 C 207.000 197.181,212.158 189.600,211.829 189.600 C 211.733 189.600,211.249 190.185,210.752 190.900 M258.000 198.853 C 254.173 204.497,253.687 205.283,254.957 203.774 C 256.575 201.851,261.620 194.398,261.294 194.414 C 261.132 194.422,259.650 196.419,258.000 198.853 M114.922 199.900 C 114.307 200.725,112.490 203.065,110.884 205.100 C 109.278 207.135,108.108 208.794,108.282 208.788 C 108.457 208.781,109.226 207.926,109.991 206.888 C 110.755 205.849,112.454 203.650,113.764 202.000 C 115.075 200.350,116.198 198.931,116.260 198.847 C 116.322 198.763,117.741 199.753,119.413 201.047 C 124.054 204.638,124.582 205.018,124.298 204.559 C 123.979 204.043,116.642 198.400,116.290 198.400 C 116.153 198.400,115.537 199.075,114.922 199.900 M202.979 202.100 C 200.865 204.992,195.665 212.870,196.313 212.200 C 197.252 211.229,204.107 201.200,203.832 201.200 C 203.725 201.200,203.341 201.605,202.979 202.100 M250.963 209.100 C 249.480 211.245,247.901 213.528,247.455 214.172 C 247.008 214.817,246.827 215.231,247.052 215.091 C 247.539 214.790,254.133 205.200,253.853 205.200 C 253.747 205.200,252.446 206.955,250.963 209.100 M128.000 207.599 C 129.703 209.131,131.600 210.529,131.600 210.251 C 131.600 210.138,130.475 209.212,129.100 208.193 C 127.725 207.173,127.230 206.906,128.000 207.599 M107.144 209.900 C 105.852 211.460,105.519 212.000,105.851 211.995 C 106.043 211.992,106.607 211.362,107.104 210.595 C 108.072 209.101,108.092 208.756,107.144 209.900 M132.015 210.684 C 132.024 210.858,132.699 211.469,133.515 212.043 C 134.332 212.616,135.990 213.873,137.200 214.836 C 138.410 215.798,139.181 216.308,138.913 215.968 C 138.202 215.065,131.997 210.312,132.015 210.684 M103.200 214.866 C 102.210 216.198,101.044 217.754,100.608 218.324 C 100.172 218.894,100.010 219.241,100.247 219.094 C 100.909 218.685,105.696 212.397,105.326 212.423 C 105.146 212.435,104.190 213.535,103.200 214.866 M193.694 215.500 C 193.276 216.105,191.697 218.388,190.185 220.574 C 188.674 222.760,187.639 224.423,187.886 224.270 C 188.396 223.955,194.940 214.400,194.646 214.400 C 194.541 214.400,194.112 214.895,193.694 215.500 M139.600 216.525 C 139.600 216.624,140.261 217.209,141.068 217.825 C 141.876 218.441,142.411 218.741,142.256 218.491 C 141.940 217.979,139.600 216.247,139.600 216.525 M240.903 223.514 C 238.869 226.531,235.857 230.935,234.208 233.300 C 232.560 235.665,231.343 237.594,231.505 237.586 C 231.667 237.578,233.284 235.373,235.098 232.686 C 236.912 229.999,239.931 225.595,241.805 222.900 C 243.680 220.205,245.076 218.006,244.907 218.014 C 244.738 218.021,242.936 220.496,240.903 223.514 M142.816 219.073 C 142.831 219.399,146.400 222.174,146.400 221.861 C 146.400 221.770,145.590 221.033,144.600 220.221 C 143.610 219.410,142.807 218.893,142.816 219.073 M96.875 223.100 C 95.334 225.025,94.147 226.675,94.237 226.767 C 94.327 226.858,94.456 226.858,94.523 226.767 C 94.591 226.675,95.861 225.025,97.345 223.100 C 98.829 221.175,99.961 219.600,99.859 219.600 C 99.758 219.600,98.415 221.175,96.875 223.100 M146.940 222.303 C 147.096 222.556,147.791 223.167,148.484 223.660 C 149.177 224.154,149.617 224.350,149.460 224.097 C 149.304 223.844,148.609 223.233,147.916 222.740 C 147.223 222.246,146.783 222.050,146.940 222.303 M150.811 225.477 C 151.355 225.849,151.890 226.255,152.000 226.379 C 152.110 226.503,152.908 227.144,153.773 227.802 C 154.639 228.461,156.277 229.720,157.413 230.600 C 162.128 234.251,164.514 235.984,163.200 234.804 C 162.430 234.112,160.540 232.589,159.000 231.418 C 157.460 230.248,154.940 228.281,153.400 227.047 C 151.860 225.814,150.425 224.803,150.211 224.802 C 149.997 224.801,150.267 225.105,150.811 225.477 M91.827 229.700 C 90.786 231.075,90.503 231.570,91.197 230.800 C 92.645 229.193,94.134 227.200,93.886 227.200 C 93.794 227.200,92.867 228.325,91.827 229.700 M184.301 229.100 C 181.389 233.146,178.693 237.226,178.843 237.360 C 178.929 237.437,180.574 235.183,182.499 232.350 C 185.911 227.326,187.033 225.303,184.301 229.100 M91.000 233.741 C 94.117 236.470,102.203 242.714,102.388 242.537 C 102.492 242.438,102.378 242.231,102.135 242.078 C 101.538 241.703,99.490 240.141,97.030 238.187 C 93.183 235.130,89.404 232.344,91.000 233.741 M166.000 237.198 C 166.770 237.891,167.940 238.819,168.600 239.261 C 169.659 239.969,169.636 239.915,168.400 238.802 C 167.630 238.109,166.460 237.181,165.800 236.739 C 164.741 236.031,164.764 236.085,166.000 237.198 M175.584 241.623 C 175.105 242.296,174.779 242.913,174.861 242.994 C 174.943 243.076,175.414 242.526,175.908 241.771 C 177.023 240.071,176.771 239.956,175.584 241.623 M104.200 244.161 C 105.080 244.946,105.948 245.591,106.129 245.594 C 106.595 245.602,105.638 244.730,104.000 243.654 C 102.635 242.757,102.640 242.769,104.200 244.161 M226.869 243.639 C 226.110 244.854,226.566 245.016,227.355 243.812 C 227.720 243.256,227.878 242.800,227.705 242.800 C 227.533 242.800,227.157 243.178,226.869 243.639 M222.800 249.653 C 218.309 256.277,218.545 255.904,219.280 255.200 C 220.207 254.312,226.417 245.198,226.085 245.214 C 225.928 245.222,224.450 247.219,222.800 249.653 M108.000 247.117 C 108.770 247.780,109.477 248.248,109.571 248.157 C 109.763 247.971,108.609 247.010,107.400 246.349 C 106.960 246.109,107.230 246.454,108.000 247.117 M110.140 248.703 C 110.296 248.956,110.991 249.567,111.684 250.060 C 112.377 250.554,112.817 250.750,112.660 250.497 C 112.504 250.244,111.809 249.633,111.116 249.140 C 110.423 248.646,109.983 248.450,110.140 248.703 M113.215 251.091 C 113.224 251.261,113.899 251.872,114.715 252.448 C 115.532 253.025,117.058 254.177,118.107 255.008 C 119.156 255.839,120.083 256.447,120.166 256.359 C 120.248 256.272,118.715 254.981,116.758 253.491 C 114.801 252.002,113.207 250.922,113.215 251.091 M218.112 256.500 C 216.595 258.468,212.324 264.894,212.679 264.675 C 213.163 264.375,218.947 256.000,218.669 256.000 C 218.575 256.000,218.324 256.225,218.112 256.500 M122.200 258.148 C 123.080 258.940,123.949 259.591,124.131 259.594 C 124.313 259.597,123.953 259.191,123.331 258.691 C 121.240 257.009,120.586 256.695,122.200 258.148 M128.140 262.703 C 128.296 262.956,128.991 263.567,129.684 264.060 C 130.377 264.554,130.817 264.750,130.660 264.497 C 130.504 264.244,129.809 263.633,129.116 263.140 C 128.423 262.646,127.983 262.450,128.140 262.703 M131.226 265.080 C 131.257 265.468,141.985 273.748,142.191 273.543 C 142.270 273.463,141.225 272.556,139.868 271.527 C 138.510 270.498,136.005 268.554,134.300 267.207 C 132.595 265.861,131.212 264.903,131.226 265.080 M205.706 274.311 C 204.115 276.670,202.307 279.320,201.688 280.200 C 201.070 281.080,200.410 282.070,200.223 282.400 C 199.602 283.495,200.658 282.283,201.966 280.400 C 207.072 273.050,209.098 270.002,208.867 270.011 C 208.720 270.017,207.298 271.952,205.706 274.311 M142.800 274.149 C 142.800 274.235,143.430 274.786,144.200 275.373 C 144.970 275.960,145.598 276.297,145.595 276.120 C 145.592 275.944,144.962 275.393,144.195 274.896 C 143.428 274.399,142.800 274.063,142.800 274.149 M146.109 276.639 C 146.413 277.148,152.800 282.141,152.800 281.871 C 152.800 281.771,151.495 280.650,149.900 279.379 C 145.905 276.195,145.796 276.116,146.109 276.639 M153.200 282.133 C 153.200 282.323,155.573 284.270,158.402 286.400 C 159.132 286.950,161.006 288.419,162.565 289.664 C 164.124 290.909,165.489 291.840,165.597 291.734 C 165.705 291.627,165.502 291.377,165.147 291.178 C 164.791 290.979,163.083 289.685,161.350 288.303 C 159.618 286.921,157.502 285.252,156.650 284.595 C 155.797 283.938,154.672 283.070,154.150 282.667 C 153.627 282.263,153.200 282.023,153.200 282.133 M199.119 283.900 C 198.169 284.998,194.225 291.071,194.896 290.400 C 195.652 289.645,200.127 283.200,199.895 283.200 C 199.801 283.200,199.452 283.515,199.119 283.900 M169.200 294.768 C 171.241 296.592,172.801 297.702,172.795 297.327 C 172.792 297.147,172.207 296.602,171.495 296.117 C 170.783 295.631,169.660 294.847,169.000 294.375 C 168.033 293.683,168.071 293.759,169.200 294.768 M191.673 294.600 C 191.422 295.150,191.283 295.600,191.363 295.600 C 191.443 295.600,191.803 295.150,192.163 294.600 C 192.524 294.050,192.663 293.600,192.473 293.600 C 192.284 293.600,191.923 294.050,191.673 294.600 M187.655 300.434 C 186.035 302.822,184.467 304.979,184.169 305.225 C 183.688 305.625,178.774 302.200,173.900 298.069 C 173.515 297.743,173.200 297.586,173.200 297.720 C 173.200 298.065,183.475 306.000,183.921 306.000 C 184.312 306.000,190.979 296.438,190.741 296.220 C 190.663 296.149,189.275 298.045,187.655 300.434 " stroke="none" fill="#afe6dc" fill-rule="evenodd"></path><path id="path4" d="M268.096 107.232 C 267.380 108.315,266.877 109.200,266.978 109.200 C 267.250 109.200,269.700 105.567,269.538 105.404 C 269.461 105.327,268.812 106.150,268.096 107.232 M273.994 107.582 C 274.541 108.002,275.068 108.266,275.165 108.169 C 275.391 107.942,273.929 106.827,273.400 106.822 C 273.180 106.820,273.447 107.161,273.994 107.582 M265.236 111.500 C 264.252 112.938,264.192 113.108,264.988 112.200 C 266.046 110.992,266.953 109.600,266.682 109.600 C 266.601 109.600,265.951 110.455,265.236 111.500 M282.922 113.474 C 283.068 113.711,284.856 115.032,286.894 116.410 C 288.932 117.789,290.330 118.648,290.000 118.320 C 289.083 117.410,282.619 112.983,282.922 113.474 M249.898 133.473 C 248.192 135.990,246.959 137.949,247.159 137.825 C 247.647 137.524,253.315 129.178,253.139 129.021 C 253.063 128.952,251.604 130.956,249.898 133.473 M301.498 137.100 C 299.112 140.410,297.518 142.852,297.661 142.980 C 297.738 143.047,299.011 141.325,300.491 139.152 C 303.265 135.078,303.924 133.735,301.498 137.100 M296.245 144.588 C 295.880 145.144,295.722 145.600,295.895 145.600 C 296.284 145.600,297.319 143.986,297.082 143.749 C 296.986 143.653,296.610 144.031,296.245 144.588 M241.673 145.400 C 241.422 145.950,241.283 146.400,241.363 146.400 C 241.443 146.400,241.803 145.950,242.163 145.400 C 242.524 144.850,242.663 144.400,242.473 144.400 C 242.284 144.400,241.923 144.850,241.673 145.400 M289.006 155.088 L 288.304 156.200 289.230 155.311 C 289.739 154.822,290.055 154.322,289.932 154.199 C 289.809 154.076,289.392 154.476,289.006 155.088 M233.541 157.100 C 232.828 158.145,231.634 159.875,230.888 160.945 C 230.142 162.015,229.731 162.766,229.975 162.615 C 230.481 162.303,235.322 155.200,235.030 155.200 C 234.924 155.200,234.255 156.055,233.541 157.100 M281.044 166.600 C 280.045 168.030,279.356 169.196,279.513 169.192 C 279.815 169.183,283.329 164.000,283.034 164.000 C 282.939 164.000,282.044 165.170,281.044 166.600 M222.096 173.632 C 221.380 174.715,220.877 175.600,220.978 175.600 C 221.250 175.600,223.700 171.967,223.538 171.804 C 223.461 171.727,222.812 172.550,222.096 173.632 M218.742 178.500 C 216.990 180.916,216.030 182.413,216.498 182.000 C 217.166 181.410,220.955 176.000,220.701 176.000 C 220.620 176.000,219.739 177.125,218.742 178.500 M273.293 177.600 C 273.018 178.040,272.931 178.400,273.100 178.400 C 273.269 178.400,273.632 178.040,273.907 177.600 C 274.182 177.160,274.269 176.800,274.100 176.800 C 273.931 176.800,273.568 177.160,273.293 177.600 M215.150 183.700 C 214.652 184.415,213.808 185.585,213.275 186.300 C 212.741 187.015,212.461 187.596,212.653 187.592 C 212.996 187.583,216.568 182.400,216.230 182.400 C 216.133 182.400,215.647 182.985,215.150 183.700 M266.800 187.200 C 266.330 187.860,266.036 188.400,266.146 188.400 C 266.256 188.400,266.730 187.860,267.200 187.200 C 267.670 186.540,267.964 186.000,267.854 186.000 C 267.744 186.000,267.270 186.540,266.800 187.200 M211.406 189.088 L 210.704 190.200 211.630 189.311 C 212.139 188.822,212.455 188.322,212.332 188.199 C 212.209 188.076,211.792 188.476,211.406 189.088 M261.006 195.488 L 260.304 196.600 261.230 195.711 C 261.739 195.222,262.055 194.722,261.932 194.599 C 261.809 194.476,261.392 194.876,261.006 195.488 M206.469 196.039 C 205.710 197.254,206.166 197.416,206.955 196.212 C 207.320 195.656,207.478 195.200,207.305 195.200 C 207.133 195.200,206.757 195.578,206.469 196.039 M204.096 199.632 C 203.380 200.715,202.877 201.600,202.978 201.600 C 203.250 201.600,205.700 197.967,205.538 197.804 C 205.461 197.727,204.812 198.550,204.096 199.632 M114.846 199.300 L 113.942 200.600 114.952 199.500 C 116.293 198.040,116.550 198.086,119.353 200.288 C 120.674 201.326,121.636 201.982,121.490 201.746 C 121.003 200.958,116.935 198.000,116.338 198.000 C 116.015 198.000,115.343 198.585,114.846 199.300 M256.515 202.100 C 254.781 204.367,253.866 205.720,254.209 205.513 C 254.681 205.227,257.337 201.600,257.074 201.600 C 256.977 201.600,256.726 201.825,256.515 202.100 M122.141 202.290 C 122.495 202.880,127.020 206.400,127.425 206.400 C 127.582 206.400,127.010 205.852,126.155 205.183 C 125.300 204.514,124.324 203.749,123.987 203.483 C 123.650 203.217,123.031 202.730,122.611 202.400 C 122.189 202.069,121.978 202.020,122.141 202.290 M251.350 209.500 C 250.167 211.125,249.802 211.952,250.777 210.800 C 251.678 209.734,252.519 208.400,252.289 208.400 C 252.213 208.400,251.790 208.895,251.350 209.500 M105.944 210.700 C 104.793 212.089,104.306 212.800,104.504 212.800 C 104.614 212.800,105.186 212.170,105.773 211.400 C 106.863 209.971,106.995 209.432,105.944 210.700 M132.000 210.154 C 132.000 210.239,132.495 210.627,133.100 211.016 L 134.200 211.724 133.438 210.862 C 132.764 210.099,132.000 209.723,132.000 210.154 M194.867 212.866 C 194.134 213.978,193.688 214.793,193.876 214.677 C 194.451 214.322,196.871 210.799,196.525 210.822 C 196.346 210.834,195.600 211.753,194.867 212.866 M103.386 213.778 C 103.174 214.075,102.583 214.876,102.073 215.559 C 101.563 216.241,101.233 216.800,101.339 216.800 C 101.653 216.800,104.112 213.579,103.934 213.401 C 103.845 213.311,103.598 213.481,103.386 213.778 M137.600 214.397 C 139.207 215.845,141.200 217.334,141.200 217.086 C 141.200 216.994,140.075 216.067,138.700 215.027 C 137.325 213.986,136.830 213.703,137.600 214.397 M245.984 217.223 C 245.505 217.896,245.179 218.513,245.261 218.594 C 245.343 218.676,245.814 218.126,246.308 217.371 C 247.423 215.671,247.171 215.556,245.984 217.223 M99.600 218.800 C 98.903 219.680,98.423 220.400,98.533 220.400 C 98.643 220.400,99.303 219.680,100.000 218.800 C 100.697 217.920,101.177 217.200,101.067 217.200 C 100.957 217.200,100.297 217.920,99.600 218.800 M189.269 220.839 C 188.510 222.054,188.966 222.216,189.755 221.012 C 190.120 220.456,190.278 220.000,190.105 220.000 C 189.933 220.000,189.557 220.378,189.269 220.839 M186.896 224.432 C 186.180 225.515,185.677 226.400,185.778 226.400 C 186.050 226.400,188.500 222.767,188.338 222.604 C 188.261 222.527,187.612 223.350,186.896 224.432 M94.796 224.897 C 93.867 226.294,93.449 227.048,93.852 226.600 C 95.615 224.640,96.086 224.000,95.766 224.000 C 95.561 224.000,95.124 224.404,94.796 224.897 M239.144 227.100 C 237.852 228.660,237.519 229.200,237.851 229.195 C 238.043 229.192,238.607 228.562,239.104 227.795 C 240.072 226.301,240.092 225.956,239.144 227.100 M184.036 228.700 C 183.052 230.138,182.992 230.308,183.788 229.400 C 184.846 228.192,185.753 226.800,185.482 226.800 C 185.401 226.800,184.751 227.655,184.036 228.700 M235.060 232.996 C 233.817 234.864,232.800 236.527,232.800 236.692 C 232.800 236.857,233.580 235.823,234.533 234.396 C 237.291 230.266,237.704 229.600,237.506 229.600 C 237.404 229.600,236.303 231.128,235.060 232.996 M161.318 233.000 C 162.327 233.770,163.279 234.400,163.434 234.400 C 163.588 234.400,162.890 233.770,161.882 233.000 C 160.873 232.230,159.921 231.600,159.766 231.600 C 159.612 231.600,160.310 232.230,161.318 233.000 M89.800 233.478 C 90.607 234.364,95.342 238.000,95.689 238.000 C 95.887 238.000,94.822 237.072,93.324 235.938 C 89.813 233.281,89.285 232.912,89.800 233.478 M164.000 234.908 C 164.000 235.004,165.080 235.930,166.400 236.968 C 167.720 238.005,168.798 238.706,168.795 238.527 C 168.792 238.347,168.207 237.802,167.495 237.317 C 166.783 236.831,165.705 236.051,165.100 235.583 C 164.495 235.116,164.000 234.812,164.000 234.908 M178.598 236.402 C 178.198 236.844,177.966 237.299,178.082 237.415 C 178.197 237.530,178.590 237.169,178.955 236.612 C 179.752 235.396,179.593 235.302,178.598 236.402 M96.544 238.709 C 96.860 239.221,99.200 240.953,99.200 240.675 C 99.200 240.576,98.539 239.991,97.732 239.375 C 96.924 238.759,96.389 238.459,96.544 238.709 M227.632 243.539 C 226.979 244.760,227.114 245.100,227.841 244.063 C 228.193 243.560,228.388 243.054,228.273 242.940 C 228.159 242.825,227.870 243.095,227.632 243.539 M106.833 246.923 C 106.925 246.990,107.810 247.637,108.800 248.361 L 110.600 249.676 109.000 248.244 C 108.120 247.456,107.235 246.809,107.033 246.806 C 106.832 246.803,106.742 246.855,106.833 246.923 M111.200 250.125 C 111.200 250.224,111.861 250.809,112.668 251.425 C 113.476 252.041,114.011 252.341,113.856 252.091 C 113.540 251.579,111.200 249.847,111.200 250.125 M218.866 256.253 C 217.473 258.350,216.393 260.119,216.466 260.184 C 216.540 260.250,217.811 258.525,219.291 256.352 C 220.771 254.178,221.851 252.409,221.691 252.421 C 221.531 252.432,220.260 254.157,218.866 256.253 M124.833 260.923 C 124.925 260.990,125.810 261.637,126.800 262.361 L 128.600 263.676 127.000 262.244 C 126.120 261.456,125.235 260.809,125.033 260.806 C 124.832 260.803,124.742 260.855,124.833 260.923 M128.815 263.873 C 128.824 264.053,129.499 264.669,130.315 265.243 C 131.132 265.816,132.790 267.048,134.000 267.979 C 135.210 268.911,135.570 269.109,134.800 268.420 C 132.371 266.247,128.799 263.534,128.815 263.873 M210.784 268.023 C 210.305 268.696,209.979 269.313,210.061 269.394 C 210.143 269.476,210.614 268.926,211.108 268.171 C 212.223 266.471,211.971 266.356,210.784 268.023 M136.400 269.725 C 136.400 269.824,137.061 270.409,137.868 271.025 C 138.676 271.641,139.211 271.941,139.056 271.691 C 138.740 271.179,136.400 269.447,136.400 269.725 M139.600 272.300 C 139.600 272.469,139.960 272.832,140.400 273.107 C 140.840 273.382,141.200 273.469,141.200 273.300 C 141.200 273.131,140.840 272.768,140.400 272.493 C 139.960 272.218,139.600 272.131,139.600 272.300 M200.455 282.864 C 198.835 285.273,197.575 287.304,197.655 287.378 C 197.735 287.453,199.125 285.544,200.745 283.136 C 202.365 280.727,203.625 278.696,203.545 278.622 C 203.465 278.547,202.075 280.456,200.455 282.864 M150.800 280.933 C 150.800 281.043,151.520 281.703,152.400 282.400 C 153.280 283.097,154.000 283.577,154.000 283.467 C 154.000 283.357,153.280 282.697,152.400 282.000 C 151.520 281.303,150.800 280.823,150.800 280.933 M154.400 283.725 C 154.400 283.824,155.061 284.409,155.868 285.025 C 156.676 285.641,157.211 285.941,157.056 285.691 C 156.740 285.179,154.400 283.447,154.400 283.725 M192.245 294.588 C 191.880 295.144,191.722 295.600,191.895 295.600 C 192.284 295.600,193.319 293.986,193.082 293.749 C 192.986 293.653,192.610 294.031,192.245 294.588 M171.069 296.909 C 173.187 298.613,173.805 298.921,172.200 297.473 C 171.320 296.680,170.451 296.023,170.269 296.015 C 170.087 296.007,170.447 296.409,171.069 296.909 M177.462 301.950 C 179.408 303.463,181.075 304.633,181.167 304.550 C 181.258 304.468,181.258 304.349,181.167 304.286 C 181.075 304.223,179.530 303.053,177.733 301.686 C 175.936 300.319,174.344 299.200,174.195 299.200 C 174.046 299.200,175.516 300.438,177.462 301.950 M185.407 304.626 C 184.809 305.411,184.382 306.116,184.460 306.193 C 184.537 306.270,185.107 305.628,185.726 304.767 C 187.134 302.808,186.879 302.696,185.407 304.626 " stroke="none" fill="#5eccbc" fill-rule="evenodd"></path></g></svg>