<svg height="512" viewBox="0 0 50 58" width="512" xmlns="http://www.w3.org/2000/svg"><g id="008---Native-Indian-Woman" fill="none" fill-rule="evenodd" transform="translate(-1)"><g fill-rule="nonzero"><path id="Shape" d="m45 47c-.5522847 0-1-.4477153-1-1s.4477153-1 1-1c1.565191.018076 3.1171484-.2883658 4.558-.9.494571-.2460429 1.0949571-.044571 1.341.45s.044571 1.0949571-.45 1.341c-1.7164007.7542203-3.5743443 1.1323556-5.449 1.109z" fill="#a65a47"/><path id="Shape" d="m45 52c-.5522847 0-1-.4477153-1-1s.4477153-1 1-1c1.565191.018076 3.1171484-.2883658 4.558-.9.494571-.2460429 1.0949571-.044571 1.341.45s.044571 1.0949571-.45 1.341c-1.7164007.7542203-3.5743443 1.1323556-5.449 1.109z" fill="#a65a47"/><path id="Shape" d="m45 57c-.5522847 0-1-.4477153-1-1s.4477153-1 1-1c1.565191.018076 3.1171484-.2883658 4.558-.9.494571-.2460429 1.0949571-.044571 1.341.45s.044571 1.0949571-.45 1.341c-1.7164007.7542203-3.5743443 1.1323556-5.449 1.109z" fill="#a65a47"/><path id="Shape" d="m7 47c-1.87400145.0261906-3.73191763-.3488705-5.449-1.1-.49705624-.2465952-.70009508-.8494437-.45349995-1.3465.24659513-.4970562.84944368-.7000951 1.34649995-.4535 1.44022441.6113908 2.99147859.9178282 4.556.9.55228475 0 1 .4477153 1 1s-.44771525 1-1 1z" fill="#a65a47"/><path id="Shape" d="m7 52c-1.87400145.0261906-3.73191763-.3488705-5.449-1.1-.49705624-.2465952-.70009507-.8494437-.45349994-1.3465.24659513-.4970562.84944367-.7000951 1.34649994-.4535 1.44022441.6113908 2.99147859.9178282 4.556.9.55228475 0 1 .4477153 1 1s-.44771525 1-1 1z" fill="#a65a47"/><path id="Shape" d="m7 57c-1.87400145.0261906-3.73191763-.3488705-5.449-1.1-.49705627-.2465951-.70009514-.8494437-.4535-1.3465s.84944373-.7000951 1.3465-.4535c1.44022441.6113908 2.99147859.9178282 4.556.9.55228475 0 1 .4477153 1 1s-.44771525 1-1 1z" fill="#a65a47"/><path id="Shape" d="m42.73 37.61c.1722256-.4594901.2635754-.9453356.27-1.436 0-2.594-1.343-4.174-3-4.174-1.405 0-2.576 1.146-2.9 3.073l-.029-.013c-.03 0-.05-.01-.08-.01.0077394-.0154565.0108639-.0328149.009-.05h-5v-3.988c1.0655984-1.5357688 1.9611866-3.1827659 2.671-4.912.334 2.9 3.329 3.9 3.329 3.9 0 1.1045695.8954305 2 2 2s2-.8954305 2-2-.8954305-2-2-2v-16c0-.5522847-.4477153-1-1-1h-.15c-.9935017-6.3288496-6.4436476-10.99434421-12.85-11-.11 0-.216.019-.325.019s-.215-.019-.325-.019c-3.4481626-.00292066-6.7553773 1.36818791-9.19 3.81-.149.148-.287.307-.428.463-.4007117-1.15656487-1.0382931-2.21681645-1.872-3.113-.0921225-.10157751-.2228704-.15950957-.36-.15950957s-.2678775.05793206-.36.15950957c-.9994821 1.05673537-1.7030722 2.35803226-2.04 3.773-.8694439-.8348552-1.90156444-1.48163261-3.032-1.9-.12977801-.04905013-.27401985-.042548-.39885831.01797974-.12483846.06052773-.2192769.16974938-.26114169.30202026-.57759038 1.69005247-.53147842 3.53098394.13 5.19 1.22 2.48 3.2 4.01 4.46 3.46v15.997c-1.1045695 0-2 .8954305-2 2s.8954305 2 2 2 2-.8954305 2-2c0 0 3-1 3.329-3.9.7104466 1.7293215 1.6067072 3.376322 2.673 4.912v3.988h-5c-.0015564.0172822.0019163.0346458.01.05-.03 0-.05.01-.08.01l-.029.013c-.325-1.927-1.496-3.073-2.901-3.073-1.657 0-3 1.58-3 4.174.00956267.4898681.10395977.9743723.279 1.432-2.0879561 1.8911417-3.27900896 4.5769133-3.279 7.394v11c.0032948 1.1032019.89679813 1.9967052 2 2h36c1.1032019-.0032948 1.9967052-.8967981 2-2v-11c.0033118-2.8147538-1.1846438-5.4994606-3.27-7.39z" fill="#cc6f56"/><path id="Shape" d="m14 53v5h-2v-5c0-.5522847.4477153-1 1-1s1 .4477153 1 1z" fill="#804537"/><path id="Shape" d="m40 53v5h-2v-5c0-.5522847.4477153-1 1-1s1 .4477153 1 1z" fill="#804537"/><path id="Shape" d="m16 55c-3.3123376-.0033074-5.9966926-2.6876624-6-6v-1c0-.5522847.4477153-1 1-1s1 .4477153 1 1v1c0 2.209139 1.790861 4 4 4 .5522847 0 1 .4477153 1 1s-.4477153 1-1 1z" fill="#804537"/><path id="Shape" d="m36 55c-.5522847 0-1-.4477153-1-1s.4477153-1 1-1c2.209139 0 4-1.790861 4-4v-1c0-.5522847.4477153-1 1-1s1 .4477153 1 1v1c-.0033074 3.3123376-2.6876624 5.9966926-6 6z" fill="#804537"/><path id="Shape" d="m36.95 35c0 .34-.05 19-10.95 19s-10.95-18.66-10.95-19c.25 2.8 1.55 3.29 3.5 5.09 1.0292036.9495183 2.2308894 1.6929341 3.54 2.19 2.5182825.9599753 5.3017175.9599753 7.82 0 1.3091106-.4970659 2.5107964-1.2404817 3.54-2.19 1.95-1.8 3.25-2.29 3.5-5.09z" fill="#a65a47"/><path id="Shape" d="m26 40-3.6 3.46h-.01c-1.3095479-.4047436-2.5357019-1.0415308-3.62-1.88l1.98-4.07c.76 1.25 2.26 2.49 5.25 2.49z" fill="#cbb292"/><path id="Shape" d="m33.23 41.58c-1.0842981.8384692-2.3104521 1.4752564-3.62 1.88h-.01l-3.6-3.46c2.99 0 4.49-1.24 5.25-2.49z" fill="#cbb292"/><path id="Shape" d="m12 15v13l2 2s3-1 3.329-3.9l.262-4.665z" fill="#393f4a"/><path id="Shape" d="m40 15v13l-2 2s-3-1-3.329-3.9l-.419-4.339z" fill="#393f4a"/><path id="Shape" d="m11.1 4.933c-.8677613-.83700973-1.90035926-1.4840863-3.032-1.9-.1296904-.05059803-.27460372-.04483677-.39986793.01589739s-.21953685.17094185-.26013207.30410261c-.58169831 1.68942023-.53554954 3.53182104.13 5.19 1.22 2.48 3.2 4.01 4.46 3.46l2-2z" fill="#a5a5a4"/><path id="Shape" d="m20.75 37.5v.01l-1.98 4.07c-2.0998925-1.5652977-3.4603968-3.9280885-3.76-6.53.32-.03.66-.05.99-.05h4c.0407573.8823044.2983546 1.7409621.75 2.5z" fill="#a59078"/><path id="Shape" d="m36.99 35.05c-.2996032 2.6019115-1.6601075 4.9647023-3.76 6.53l-1.98-4.07v-.01c.4516454-.7590379.7092427-1.6176956.75-2.5h4c.33 0 .67.02.99.05z" fill="#a59078"/><path id="Shape" d="m32 31.012v3.988c-.0407573.8823044-.2983546 1.7409621-.75 2.5v.01c-.76 1.25-2.26 2.49-5.25 2.49s-4.49-1.24-5.25-2.49v-.01c-.4516454-.7590379-.7092427-1.6176956-.75-2.5v-3.988z" fill="#cb8252"/></g><path id="Shape" d="m16 16.06c-.021142-.0224232-.0446071-.0425361-.07-.06z" stroke="#000" stroke-linecap="round" stroke-linejoin="round" stroke-width="2"/><path id="Shape" d="m39.94 16c.0924498.7512272.051829 1.5128677-.12 2.25-.2528172 1.4779504-.9587036 2.8408003-2.02 3.9-.6133083.5919036-1.337043 1.0574043-2.13 1.37h-19.34c-.792957-.3125957-1.5166917-.7780964-2.13-1.37-1.0612964-1.0591997-1.7671828-2.4220496-2.02-3.9-.171829-.7371323-.2124498-1.4987728-.12-2.25z" fill="#cb8252" fill-rule="nonzero"/><path id="Shape" d="m36 16v5.63c-.0000269.5912141-.0945526 1.1786237-.28 1.74-.6491739 1.9419801-1.4690427 3.8226586-2.45 5.62-1.69 3.04-4.14 6.01-7.27 6.01s-5.58-2.97-7.27-6.01c-.9809573-1.7973414-1.8008261-3.6780199-2.45-5.62-.1854474-.5613763-.2799731-1.1487859-.28-1.74v-5.63z" fill="#fac176" fill-rule="nonzero"/><path id="Shape" d="m12 12.562 13.675-.795 13.675.8-.777-1.546.277-.021c-.9935017-6.3288496-6.4436476-10.99434421-12.85-11-.11 0-.216.019-.325.019s-.215-.019-.325-.019c-6.4058858.00691634-11.8553248 4.67180576-12.85 11z" fill="#393f4a" fill-rule="nonzero"/><path id="Shape" d="m21 11-6 5h-3v-4c0-.5522847.4477153-1 1-1z" fill="#e64c3c" fill-rule="nonzero"/><path id="Shape" d="m26 16h-11l6-5z" fill="#2fa8cc" fill-rule="nonzero"/><path id="Shape" d="m32 11-6 5-5-5z" fill="#e64c3c" fill-rule="nonzero"/><path id="Shape" d="m37 16h-11l6-5z" fill="#2fa8cc" fill-rule="nonzero"/><path id="Shape" d="m40 12v4h-3l-5-5h7c.5522847 0 1 .4477153 1 1z" fill="#e64c3c" fill-rule="nonzero"/><path id="Shape" d="m16 5.9c0 2.819-1.119 5.1-2.5 5.1s-2.5-2.285-2.5-5.1c.1310074-1.78318733.8891342-3.46240274 2.14-4.74.0921225-.10157751.2228704-.15950957.36-.15950957s.2678775.05793206.36.15950957c1.2508658 1.27759726 2.0089926 2.95681267 2.14 4.74z" fill="#d1d4d1" fill-rule="nonzero"/><circle id="Oval" cx="12" cy="30" fill="#e64c3c" fill-rule="nonzero" r="2"/><path id="Shape" d="m15 36.174c0 1.771-1.4 3.558-2.288 4.511-.1823271.2006705-.4408694.3150842-.712.3150842s-.5296729-.1144137-.712-.3150842c-.888-.953-2.288-2.74-2.288-4.511 0-2.594 1.343-4.174 3-4.174s3 1.58 3 4.174z" fill="#393f4a" fill-rule="nonzero"/><circle id="Oval" cx="40" cy="30" fill="#e64c3c" fill-rule="nonzero" r="2"/><path id="Shape" d="m37 36.174c0 1.771 1.4 3.558 2.288 4.511.1823271.2006705.4408694.3150842.712.3150842s.5296729-.1144137.712-.3150842c.888-.953 2.288-2.74 2.288-4.511 0-2.594-1.343-4.174-3-4.174s-3 1.58-3 4.174z" fill="#393f4a" fill-rule="nonzero"/><path id="Shape" d="m29.6 43.46c-2.3459908.7200614-4.8540092.7200614-7.2 0l3.6-3.46z" fill="#a59078" fill-rule="nonzero"/></g></svg>