<svg width="513" height="363" viewBox="0 0 513 363" fill="none" xmlns="http://www.w3.org/2000/svg">
<path d="M500.678 51.819L501.318 56.0003C495.132 34.0483 478.428 17.1096 457.201 10.9443L456.753 10.8376C416.838 0.00029246 256.22 0.000294828 256.22 0.000294828C256.22 0.000294828 96.0063 -0.213041 55.6863 10.8376C34.0543 17.1096 17.3289 34.0483 11.2489 55.5523L11.1423 56.0003C-3.76972 133.888 -3.87639 227.478 11.8036 310.87L11.1423 306.646C17.3289 328.598 34.0329 345.536 55.2596 351.702L55.7076 351.808C95.5796 362.667 256.241 362.667 256.241 362.667C256.241 362.667 416.433 362.667 456.774 351.808C478.428 345.536 495.153 328.598 501.233 307.094L501.34 306.646C508.124 270.422 512.006 228.736 512.006 186.155C512.006 184.598 512.006 183.019 511.985 181.44C512.006 179.99 512.006 178.262 512.006 176.534C512.006 133.931 508.124 92.2456 500.678 51.819V51.819ZM204.977 259.222V103.638L338.652 181.547L204.977 259.222Z" fill="black"/>
</svg>
