<svg width="27" height="25" viewBox="0 0 27 25" fill="none" xmlns="http://www.w3.org/2000/svg">
<path fill-rule="evenodd" clip-rule="evenodd" d="M12 1.5C12 1.22386 12.2239 1 12.5 1H14.5C14.7761 1 15 1.22386 15 1.5V3H12V1.5Z" fill="black"/>
<path fill-rule="evenodd" clip-rule="evenodd" d="M13 2H14V0.5C14 0.223858 13.7761 0 13.5 0C13.2239 0 13 0.223858 13 0.5V2Z" fill="black"/>
<path fill-rule="evenodd" clip-rule="evenodd" d="M26.5 3C26.7761 3 27 2.77614 27 2.5C27 2.22386 26.7761 2 26.5 2H0.5C0.223858 2 0 2.22386 0 2.5C0 2.77614 0.223858 3 0.5 3H26.5Z" fill="black"/>
<path fill-rule="evenodd" clip-rule="evenodd" d="M22.5 9C22.7761 9 23 8.77614 23 8.5C23 8.22386 22.7761 8 22.5 8H15.5C15.2239 8 15 8.22386 15 8.5C15 8.77614 15.2239 9 15.5 9H22.5Z" fill="black"/>
<path d="M26 4H1V19H26V4Z" fill="black"/>
<path fill-rule="evenodd" clip-rule="evenodd" d="M3.5 12.5C3.5 14.7091 5.29086 16.5 7.5 16.5C9.70914 16.5 11.5 14.7091 11.5 12.5C11.5 12.2239 11.2761 12 11 12H8V9C8 8.72386 7.77614 8.5 7.5 8.5C5.29086 8.5 3.5 10.2909 3.5 12.5Z" fill="black"/>
<path fill-rule="evenodd" clip-rule="evenodd" d="M9 10.51C9 10.7806 9.2227 11 9.49004 11H13C13.2761 11 13.5 10.7761 13.5 10.5C13.5 8.29086 11.7091 6.5 9.5 6.5C9.22386 6.5 9 6.72386 9 7V10.51Z" fill="black"/>
<path fill-rule="evenodd" clip-rule="evenodd" d="M22.5 12C22.7761 12 23 11.7761 23 11.5C23 11.2239 22.7761 11 22.5 11H15.5C15.2239 11 15 11.2239 15 11.5C15 11.7761 15.2239 12 15.5 12H22.5Z" fill="black"/>
<path fill-rule="evenodd" clip-rule="evenodd" d="M22.5 15C22.7761 15 23 14.7761 23 14.5C23 14.2239 22.7761 14 22.5 14H15.5C15.2239 14 15 14.2239 15 14.5C15 14.7761 15.2239 15 15.5 15H22.5Z" fill="black"/>
<path fill-rule="evenodd" clip-rule="evenodd" d="M26.5 21C26.7761 21 27 20.7761 27 20.5C27 20.2239 26.7761 20 26.5 20H0.5C0.223858 20 0 20.2239 0 20.5C0 20.7761 0.223858 21 0.5 21H26.5Z" fill="black"/>
<path fill-rule="evenodd" clip-rule="evenodd" d="M7.10003 24.2C6.93434 24.4209 6.97912 24.7343 7.20003 24.9C7.42094 25.0657 7.73434 25.0209 7.90003 24.8L10.9 20.8C11.0657 20.5791 11.0209 20.2657 10.8 20.1C10.5791 19.9343 10.2657 19.9791 10.1 20.2L7.10003 24.2Z" fill="black"/>
<path fill-rule="evenodd" clip-rule="evenodd" d="M19.1 24.8C19.2657 25.0209 19.5791 25.0657 19.8 24.9C20.0209 24.7343 20.0657 24.4209 19.9 24.2L16.9 20.2C16.7343 19.9791 16.4209 19.9343 16.2 20.1C15.9791 20.2657 15.9343 20.5791 16.1 20.8L19.1 24.8Z" fill="black"/>
</svg>
