<?xml version="1.0" standalone="no"?>
<!DOCTYPE svg PUBLIC "-//W3C//DTD SVG 20010904//EN"
 "http://www.w3.org/TR/2001/REC-SVG-20010904/DTD/svg10.dtd">
<svg version="1.0" xmlns="http://www.w3.org/2000/svg"
 width="512.000000pt" height="512.000000pt" viewBox="0 0 512.000000 512.000000"
 preserveAspectRatio="xMidYMid meet">

<g transform="translate(0.000000,512.000000) scale(0.100000,-0.100000)"
fill="#000000" stroke="none">
<path d="M400 4947 c-49 -16 -133 -102 -148 -153 -18 -60 -18 -4408 0 -4468
16 -55 99 -138 154 -154 32 -9 405 -12 1596 -12 1756 0 1613 -7 1691 80 24 26
49 66 55 88 9 29 12 277 12 953 l1 914 534 635 c294 349 545 655 557 680 18
35 23 62 23 120 0 109 -28 155 -164 268 -133 112 -157 124 -251 129 -67 4 -81
2 -130 -24 -61 -31 -85 -58 -382 -411 l-187 -223 -3 438 -3 438 -27 45 c-33
55 -600 621 -648 646 -34 18 -89 19 -1340 21 -933 1 -1315 -2 -1340 -10z
m2560 -442 l0 -296 25 -24 24 -25 296 0 295 0 0 -492 -1 -493 -519 -619 c-286
-340 -520 -621 -520 -623 0 -3 -36 -158 -80 -344 -45 -187 -78 -345 -74 -352
18 -32 50 -57 72 -57 20 0 335 131 597 249 70 31 72 34 290 292 120 143 223
262 227 265 4 3 8 -360 8 -806 l0 -811 -25 -24 -24 -25 -1551 0 -1551 0 -24
25 -25 24 0 2191 0 2191 25 24 24 25 1256 0 1255 0 0 -295z m345 -5 l180 -180
-183 0 -182 0 0 180 c0 99 1 180 3 180 1 0 83 -81 182 -180z m1289 -710 c152
-127 159 -164 50 -295 -36 -44 -72 -86 -79 -94 -12 -12 -36 4 -162 109 -81 68
-156 131 -166 140 -18 17 -16 20 43 91 95 113 116 129 170 129 43 0 53 -5 144
-80z m-346 -357 c70 -59 144 -122 164 -139 l37 -33 -660 -788 c-363 -433 -671
-799 -684 -812 l-24 -24 -165 138 c-164 137 -166 139 -147 159 10 12 316 378
681 814 364 435 664 792 666 792 2 0 62 -48 132 -107z m-1414 -1797 c104 -87
107 -90 84 -102 -53 -28 -309 -136 -313 -132 -2 2 15 83 37 180 42 176 42 176
63 160 12 -9 69 -57 129 -106z"/>
<path d="M1317 4389 c-10 -6 -63 -101 -118 -211 l-100 -200 -88 85 c-48 47
-99 89 -114 92 -50 13 -107 -45 -94 -97 4 -13 69 -85 145 -161 144 -142 163
-153 213 -127 26 14 279 521 279 558 0 55 -72 91 -123 61z"/>
<path d="M1705 4135 c-16 -15 -25 -36 -25 -55 0 -19 9 -40 25 -55 l24 -25 471
0 471 0 24 25 c16 15 25 36 25 55 0 19 -9 40 -25 55 l-24 25 -471 0 -471 0
-24 -25z"/>
<path d="M1317 3429 c-10 -6 -63 -101 -118 -211 l-100 -200 -88 85 c-48 47
-99 89 -114 92 -50 13 -107 -45 -94 -97 4 -13 69 -85 145 -161 144 -142 163
-153 213 -127 26 14 279 521 279 558 0 55 -72 91 -123 61z"/>
<path d="M1625 3175 c-16 -15 -25 -36 -25 -55 0 -19 9 -40 25 -55 l24 -25 751
0 751 0 24 25 c33 32 33 78 0 110 l-24 25 -751 0 -751 0 -24 -25z"/>
<path d="M825 2455 l-25 -24 0 -271 0 -271 25 -24 24 -25 271 0 271 0 24 25
25 24 0 271 0 271 -25 24 -24 25 -271 0 -271 0 -24 -25z m455 -295 l0 -160
-160 0 -160 0 0 160 0 160 160 0 160 0 0 -160z"/>
<path d="M1625 2215 c-16 -15 -25 -36 -25 -55 0 -19 9 -40 25 -55 l24 -25 391
0 391 0 24 25 c16 15 25 36 25 55 0 19 -9 40 -25 55 l-24 25 -391 0 -391 0
-24 -25z"/>
<path d="M825 1495 l-25 -24 0 -271 0 -271 25 -24 24 -25 271 0 271 0 24 25
25 24 0 271 0 271 -25 24 -24 25 -271 0 -271 0 -24 -25z m455 -295 l0 -160
-160 0 -160 0 0 160 0 160 160 0 160 0 0 -160z"/>
<path d="M1625 1255 c-16 -15 -25 -36 -25 -55 0 -19 9 -40 25 -55 l24 -25 271
0 271 0 24 25 c16 15 25 36 25 55 0 19 -9 40 -25 55 l-24 25 -271 0 -271 0
-24 -25z"/>
</g>
</svg>
