<svg height="512" viewBox="0 0 512 512" width="512" xmlns="http://www.w3.org/2000/svg"><g id="Flat"><path d="m107.88232 440a83.88192 83.88192 0 0 1 -59.31347-143.1958l36.11767-36.11768 22.627 22.627-36.11772 36.11763a51.88258 51.88258 0 0 0 73.373 73.373l52.11767-52.11768 22.627 22.627-52.11767 52.11768a83.33087 83.33087 0 0 1 -59.31348 24.56885z" fill="#2f4054"/><path d="m254.25575 264a22.25571 22.25571 0 0 1 -22.25575-22.25572 41.27729 41.27729 0 0 1 4.35776-18.45977l31.60544-63.21087a32 32 0 0 1 37.8168-16.33964l54.22 16.266-16 88-73.39067 8.83989a22.25573 22.25573 0 0 1 -16.35358 7.16011z" fill="#f4ceaf"/><path d="m496 256v176l-72-72h-71.43a39.99391 39.99391 0 0 1 -28.29-11.72l-68.28-68.28 6.47-3.88 73.53-44.12 80-48z" fill="#f4ceaf"/><g fill="#f2c194"><path d="m376 336h-55.43164a47.68367 47.68367 0 0 1 -33.94092-14.05908l-36.28418-36.28418 11.31348-11.31348 36.28418 36.28418a31.79092 31.79092 0 0 0 22.62744 9.37256h55.43164z"/><path d="m424 291.51472a8.48527 8.48527 0 0 1 -14.48527 6l-49.51473-49.51472h-48a47.72578 47.72578 0 0 1 -6.42-24h54.42l61.51472 61.51472a8.48527 8.48527 0 0 1 2.48528 6z"/><path d="m424 312v48h-64.02a80.30821 80.30821 0 0 1 -30.39-48h-9.59a64.18264 64.18264 0 0 1 -57.53-35.88l13.81-8.28 33.05-19.84h50.67z"/></g><path d="m264 264a81.95351 81.95351 0 0 1 -57.94 24h-6.06a221.37366 221.37366 0 0 1 -12.4 73.08q-3.3 9.45-7.46 18.62l-.14.3.3-.14q9.15-4.155 18.62-7.46a221.37576 221.37576 0 0 1 73.08-12.4v-6.06a81.93463 81.93463 0 0 1 24-57.94zm-32 80a16 16 0 1 1 16-16 15.99559 15.99559 0 0 1 -16 16z" fill="#eebe33"/><path d="m488 105.34a33.31422 33.31422 0 0 1 -10.81 24.57l-14.23 13.05-25.05 22.95-141.91 130.09-32-32 130.09-141.91 22.95-25.05 13.05-14.23a33.33253 33.33253 0 0 1 57.91 22.53z" fill="#2d80b3"/><path d="m462.96 142.96-25.05 22.95-43.82-43.82 22.95-25.05z" fill="#396795"/><path d="m232 304a24.00273 24.00273 0 0 0 -21.66 34.34l-22.74 22.74q-3.3 9.45-7.46 18.62l-.14.3.3-.14q9.15-4.155 18.62-7.46l22.74-22.74a24.00063 24.00063 0 1 0 10.34-45.66zm5.65 29.65a7.9903 7.9903 0 1 1 2.35-5.65 7.97542 7.97542 0 0 1 -2.35 5.65z" fill="#e88604"/><path d="m424 312v48h-16a63.98234 63.98234 0 0 1 -64-64h-24a48.00384 48.00384 0 0 1 -48-48h88z" fill="#f4ceaf"/></g></svg>