<svg width="271" height="235" viewBox="0 0 271 235" fill="none" xmlns="http://www.w3.org/2000/svg">
<g clip-path="url(#clip0)">
<path d="M125 198C179.676 198 224 153.676 224 99C224 44.3238 179.676 0 125 0C70.3238 0 26 44.3238 26 99C26 153.676 70.3238 198 125 198Z" fill="#00B564"/>
<path d="M214.491 141.384C198.612 174.855 164.507 198 125 198C85.4928 198 51.3881 174.855 35.5094 141.384H214.491Z" fill="#009950"/>
<path d="M78.8413 40.2458H62.7112L64.3586 35.6516L69.3434 21.7297C69.9699 19.9856 71.5825 19.9856 72.209 21.7297L77.1938 35.6516L78.8413 40.2458Z" fill="#DB1B1B"/>
<path d="M78.8413 40.2458H62.7112L64.3586 35.6516H77.1938L78.8413 40.2458Z" fill="#C41616"/>
<path d="M60.1898 49.6547H81.3588V130.521H60.1898V49.6547Z" fill="#F55B4B"/>
<path d="M60.1898 130.521H81.3588V136.009C81.3588 137.435 80.7925 138.802 79.7844 139.81C78.7763 140.818 77.409 141.384 75.9834 141.384H65.5691C64.1434 141.384 62.7762 140.818 61.7681 139.81C60.76 138.802 60.1937 137.435 60.1937 136.009V130.521H60.1898V130.521Z" fill="#DB1B1B"/>
<path d="M62.7112 39.9094H78.8412C79.51 39.9094 80.1513 40.175 80.6242 40.6479C81.097 41.1207 81.3627 41.7621 81.3627 42.4308V49.6547H60.1898V42.4308C60.1898 41.7621 60.4555 41.1207 60.9283 40.6479C61.4012 40.175 62.0425 39.9094 62.7112 39.9094V39.9094Z" fill="#DB1B1B"/>
<path d="M67.5297 39.9094V40.2458H62.7112L62.8311 39.9094H67.5297Z" fill="#DB1B1B"/>
<path d="M67.5297 39.9094V40.2458H62.7112L62.8311 39.9094H67.5297Z" fill="#C41616"/>
<path d="M60.1898 49.6547H67.5297V130.521H60.1898V49.6547Z" fill="#E04F44"/>
<path d="M67.5297 130.521V141.272H64.4708C63.2613 141.02 62.1755 140.359 61.3959 139.401C60.6163 138.442 60.1904 137.244 60.1898 136.009V130.521H67.5297Z" fill="#C41616"/>
<path d="M67.5297 39.9094V49.6547H60.1821V42.4308C60.1821 41.7621 60.4477 41.1207 60.9206 40.6479C61.3934 40.175 62.0348 39.9094 62.7035 39.9094H67.5297Z" fill="#C41616"/>
<path d="M60.1898 53.9086H81.3588V60.4055H60.1898V53.9086Z" fill="#32314B"/>
<path d="M60.1898 53.9125H67.5297V60.4093H60.1898V53.9125Z" fill="#27273D"/>
<path d="M74.9741 69.9265C74.9741 67.607 73.0938 65.7267 70.7743 65.7267C68.4548 65.7267 66.5745 67.607 66.5745 69.9265V110.807C66.5745 113.126 68.4548 115.006 70.7743 115.006C73.0938 115.006 74.9741 113.126 74.9741 110.807V69.9265Z" fill="white"/>
<path d="M67.5297 67.2581V113.475C66.9115 112.723 66.5738 111.78 66.5745 110.807V69.9265C66.5732 68.9531 66.9109 68.0095 67.5297 67.2581V67.2581Z" fill="#D6D4D4"/>
<path d="M60.1898 119.542H81.3588V126.039H60.1898V119.542Z" fill="#32314B"/>
<path d="M60.1898 119.542H67.5297V126.039H60.1898V119.542Z" fill="#27273D"/>
<path d="M105.722 40.2458H89.592L91.2395 35.6516L96.2243 21.7297C96.8508 19.9856 98.4634 19.9856 99.0899 21.7297L104.075 35.6516L105.722 40.2458Z" fill="#F7BB38"/>
<path d="M105.722 40.2458H89.592L91.2395 35.6516H104.075L105.722 40.2458Z" fill="#DDA431"/>
<path d="M87.0706 49.6547H108.24V130.521H87.0706V49.6547Z" fill="#F6D372"/>
<path d="M87.0706 130.521H108.24V136.009C108.24 137.435 107.673 138.802 106.665 139.81C105.657 140.818 104.29 141.384 102.864 141.384H92.4499C91.0242 141.384 89.657 140.818 88.6489 139.81C87.6408 138.802 87.0745 137.435 87.0745 136.009V130.521H87.0706Z" fill="#F7BB38"/>
<path d="M89.592 39.9094H105.722C106.391 39.9094 107.032 40.175 107.505 40.6479C107.978 41.1207 108.243 41.7621 108.243 42.4308V49.6547H87.0706V42.4308C87.0706 41.7621 87.3363 41.1207 87.8091 40.6479C88.282 40.175 88.9233 39.9094 89.592 39.9094V39.9094Z" fill="#F7BB38"/>
<path d="M87.0706 49.6547H94.4106V130.521H87.0706V49.6547Z" fill="#F7BB38"/>
<path d="M94.4106 130.521V141.272H91.3555C90.146 141.02 89.0602 140.359 88.2806 139.401C87.501 138.442 87.0751 137.244 87.0745 136.009V130.521H94.4106Z" fill="#DDA431"/>
<path d="M94.4106 39.9094V49.6547H87.0629V42.4308C87.0629 42.0997 87.1281 41.7718 87.2548 41.4659C87.3815 41.16 87.5673 40.882 87.8014 40.6479C88.0355 40.4137 88.3135 40.228 88.6194 40.1013C88.9253 39.9746 89.2532 39.9094 89.5843 39.9094H94.4106Z" fill="#DDA431"/>
<path d="M87.0706 119.542H108.24V126.039H87.0706V119.542Z" fill="#32314B"/>
<path d="M87.0706 53.9086H108.24V60.4055H87.0706V53.9086Z" fill="#32314B"/>
<path d="M101.855 69.9265C101.855 67.607 99.9746 65.7267 97.6551 65.7267C95.3357 65.7267 93.4554 67.607 93.4554 69.9265V110.807C93.4554 113.126 95.3357 115.006 97.6551 115.006C99.9746 115.006 101.855 113.126 101.855 110.807V69.9265Z" fill="white"/>
<path d="M87.0706 119.542H94.4106V126.039H87.0706V119.542Z" fill="#27273D"/>
<path d="M87.0706 53.9125H94.4106V60.4093H87.0706V53.9125Z" fill="#27273D"/>
<path d="M94.4105 67.2581V113.475C93.7923 112.723 93.4546 111.78 93.4553 110.807V69.9265C93.454 68.9531 93.7917 68.0095 94.4105 67.2581V67.2581Z" fill="#D6D4D4"/>
<path d="M132.603 40.2458H116.492L118.14 35.6516L123.124 21.7297C123.751 19.9856 125.364 19.9856 125.99 21.7297L130.975 35.6516L132.603 40.2458Z" fill="#3586CB"/>
<path d="M132.603 40.2458H116.473L118.12 35.6516H130.955L132.603 40.2458Z" fill="#366FCA"/>
<path d="M113.951 49.6547H135.12V130.521H113.951V49.6547Z" fill="#7CC8FB"/>
<path d="M113.951 130.521H135.12V136.009C135.12 137.435 134.554 138.802 133.546 139.81C132.538 140.818 131.171 141.384 129.745 141.384H119.331C117.905 141.384 116.538 140.818 115.53 139.81C114.522 138.802 113.955 137.435 113.955 136.009V130.521H113.951V130.521Z" fill="#3586CB"/>
<path d="M116.492 39.9094H132.622C133.291 39.9094 133.932 40.175 134.405 40.6479C134.878 41.1207 135.144 41.7621 135.144 42.4308V49.6547H113.951V42.4308C113.951 42.098 114.017 41.7686 114.145 41.4614C114.273 41.1542 114.461 40.8754 114.697 40.641C114.933 40.4066 115.213 40.2213 115.521 40.0957C115.829 39.9702 116.159 39.9068 116.492 39.9094V39.9094Z" fill="#3586CB"/>
<path d="M128.736 69.9265C128.736 67.607 126.855 65.7267 124.536 65.7267C122.216 65.7267 120.336 67.607 120.336 69.9265V110.807C120.336 113.126 122.216 115.006 124.536 115.006C126.855 115.006 128.736 113.126 128.736 110.807V69.9265Z" fill="white"/>
<path d="M113.951 49.6547H121.291V130.521H113.951V49.6547Z" fill="#41C0E3"/>
<path d="M121.291 130.521V141.272H118.232C117.023 141.02 115.937 140.359 115.158 139.401C114.378 138.442 113.952 137.244 113.951 136.009V130.521H121.291Z" fill="#366FCA"/>
<path d="M121.291 39.9094V49.6547H113.944V42.4308C113.944 42.0974 114.01 41.7673 114.138 41.4596C114.267 41.1519 114.455 40.8727 114.692 40.6382C114.929 40.4037 115.21 40.2186 115.519 40.0935C115.828 39.9684 116.159 39.9058 116.492 39.9094H121.291Z" fill="#366FCA"/>
<path d="M121.291 67.2581V113.475C120.673 112.723 120.335 111.78 120.336 110.807V69.9265C120.335 68.9531 120.673 68.0095 121.291 67.2581V67.2581Z" fill="#D6D4D4"/>
<path d="M113.951 53.9086H135.12V60.4055H113.951V53.9086Z" fill="#32314B"/>
<path d="M113.951 53.9125H121.291V60.4093H113.951V53.9125Z" fill="#27273D"/>
<path d="M113.951 119.542H135.12V126.039H113.951V119.542Z" fill="#32314B"/>
<path d="M113.951 119.542H121.291V126.039H113.951V119.542Z" fill="#27273D"/>
<path d="M159.484 40.2458H143.354L145.001 35.6516L149.986 21.7297C150.612 19.9856 152.225 19.9856 152.851 21.7297L157.836 35.6516L159.484 40.2458Z" fill="#AA60FA"/>
<path d="M159.484 40.2458H143.354L145.001 35.6516H157.836L159.484 40.2458Z" fill="#934CF5"/>
<path d="M140.832 49.6547H162.001V130.521H140.832V49.6547Z" fill="#A99BD4"/>
<path d="M140.832 130.521H162.001V136.009C162.001 137.435 161.435 138.802 160.427 139.81C159.419 140.818 158.052 141.384 156.626 141.384H146.212C144.786 141.384 143.419 140.818 142.411 139.81C141.402 138.802 140.836 137.435 140.836 136.009V130.521H140.832V130.521Z" fill="#AA60FA"/>
<path d="M143.354 39.9094H159.484C160.152 39.9094 160.794 40.175 161.267 40.6479C161.739 41.1207 162.005 41.7621 162.005 42.4308V49.6547H140.832V42.4308C140.832 41.7621 141.098 41.1207 141.571 40.6479C142.044 40.175 142.685 39.9094 143.354 39.9094V39.9094Z" fill="#AA60FA"/>
<path d="M155.617 69.9265C155.617 67.607 153.736 65.7267 151.417 65.7267C149.097 65.7267 147.217 67.607 147.217 69.9265V110.807C147.217 113.126 149.097 115.006 151.417 115.006C153.736 115.006 155.617 113.126 155.617 110.807V69.9265Z" fill="white"/>
<path d="M140.832 49.6547H148.172V130.521H140.832V49.6547Z" fill="#9B91C4"/>
<path d="M148.172 130.521V141.272H145.109C143.9 141.02 142.814 140.359 142.035 139.401C141.255 138.442 140.829 137.244 140.828 136.009V130.521H148.172Z" fill="#934CF5"/>
<path d="M148.172 39.9094V49.6547H140.825V42.4308C140.825 41.7621 141.09 41.1207 141.563 40.6479C142.036 40.175 142.677 39.9094 143.346 39.9094H148.172Z" fill="#934CF5"/>
<path d="M148.172 67.2581V113.475C147.554 112.723 147.216 111.78 147.217 110.807V69.9265C147.216 68.9531 147.553 68.0095 148.172 67.2581V67.2581Z" fill="#D6D4D4"/>
<path d="M140.832 119.542H162.001V126.039H140.832V119.542Z" fill="#32314B"/>
<path d="M140.832 53.9086H162.001V60.4055H140.832V53.9086Z" fill="#32314B"/>
<path d="M140.832 119.542H148.172V126.039H140.832V119.542Z" fill="#27273D"/>
<path d="M140.832 53.9125H148.172V60.4093H140.832V53.9125Z" fill="#27273D"/>
<path d="M186.488 40.2458H170.354L172.002 35.6516L176.99 21.7297C177.613 19.9856 179.226 19.9856 179.852 21.7297L184.837 35.6516L186.488 40.2458Z" fill="#FC4581"/>
<path d="M186.484 40.2458H170.358L172.002 35.6516H184.837L186.484 40.2458Z" fill="#FA3268"/>
<path d="M167.837 49.6547H189.006V130.521H167.837V49.6547Z" fill="#F58D89"/>
<path d="M167.837 130.521H189.006V136.009C189.006 137.435 188.439 138.802 187.431 139.81C186.423 140.818 185.056 141.384 183.63 141.384H173.212C171.787 141.384 170.419 140.818 169.411 139.81C168.403 138.802 167.837 137.435 167.837 136.009V130.521V130.521Z" fill="#FC4581"/>
<path d="M170.354 39.9094H186.488C187.157 39.9094 187.798 40.175 188.271 40.6479C188.744 41.1207 189.01 41.7621 189.01 42.4308V49.6547H167.837V42.4308C167.837 41.7627 168.102 41.122 168.574 40.6492C169.046 40.1765 169.686 39.9104 170.354 39.9094V39.9094Z" fill="#FC4581"/>
<path d="M182.621 69.9265C182.621 67.607 180.741 65.7267 178.421 65.7267C176.102 65.7267 174.222 67.607 174.222 69.9265V110.807C174.222 113.126 176.102 115.006 178.421 115.006C180.741 115.006 182.621 113.126 182.621 110.807V69.9265Z" fill="white"/>
<path d="M167.837 49.6547H175.177V130.521H167.837V49.6547Z" fill="#E07E7E"/>
<path d="M175.173 130.521V141.272H172.118C170.908 141.021 169.822 140.36 169.042 139.401C168.262 138.443 167.837 137.245 167.837 136.009V130.521H175.173Z" fill="#FA3268"/>
<path d="M175.173 39.9094V49.6547H167.825V42.4308C167.825 41.7627 168.09 41.122 168.562 40.6492C169.034 40.1765 169.675 39.9104 170.343 39.9094H175.173Z" fill="#FA3268"/>
<path d="M175.173 67.2581V113.475C174.557 112.722 174.221 111.779 174.222 110.807V69.9265C174.221 68.9538 174.557 68.0109 175.173 67.2581V67.2581Z" fill="#D6D4D4"/>
<path d="M167.837 119.542H189.006V126.039H167.837V119.542Z" fill="#32314B"/>
<path d="M167.837 53.9086H189.006V60.4055H167.837V53.9086Z" fill="#32314B"/>
<path d="M167.837 119.542H175.177V126.039H167.837V119.542Z" fill="#27273D"/>
<path d="M167.837 53.9125H175.177V60.4093H167.837V53.9125Z" fill="#27273D"/>
<path d="M83.9421 159.026V175.157L79.3672 173.509L65.4453 168.524C63.7012 167.898 63.7012 166.285 65.4453 165.659L79.3672 160.674L83.9421 159.026Z" fill="#A65C3B"/>
<path d="M83.9421 159.026V175.157L79.3478 173.509V160.674L83.9421 159.026Z" fill="#9E4830"/>
<path d="M93.3509 177.674V156.505H174.218V177.674H93.3509Z" fill="#E88032"/>
<path d="M174.206 177.678V156.509H179.694C181.119 156.509 182.487 157.075 183.495 158.083C184.503 159.091 185.069 160.459 185.069 161.884V172.303C185.069 173.728 184.503 175.095 183.495 176.104C182.487 177.112 181.119 177.678 179.694 177.678H174.206V177.678Z" fill="#A65C3B"/>
<path d="M83.6056 175.157V159.026C83.6056 158.358 83.8713 157.716 84.3441 157.244C84.817 156.771 85.4583 156.505 86.127 156.505H93.3509V177.674H86.127C85.459 177.674 84.8182 177.409 84.3455 176.937C83.8727 176.465 83.6066 175.825 83.6056 175.157V175.157Z" fill="#A65C3B"/>
<path d="M113.623 162.894C111.303 162.894 109.423 164.774 109.423 167.093C109.423 169.413 111.303 171.293 113.623 171.293H154.503C156.822 171.293 158.703 169.413 158.703 167.093C158.703 164.774 156.822 162.894 154.503 162.894H113.623Z" fill="white"/>
<path d="M93.3509 170.338H174.218V177.678H93.3509V170.338Z" fill="#CE6F2E"/>
<path d="M174.218 170.338H184.968V173.393C184.716 174.603 184.055 175.688 183.097 176.468C182.138 177.248 180.941 177.673 179.705 177.674H174.218V170.338Z" fill="#9E4830"/>
<path d="M83.6211 170.338H93.3664V177.686H86.127C85.459 177.686 84.8182 177.421 84.3455 176.949C83.8727 176.477 83.6066 175.836 83.6056 175.168L83.6211 170.338Z" fill="#9E4830"/>
<path d="M110.954 170.338H157.171C156.418 170.953 155.475 171.29 154.503 171.289H113.623C112.65 171.29 111.707 170.954 110.954 170.338V170.338Z" fill="#D6D4D4"/>
<path d="M163.239 177.678V156.509H169.736V177.678H163.239Z" fill="#32314B"/>
<path d="M97.6049 177.678V156.509H104.102V177.678H97.6049Z" fill="#32314B"/>
<path d="M163.239 170.338H169.736V177.678H163.239V170.338Z" fill="#27273D"/>
<path d="M97.6087 170.338H104.106V177.678H97.6087V170.338Z" fill="#27273D"/>
</g>
<path d="M3.66211 230H1.78711V215.781H3.66211V230ZM18.0273 230H16.1426L8.98438 219.043V230H7.09961V215.781H8.98438L16.1621 226.787V215.781H18.0273V230ZM23.3691 230H21.4941V215.781H23.3691V230ZM37.2656 225.488C37.0898 226.992 36.5332 228.154 35.5957 228.975C34.6647 229.788 33.4245 230.195 31.875 230.195C30.1953 230.195 28.8477 229.593 27.832 228.389C26.8229 227.184 26.3184 225.573 26.3184 223.555V222.188C26.3184 220.866 26.5527 219.704 27.0215 218.701C27.4967 217.699 28.1673 216.93 29.0332 216.396C29.8991 215.856 30.9017 215.586 32.041 215.586C33.5514 215.586 34.7624 216.009 35.6738 216.855C36.5853 217.695 37.1159 218.861 37.2656 220.352H35.3809C35.2181 219.219 34.8633 218.398 34.3164 217.891C33.776 217.383 33.0176 217.129 32.041 217.129C30.8431 217.129 29.9023 217.572 29.2188 218.457C28.5417 219.342 28.2031 220.602 28.2031 222.236V223.613C28.2031 225.156 28.5254 226.383 29.1699 227.295C29.8145 228.206 30.7161 228.662 31.875 228.662C32.9167 228.662 33.7142 228.428 34.2676 227.959C34.8275 227.484 35.1986 226.66 35.3809 225.488H37.2656ZM41.8457 230H39.9707V215.781H41.8457V230ZM53.3105 226.289H47.3535L46.0156 230H44.082L49.5117 215.781H51.1523L56.5918 230H54.668L53.3105 226.289ZM47.9199 224.746H52.7539L50.332 218.096L47.9199 224.746ZM60.3906 228.467H67.1289V230H58.5059V215.781H60.3906V228.467ZM68.9258 229.053C68.9258 228.74 69.0169 228.48 69.1992 228.271C69.388 228.063 69.668 227.959 70.0391 227.959C70.4102 227.959 70.6901 228.063 70.8789 228.271C71.0742 228.48 71.1719 228.74 71.1719 229.053C71.1719 229.352 71.0742 229.603 70.8789 229.805C70.6901 230.007 70.4102 230.107 70.0391 230.107C69.668 230.107 69.388 230.007 69.1992 229.805C69.0169 229.603 68.9258 229.352 68.9258 229.053ZM68.9355 220.43C68.9355 220.117 69.0267 219.857 69.209 219.648C69.3978 219.44 69.6777 219.336 70.0488 219.336C70.4199 219.336 70.6999 219.44 70.8887 219.648C71.084 219.857 71.1816 220.117 71.1816 220.43C71.1816 220.729 71.084 220.98 70.8887 221.182C70.6999 221.383 70.4199 221.484 70.0488 221.484C69.6777 221.484 69.3978 221.383 69.209 221.182C69.0267 220.98 68.9355 220.729 68.9355 220.43ZM80.9473 224.434V230H79.0723V215.781H84.3164C85.8724 215.781 87.0898 216.178 87.9688 216.973C88.8542 217.767 89.2969 218.818 89.2969 220.127C89.2969 221.507 88.8639 222.572 87.998 223.32C87.1387 224.062 85.9049 224.434 84.2969 224.434H80.9473ZM80.9473 222.9H84.3164C85.319 222.9 86.0872 222.666 86.6211 222.197C87.1549 221.722 87.4219 221.038 87.4219 220.146C87.4219 219.3 87.1549 218.623 86.6211 218.115C86.0872 217.607 85.3548 217.344 84.4238 217.324H80.9473V222.9ZM96.9043 224.248H93.5645V230H91.6797V215.781H96.3867C97.9883 215.781 99.2188 216.146 100.078 216.875C100.944 217.604 101.377 218.665 101.377 220.059C101.377 220.944 101.136 221.715 100.654 222.373C100.179 223.031 99.515 223.522 98.6621 223.848L102.002 229.883V230H99.9902L96.9043 224.248ZM93.5645 222.715H96.4453C97.3763 222.715 98.1152 222.474 98.6621 221.992C99.2155 221.51 99.4922 220.866 99.4922 220.059C99.4922 219.18 99.2285 218.506 98.7012 218.037C98.1803 217.568 97.4251 217.331 96.4355 217.324H93.5645V222.715ZM112.051 223.428H105.889V228.467H113.047V230H104.014V215.781H112.949V217.324H105.889V221.895H112.051V223.428ZM118.994 223.389L117.256 225.195V230H115.381V215.781H117.256V222.812L123.574 215.781H125.84L120.244 222.061L126.279 230H124.033L118.994 223.389ZM129.932 230H128.057V215.781H129.932V230ZM144.297 230H142.412L135.254 219.043V230H133.369V215.781H135.254L142.432 226.787V215.781H144.297V230ZM147.627 230V215.781H151.641C152.878 215.781 153.971 216.055 154.922 216.602C155.872 217.148 156.605 217.926 157.119 218.936C157.64 219.945 157.904 221.104 157.91 222.412V223.32C157.91 224.661 157.65 225.837 157.129 226.846C156.615 227.855 155.876 228.63 154.912 229.17C153.955 229.71 152.839 229.987 151.562 230H147.627ZM149.502 217.324V228.467H151.475C152.92 228.467 154.043 228.018 154.844 227.119C155.651 226.221 156.055 224.941 156.055 223.281V222.451C156.055 220.837 155.674 219.583 154.912 218.691C154.157 217.793 153.083 217.337 151.689 217.324H149.502ZM168.789 223.428H162.627V228.467H169.785V230H160.752V215.781H169.688V217.324H162.627V221.895H168.789V223.428ZM177.334 224.248H173.994V230H172.109V215.781H176.816C178.418 215.781 179.648 216.146 180.508 216.875C181.374 217.604 181.807 218.665 181.807 220.059C181.807 220.944 181.566 221.715 181.084 222.373C180.609 223.031 179.945 223.522 179.092 223.848L182.432 229.883V230H180.42L177.334 224.248ZM173.994 222.715H176.875C177.806 222.715 178.545 222.474 179.092 221.992C179.645 221.51 179.922 220.866 179.922 220.059C179.922 219.18 179.658 218.506 179.131 218.037C178.61 217.568 177.855 217.331 176.865 217.324H173.994V222.715ZM189.482 231.221H187.93L193.867 215.781H195.41L189.482 231.221ZM206.221 223.389L204.482 225.195V230H202.607V215.781H204.482V222.812L210.801 215.781H213.066L207.471 222.061L213.506 230H211.26L206.221 223.389ZM217.158 230H215.283V215.781H217.158V230ZM231.523 230H229.639L222.48 219.043V230H220.596V215.781H222.48L229.658 226.787V215.781H231.523V230ZM234.854 230V215.781H238.867C240.104 215.781 241.198 216.055 242.148 216.602C243.099 217.148 243.831 217.926 244.346 218.936C244.867 219.945 245.13 221.104 245.137 222.412V223.32C245.137 224.661 244.876 225.837 244.355 226.846C243.841 227.855 243.102 228.63 242.139 229.17C241.182 229.71 240.065 229.987 238.789 230H234.854ZM236.729 217.324V228.467H238.701C240.146 228.467 241.27 228.018 242.07 227.119C242.878 226.221 243.281 224.941 243.281 223.281V222.451C243.281 220.837 242.9 219.583 242.139 218.691C241.383 217.793 240.309 217.337 238.916 217.324H236.729ZM256.016 223.428H249.854V228.467H257.012V230H247.979V215.781H256.914V217.324H249.854V221.895H256.016V223.428ZM264.561 224.248H261.221V230H259.336V215.781H264.043C265.645 215.781 266.875 216.146 267.734 216.875C268.6 217.604 269.033 218.665 269.033 220.059C269.033 220.944 268.792 221.715 268.311 222.373C267.835 223.031 267.171 223.522 266.318 223.848L269.658 229.883V230H267.646L264.561 224.248ZM261.221 222.715H264.102C265.033 222.715 265.771 222.474 266.318 221.992C266.872 221.51 267.148 220.866 267.148 220.059C267.148 219.18 266.885 218.506 266.357 218.037C265.837 217.568 265.081 217.331 264.092 217.324H261.221V222.715Z" fill="black"/>
<defs>
<clipPath id="clip0">
<rect width="198" height="198" fill="white" transform="translate(26)"/>
</clipPath>
</defs>
</svg>
