<svg id="Capa_1" enable-background="new 0 0 512 512" height="512" viewBox="0 0 512 512" width="512" xmlns="http://www.w3.org/2000/svg"><g><g id="_x3C_Group_x3E__27_"><path d="m470.191 405.043-432.691-.511c-16.569 0-23.309-8.382-23.309-24.951v-237.517c0-12.168.552-33.707 10.963-38.414 3.766-1.702 7.945-2.65 12.346-2.65h437c16.569 0 30 13.431 30 30v250c0 4.401-.948 8.58-2.65 12.346-4.706 10.41-19.491 11.697-31.659 11.697z" fill="#8e746e"/><path d="m489.5 396h-447c-11.046 0-20-8.954-20-20v-260c0-4.401.956-8.577 2.658-12.342-10.41 4.707-17.658 15.175-17.658 27.342v250c0 16.569 13.431 30 30 30h437c12.167 0 22.635-7.248 27.342-17.658-3.765 1.702-7.941 2.658-12.342 2.658z" fill="#7a635e"/><path d="m463.043 373.383-416.681-2.553.511-225.702 5.628-12.709h412c5.523 0 10 4.477 10 10v222.162z" fill="#fcf7ed"/><path d="m57.5 364.581c-2.761 0-5-2.239-5-5v-227.162h-5c-5.523 0-10 4.477-10 10v227.162c0 5.523 4.477 10 10 10h417c5.523 0 10-4.477 10-10v-5z" fill="#fbf0dc"/><g><path d="m131 198h-50v-20l5-10h50c2.761 0 5 2.239 5 5v20z" fill="#e6989e"/><path d="m131 268h-50v-20l5-10h50c2.761 0 5 2.239 5 5v20z" fill="#fff0af"/><path d="m131 338h-50v-20l5-10h50c2.761 0 5 2.239 5 5v20z" fill="#a9e8d1"/><path d="m231 198h-50v-20l5-10h50c2.761 0 5 2.239 5 5v20z" fill="#e27f86"/><path d="m231 268h-50v-20l5-10h50c2.761 0 5 2.239 5 5v20z" fill="#ffe07d"/><path d="m231 338h-50v-20l5-10h50c2.761 0 5 2.239 5 5v20z" fill="#beeedd"/><path d="m331 198h-50v-20l5-10h50c2.761 0 5 2.239 5 5v20z" fill="#e6989e"/><path d="m331 268h-50v-20l5-10h50c2.761 0 5 2.239 5 5v20z" fill="#fff0af"/><path d="m331 338h-50v-20l5-10h50c2.761 0 5 2.239 5 5v20z" fill="#a9e8d1"/><path d="m431 198h-50v-20l5-10h50c2.761 0 5 2.239 5 5v20z" fill="#e27f86"/><path d="m431 268h-50v-20l5-10h50c2.761 0 5 2.239 5 5v20z" fill="#ffe07d"/><path d="m431 338h-50v-20l5-10h50c2.761 0 5 2.239 5 5v20z" fill="#beeedd"/></g><g><path d="m91 193c-2.761 0-5-2.239-5-5v-20h-10c-2.761 0-5 2.239-5 5v30c0 2.761 2.239 5 5 5h60c2.761 0 5-2.239 5-5v-10z" fill="#e27f86"/><path d="m91 263c-2.761 0-5-2.239-5-5v-20h-10c-2.761 0-5 2.239-5 5v30c0 2.761 2.239 5 5 5h60c2.761 0 5-2.239 5-5v-10z" fill="#ffe07d"/><path d="m91 333c-2.761 0-5-2.239-5-5v-20h-10c-2.761 0-5 2.239-5 5v30c0 2.761 2.239 5 5 5h60c2.761 0 5-2.239 5-5v-10z" fill="#92e0c4"/><path d="m191 193c-2.761 0-5-2.239-5-5v-20h-10c-2.761 0-5 2.239-5 5v30c0 2.761 2.239 5 5 5h60c2.761 0 5-2.239 5-5v-10z" fill="#df646e"/><path d="m191 263c-2.761 0-5-2.239-5-5v-20h-10c-2.761 0-5 2.239-5 5v30c0 2.761 2.239 5 5 5h60c2.761 0 5-2.239 5-5v-10z" fill="#ffd064"/><path d="m191 333c-2.761 0-5-2.239-5-5v-20h-10c-2.761 0-5 2.239-5 5v30c0 2.761 2.239 5 5 5h60c2.761 0 5-2.239 5-5v-10z" fill="#a9e8d1"/><path d="m291 193c-2.761 0-5-2.239-5-5v-20h-10c-2.761 0-5 2.239-5 5v30c0 2.761 2.239 5 5 5h60c2.761 0 5-2.239 5-5v-10z" fill="#e27f86"/><path d="m291 263c-2.761 0-5-2.239-5-5v-20h-10c-2.761 0-5 2.239-5 5v30c0 2.761 2.239 5 5 5h60c2.761 0 5-2.239 5-5v-10z" fill="#ffe07d"/><path d="m291 333c-2.761 0-5-2.239-5-5v-20h-10c-2.761 0-5 2.239-5 5v30c0 2.761 2.239 5 5 5h60c2.761 0 5-2.239 5-5v-10z" fill="#92e0c4"/><path d="m391 193c-2.761 0-5-2.239-5-5v-20h-10c-2.761 0-5 2.239-5 5v30c0 2.761 2.239 5 5 5h60c2.761 0 5-2.239 5-5v-10z" fill="#df646e"/><path d="m391 263c-2.761 0-5-2.239-5-5v-20h-10c-2.761 0-5 2.239-5 5v30c0 2.761 2.239 5 5 5h60c2.761 0 5-2.239 5-5v-10z" fill="#ffd064"/><path d="m391 333c-2.761 0-5-2.239-5-5v-20h-10c-2.761 0-5 2.239-5 5v30c0 2.761 2.239 5 5 5h60c2.761 0 5-2.239 5-5v-10z" fill="#a9e8d1"/></g></g><g><path d="m474.5 93.5h-323.841c-4.143 0-7.5 3.358-7.5 7.5s3.357 7.5 7.5 7.5h323.841c12.406 0 22.5 10.093 22.5 22.5v250c0 12.407-10.094 22.5-22.5 22.5h-437c-12.406 0-22.5-10.093-22.5-22.5v-250c0-12.407 10.094-22.5 22.5-22.5h78.053c4.143 0 7.5-3.358 7.5-7.5s-3.357-7.5-7.5-7.5h-78.053c-20.678 0-37.5 16.822-37.5 37.5v250c0 20.678 16.822 37.5 37.5 37.5h437c20.678 0 37.5-16.822 37.5-37.5v-250c0-20.678-16.822-37.5-37.5-37.5z"/><path d="m37.5 287.373c-4.143 0-7.5 3.358-7.5 7.5v74.708c0 9.649 7.851 17.5 17.5 17.5h205.074c4.143 0 7.5-3.358 7.5-7.5s-3.357-7.5-7.5-7.5h-205.074c-1.379 0-2.5-1.122-2.5-2.5v-74.708c0-4.143-3.357-7.5-7.5-7.5z"/><path d="m287.383 387.081h177.117c9.649 0 17.5-7.851 17.5-17.5v-227.162c0-9.649-7.851-17.5-17.5-17.5h-417c-9.649 0-17.5 7.851-17.5 17.5v117.347c0 4.142 3.357 7.5 7.5 7.5s7.5-3.358 7.5-7.5v-117.347c0-1.378 1.121-2.5 2.5-2.5h417c1.379 0 2.5 1.122 2.5 2.5v227.162c0 1.378-1.121 2.5-2.5 2.5h-177.117c-4.143 0-7.5 3.358-7.5 7.5s3.357 7.5 7.5 7.5z"/><path d="m76 215.5h60c6.893 0 12.5-5.607 12.5-12.5v-30c0-6.893-5.607-12.5-12.5-12.5h-60c-6.893 0-12.5 5.607-12.5 12.5v30c0 6.893 5.607 12.5 12.5 12.5zm2.5-40h55v25h-55z"/><path d="m63.5 273c0 6.893 5.607 12.5 12.5 12.5h60c6.893 0 12.5-5.607 12.5-12.5v-30c0-6.893-5.607-12.5-12.5-12.5h-60c-6.893 0-12.5 5.607-12.5 12.5zm15-27.5h55v25h-55z"/><path d="m63.5 343c0 6.893 5.607 12.5 12.5 12.5h60c6.893 0 12.5-5.607 12.5-12.5v-30c0-6.893-5.607-12.5-12.5-12.5h-60c-6.893 0-12.5 5.607-12.5 12.5zm15-27.5h55v25h-55z"/><path d="m176 215.5h60c6.893 0 12.5-5.607 12.5-12.5v-30c0-6.893-5.607-12.5-12.5-12.5h-60c-6.893 0-12.5 5.607-12.5 12.5v30c0 6.893 5.607 12.5 12.5 12.5zm2.5-40h55v25h-55z"/><path d="m163.5 273c0 6.893 5.607 12.5 12.5 12.5h60c6.893 0 12.5-5.607 12.5-12.5v-30c0-6.893-5.607-12.5-12.5-12.5h-60c-6.893 0-12.5 5.607-12.5 12.5zm15-27.5h55v25h-55z"/><path d="m163.5 343c0 6.893 5.607 12.5 12.5 12.5h60c6.893 0 12.5-5.607 12.5-12.5v-30c0-6.893-5.607-12.5-12.5-12.5h-60c-6.893 0-12.5 5.607-12.5 12.5zm15-27.5h55v25h-55z"/><path d="m276 215.5h60c6.893 0 12.5-5.607 12.5-12.5v-30c0-6.893-5.607-12.5-12.5-12.5h-60c-6.893 0-12.5 5.607-12.5 12.5v30c0 6.893 5.607 12.5 12.5 12.5zm2.5-40h55v25h-55z"/><path d="m263.5 273c0 6.893 5.607 12.5 12.5 12.5h60c6.893 0 12.5-5.607 12.5-12.5v-30c0-6.893-5.607-12.5-12.5-12.5h-60c-6.893 0-12.5 5.607-12.5 12.5zm15-27.5h55v25h-55z"/><path d="m263.5 343c0 6.893 5.607 12.5 12.5 12.5h60c6.893 0 12.5-5.607 12.5-12.5v-30c0-6.893-5.607-12.5-12.5-12.5h-60c-6.893 0-12.5 5.607-12.5 12.5zm15-27.5h55v25h-55z"/><path d="m423.851 200.5c-4.143 0-7.5 3.358-7.5 7.5s3.357 7.5 7.5 7.5h12.149c6.893 0 12.5-5.607 12.5-12.5v-30c0-6.893-5.607-12.5-12.5-12.5h-60c-6.893 0-12.5 5.607-12.5 12.5v30c0 6.893 5.607 12.5 12.5 12.5h12.787c4.143 0 7.5-3.358 7.5-7.5s-3.357-7.5-7.5-7.5h-10.287v-25h55v25z"/><path d="m363.5 273c0 6.893 5.607 12.5 12.5 12.5h60c6.893 0 12.5-5.607 12.5-12.5v-30c0-6.893-5.607-12.5-12.5-12.5h-60c-6.893 0-12.5 5.607-12.5 12.5zm15-27.5h55v25h-55z"/><path d="m363.5 343c0 6.893 5.607 12.5 12.5 12.5h60c6.893 0 12.5-5.607 12.5-12.5v-30c0-6.893-5.607-12.5-12.5-12.5h-60c-6.893 0-12.5 5.607-12.5 12.5zm15-27.5h55v25h-55z"/></g></g></svg>