<svg id="Capa_1" enable-background="new 0 0 512 512" height="512" viewBox="0 0 512 512" width="512" xmlns="http://www.w3.org/2000/svg"><g><g fill="#ff80a9"><path d="m180.583 486.856h-165.583c-8.284 0-15-6.716-15-15s6.716-15 15-15h165.583c8.284 0 15 6.716 15 15s-6.716 15-15 15z"/><path d="m120.583 426.856h-105.583c-8.284 0-15-6.716-15-15s6.716-15 15-15h105.583c8.284 0 15 6.716 15 15s-6.716 15-15 15z"/><path d="m60.583 366.856h-45.583c-8.284 0-15-6.716-15-15s6.716-15 15-15h45.583c8.284 0 15 6.716 15 15s-6.716 15-15 15z"/></g><path d="m511.989 441.204.005-29.345c.001-3.979-1.579-7.794-4.392-10.609-2.814-2.813-6.629-4.395-10.608-4.395h-179.756l-169.835-170.81c-4.71-4.737-15.384-3.24-21.243-.03l-27.885 14.593c-1.248.684-2.393 1.542-3.398 2.548-17.546 17.545-17.546 46.094 0 63.64l158.09 158.091c14.164 14.165 32.998 21.966 53.033 21.968h161c24.429 0 44.594-19.852 44.985-44.237.008-.239.014-.479.015-.763 0-.213-.004-.425-.011-.651z" fill="#00cb75"/><path d="m511.989 441.204.005-29.345c.001-3.979-1.579-7.794-4.392-10.609-2.814-2.813-6.629-4.395-10.608-4.395h-179.756l-122.623-123.326-66.503 66.503 124.855 124.855c14.164 14.165 32.998 21.966 53.033 21.968h161c24.429 0 44.594-19.852 44.985-44.237.008-.239.014-.479.015-.763 0-.213-.004-.425-.011-.651z" fill="#009859"/><path d="m490.033 328.822c-14.165-14.166-32.999-21.967-53.033-21.967-5.546 0-10.702-.215-15.5-.614l-14.999 6.541-15.002-12.578c-8.992-3.17-15.878-7.182-21.408-11.374l-18.631 2.418 2.114-28.329c-1.724-13.69 1.895-29.22 3.999-36.379 1.366-4.57-.921-10.686-3.794-14.495-2.872-3.808-7.376-5.991-12.174-5.967l-.17.001c-1.313 0-32.321-.18-47.929-15.787-4.631-4.631-5.344-8.454-6.646-17.42-2.005-13.81-4.75-32.723-29.187-57.158-5.857-5.858-15.355-5.858-21.213 0l-110.3 110.301 175.236 175.235c5.833 5.834 17.356 10.607 25.606 10.607h184.992l.001-7.883c.002-12.712.003-22.118.003-22.118.001-20.034-7.8-38.868-21.965-53.034z" fill="#bee75e"/><path d="m490.033 328.822c-14.165-14.166-32.999-21.967-53.033-21.967-5.546 0-10.702-.215-15.5-.614l-14.999 6.541-15.002-12.578c-8.992-3.17-15.879-7.182-21.408-11.374l-18.631 2.419 2.114-28.329c-1.724-13.69 1.895-29.22 3.999-36.379 1.366-4.57-.921-10.686-3.794-14.495-2.872-3.808-7.376-5.991-12.174-5.967l-.17.001c-1.313 0-32.321-.18-47.929-15.787-3.154-3.154-4.489-5.937-5.433-10.221l-103.928 103.928 117.251 117.251c5.833 5.834 17.356 10.607 25.606 10.607h184.992l.001-7.883c.002-12.712.003-22.118.003-22.118.001-20.035-7.8-38.869-21.965-53.035z" fill="#00cb75"/><path d="m391.5 331.745c0 8.284 6.716 15 15 15s15-6.716 15-15v-25.504c-12.078-1.005-21.893-3.181-30-6.04z" fill="#d7e8ff"/><path d="m339.926 312.782c3.839 0 7.678-1.464 10.606-4.393l19.561-19.562c-3.309-2.509-6.138-5.082-8.635-7.578-4.682-4.682-6.993-11.262-7.883-18.33l-24.256 24.257c-5.858 5.858-5.858 15.355 0 21.213 2.93 2.929 6.768 4.393 10.607 4.393z" fill="#d7e8ff"/><path d="m443 134.9c0-3.978-1.581-7.793-4.394-10.606l-94.756-94.756c-5.857-5.858-15.355-5.858-21.213 0l-86.177 86.177c30.413 30.412 18.695 57.941 38.362 77.608 23.693 23.693 66.635 33.569 82.75 33.218l81.034-81.034c2.813-2.813 4.394-6.628 4.394-10.607z" fill="#ebf3ff"/><path d="m391.228 76.916-116.406 116.406c23.693 23.693 66.635 33.569 82.75 33.218l81.034-81.034c2.813-2.813 4.394-6.628 4.394-10.606s-1.581-7.793-4.394-10.606z" fill="#d7e8ff"/></g></svg>