<svg width="112" height="112" viewBox="0 0 112 112" fill="none" xmlns="http://www.w3.org/2000/svg">
<rect x="0.5" y="0.5" width="111" height="111" fill="#F5F5F5" stroke="#B5B5B5"/>
<path d="M10.5781 96.2422H7.49609L6.91016 98H5.04102L8.2168 89.4688H9.8457L13.0391 98H11.1699L10.5781 96.2422ZM7.9707 94.8184H10.1035L9.03125 91.625L7.9707 94.8184ZM13.8359 98V89.4688H16.4609C17.2109 89.4688 17.8809 89.6387 18.4707 89.9785C19.0645 90.3145 19.5273 90.7949 19.8594 91.4199C20.1914 92.041 20.3574 92.748 20.3574 93.541V93.9336C20.3574 94.7266 20.1934 95.4316 19.8652 96.0488C19.541 96.666 19.082 97.1445 18.4883 97.4844C17.8945 97.8242 17.2246 97.9961 16.4785 98H13.8359ZM15.5938 90.8926V96.5879H16.4434C17.1309 96.5879 17.6562 96.3633 18.0195 95.9141C18.3828 95.4648 18.5684 94.8223 18.5762 93.9863V93.5352C18.5762 92.668 18.3965 92.0117 18.0371 91.5664C17.6777 91.1172 17.1523 90.8926 16.4609 90.8926H15.5938ZM23.9375 89.4688L26.1289 95.6562L28.3086 89.4688H30.6172V98H28.8535V95.668L29.0293 91.6426L26.7266 98H25.5195L23.2227 91.6484L23.3984 95.668V98H21.6406V89.4688H23.9375ZM34.0215 98H32.2637V89.4688H34.0215V98ZM42.5938 98H40.8359L37.4141 92.3867V98H35.6562V89.4688H37.4141L40.8418 95.0938V89.4688H42.5938V98ZM45.998 98H44.2402V89.4688H45.998V98ZM52.0566 95.7617C52.0566 95.4297 51.9395 95.1758 51.7051 95C51.4707 94.8203 51.0488 94.6328 50.4395 94.4375C49.8301 94.2383 49.3477 94.043 48.9922 93.8516C48.0234 93.3281 47.5391 92.623 47.5391 91.7363C47.5391 91.2754 47.668 90.8652 47.9258 90.5059C48.1875 90.1426 48.5605 89.8594 49.0449 89.6562C49.5332 89.4531 50.0801 89.3516 50.6855 89.3516C51.2949 89.3516 51.8379 89.4629 52.3145 89.6855C52.791 89.9043 53.1602 90.2148 53.4219 90.6172C53.6875 91.0195 53.8203 91.4766 53.8203 91.9883H52.0625C52.0625 91.5977 51.9395 91.2949 51.6934 91.0801C51.4473 90.8613 51.1016 90.752 50.6562 90.752C50.2266 90.752 49.8926 90.8438 49.6543 91.0273C49.416 91.207 49.2969 91.4453 49.2969 91.7422C49.2969 92.0195 49.4355 92.252 49.7129 92.4395C49.9941 92.627 50.4062 92.8027 50.9492 92.9668C51.9492 93.2676 52.6777 93.6406 53.1348 94.0859C53.5918 94.5312 53.8203 95.0859 53.8203 95.75C53.8203 96.4883 53.541 97.0684 52.9824 97.4902C52.4238 97.9082 51.6719 98.1172 50.7266 98.1172C50.0703 98.1172 49.4727 97.998 48.9336 97.7598C48.3945 97.5176 47.9824 97.1875 47.6973 96.7695C47.416 96.3516 47.2754 95.8672 47.2754 95.3164H49.0391C49.0391 96.2578 49.6016 96.7285 50.7266 96.7285C51.1445 96.7285 51.4707 96.6445 51.7051 96.4766C51.9395 96.3047 52.0566 96.0664 52.0566 95.7617ZM61.4375 90.8926H58.8242V98H57.0664V90.8926H54.4883V89.4688H61.4375V90.8926ZM65.6035 94.877H64.2031V98H62.4453V89.4688H65.6152C66.623 89.4688 67.4004 89.6934 67.9473 90.1426C68.4941 90.5918 68.7676 91.2266 68.7676 92.0469C68.7676 92.6289 68.6406 93.1152 68.3867 93.5059C68.1367 93.8926 67.7559 94.2012 67.2441 94.4316L69.0898 97.918V98H67.2031L65.6035 94.877ZM64.2031 93.4531H65.6211C66.0625 93.4531 66.4043 93.3418 66.6465 93.1191C66.8887 92.8926 67.0098 92.582 67.0098 92.1875C67.0098 91.7852 66.8945 91.4688 66.6641 91.2383C66.4375 91.0078 66.0879 90.8926 65.6152 90.8926H64.2031V93.4531ZM74.9258 96.2422H71.8438L71.2578 98H69.3887L72.5645 89.4688H74.1934L77.3867 98H75.5176L74.9258 96.2422ZM72.3184 94.8184H74.4512L73.3789 91.625L72.3184 94.8184ZM84.752 95.1582C84.6855 96.0762 84.3457 96.7988 83.7324 97.3262C83.123 97.8535 82.3184 98.1172 81.3184 98.1172C80.2246 98.1172 79.3633 97.75 78.7344 97.0156C78.1094 96.2773 77.7969 95.2656 77.7969 93.9805V93.459C77.7969 92.6387 77.9414 91.916 78.2305 91.291C78.5195 90.666 78.9316 90.1875 79.4668 89.8555C80.0059 89.5195 80.6309 89.3516 81.3418 89.3516C82.3262 89.3516 83.1191 89.6152 83.7207 90.1426C84.3223 90.6699 84.6699 91.4102 84.7637 92.3633H83.0059C82.9629 91.8125 82.8086 91.4141 82.543 91.168C82.2812 90.918 81.8809 90.793 81.3418 90.793C80.7559 90.793 80.3164 91.0039 80.0234 91.4258C79.7344 91.8438 79.5859 92.4941 79.5781 93.377V94.0215C79.5781 94.9434 79.7168 95.6172 79.9941 96.043C80.2754 96.4688 80.7168 96.6816 81.3184 96.6816C81.8613 96.6816 82.2656 96.5586 82.5312 96.3125C82.8008 96.0625 82.9551 95.6777 82.9941 95.1582H84.752ZM87.7754 98H86.0176V89.4688H87.7754V98ZM96.418 93.9277C96.418 94.7676 96.2695 95.5039 95.9727 96.1367C95.6758 96.7695 95.25 97.2578 94.6953 97.6016C94.1445 97.9453 93.5117 98.1172 92.7969 98.1172C92.0898 98.1172 91.459 97.9473 90.9043 97.6074C90.3496 97.2676 89.9199 96.7832 89.6152 96.1543C89.3105 95.5215 89.1562 94.7949 89.1523 93.9746V93.5527C89.1523 92.7129 89.3027 91.9746 89.6035 91.3379C89.9082 90.6973 90.3359 90.207 90.8867 89.8672C91.4414 89.5234 92.0742 89.3516 92.7852 89.3516C93.4961 89.3516 94.127 89.5234 94.6777 89.8672C95.2324 90.207 95.6602 90.6973 95.9609 91.3379C96.2656 91.9746 96.418 92.7109 96.418 93.5469V93.9277ZM94.6367 93.541C94.6367 92.6465 94.4766 91.9668 94.1562 91.502C93.8359 91.0371 93.3789 90.8047 92.7852 90.8047C92.1953 90.8047 91.7402 91.0352 91.4199 91.4961C91.0996 91.9531 90.9375 92.625 90.9336 93.5117V93.9277C90.9336 94.7988 91.0938 95.4746 91.4141 95.9551C91.7344 96.4355 92.1953 96.6758 92.7969 96.6758C93.3867 96.6758 93.8398 96.4453 94.1562 95.9844C94.4727 95.5195 94.6328 94.8438 94.6367 93.957V93.541ZM93.125 87.1836H94.9707L93.3477 89H91.9707L93.125 87.1836ZM104.633 98H102.875L99.4531 92.3867V98H97.6953V89.4688H99.4531L102.881 95.0938V89.4688H104.633V98Z" fill="black"/>
<g clip-path="url(#clip0)">
<path d="M45.5701 39.4489C45.335 39.4615 44.5717 40.0304 44.5717 40.0304C44.9824 40.1837 45.8065 39.4363 45.5701 39.4489ZM45.6731 39.3321L45.6124 39.3642C45.6335 39.3573 45.6533 39.3504 45.6718 39.3436C45.6718 39.339 45.6731 39.3367 45.6731 39.3321ZM73.9499 13.8699C78.1854 13.8699 81.6193 16.8459 81.6193 20.5167C81.6193 24.1876 78.1854 27.1636 73.9499 27.1636C69.7143 27.1636 66.2804 24.1876 66.2804 20.5167C66.2804 16.8459 69.7143 13.8699 73.9499 13.8699ZM27.9094 42.3677H29.9644V41.5115H27.9094C27.3494 41.5115 26.9453 41.4154 26.7973 41.2482C26.6851 41.12 26.734 40.9529 26.734 40.9529L26.759 35.7838H25.7711V40.7709C25.7276 40.9449 25.6721 41.3627 25.997 41.7473C26.343 42.1582 26.9889 42.3677 27.9094 42.3677ZM92.8692 54.5145L92.5906 52.5549C91.4891 44.8996 91.4455 44.6077 91.8708 31.1171C91.884 30.6444 91.4587 30.2518 90.9093 30.2381C90.3916 30.2083 89.9108 30.5975 89.8937 31.0702C89.4657 44.6867 89.512 44.99 90.6293 52.7632L90.9093 54.7262C91.1959 56.6069 90.9436 57.9094 90.2053 58.4108C89.3456 58.9854 87.8413 58.4749 87.7382 58.4383C80.4729 56.5016 71.422 60.5032 71.039 60.6691C70.5543 60.8843 70.3641 61.4029 70.615 61.8229C70.7907 62.1171 71.1367 62.2819 71.4933 62.2819C71.6452 62.2819 71.7984 62.2545 71.9463 62.1858C72.0058 62.1617 76.0459 60.3818 80.6314 59.7866V73.1158H76.5279C75.6919 73.1158 75.0144 73.7019 75.0144 74.4264C75.0144 75.1487 75.6919 75.737 76.5279 75.737H88.1846C89.0207 75.737 89.6982 75.1487 89.6982 74.4264C89.6982 73.7019 89.0193 73.1158 88.1846 73.1158H84.4034V59.6424C85.3134 59.6962 86.2115 59.8187 87.0726 60.0476C87.1782 60.0842 89.6282 60.9564 91.4059 59.7729C92.7676 58.8664 93.2628 57.0933 92.8692 54.5145ZM88.1728 50.6285C88.0024 44.998 85.8734 39.5988 85.7056 33.9924C85.4587 25.8267 71.0205 25.6412 70.9043 33.6067C65.3784 34.4217 59.8591 34.8543 54.2407 34.6254C49.1414 34.4182 49.1255 41.2643 54.1892 41.4691C60.0902 41.7084 65.9436 41.2231 71.7561 40.3966C72.3531 43.3933 73.0597 46.375 73.2842 49.406C61.2603 53.0459 54.596 61.8653 52.8949 73.0735C52.883 73.1502 52.8803 73.2326 52.8724 73.3127V48.4972H60.4547V42.6309H33.261C33.2768 42.5565 33.2834 42.4696 33.2887 42.362C33.2914 42.2979 33.2953 42.2269 33.3006 42.1468C33.3349 41.6511 33.4353 41.4817 33.9953 41.3879C34.1366 41.365 34.3149 41.3581 34.4945 41.3604V41.7725H41.7929C42.0055 41.8068 42.2168 41.8331 42.4136 41.8331C42.72 41.8331 42.9842 41.7725 43.14 41.5905C43.2219 41.4955 43.2219 41.3638 43.2206 41.2368C43.2206 41.1143 43.2192 40.9884 43.2879 40.914C43.3936 40.803 43.597 40.7286 43.7409 40.7171C43.589 40.9712 43.494 41.2414 43.494 41.5275H51.7604C51.7604 40.1494 49.9087 39.0322 47.6278 39.0322C46.9146 39.0322 46.2582 39.1501 45.6745 39.3413C45.8105 40.5214 44.5294 40.4069 44.0341 40.3199C43.976 40.3829 43.9258 40.4493 43.8756 40.5157C43.8532 40.5111 43.8347 40.4997 43.8096 40.4985C43.589 40.4893 43.2707 40.605 43.103 40.7812C42.9775 40.914 42.9802 41.0857 42.9802 41.2368C42.9815 41.3295 42.9815 41.4257 42.9485 41.4634C42.8613 41.5653 42.6896 41.5985 42.4928 41.6077V40.621H34.4959V41.1441C34.2832 41.1429 34.0851 41.159 33.9504 41.1818C33.2412 41.2997 33.0985 41.5825 33.0602 42.1319C33.0549 42.2143 33.0523 42.2876 33.0483 42.3517C33.0431 42.4764 33.0378 42.5634 33.018 42.6298H18V48.496H22.1273V76.9492H52.8711V74.1002C53.3717 78.4841 62.0052 78.0835 62.766 73.0655C64.0814 64.3949 69.9164 58.6054 79.7267 56.6893C83.8051 57.2272 88.3101 55.2184 88.1728 50.6285ZM29.1522 23.3176L30.395 38.6751L27.113 38.8743L25.8702 23.5179L29.1522 23.3176Z" fill="#010002"/>
</g>
<defs>
<clipPath id="clip0">
<rect width="75" height="65" fill="white" transform="translate(18 13)"/>
</clipPath>
</defs>
</svg>
