<svg width="112" height="113" viewBox="0 0 112 113" fill="none" xmlns="http://www.w3.org/2000/svg">
<rect x="0.5" y="1.05273" width="111" height="111" fill="#F5F5F5" stroke="#B5B5B5"/>
<path d="M56.7162 28.7556C60.8987 28.7556 64.2893 25.6442 64.2893 21.8062C64.2893 17.9681 60.8987 14.8567 56.7162 14.8567C52.5337 14.8567 49.1431 17.9681 49.1431 21.8062C49.1431 25.6442 52.5337 28.7556 56.7162 28.7556Z" fill="black"/>
<path d="M79.7023 45.4935C74.0944 45.4935 69.7634 45.4935 67.2363 45.4935C67.8683 44.9125 68.2553 44.1081 68.2409 43.2225C68.2125 41.484 66.6538 40.0928 64.7587 40.1216L63.2186 40.1428C61.4666 37.2354 61.8674 37.9001 60.0384 34.8647C59.7055 34.3123 58.9473 34.1121 58.3457 34.4175C57.7437 34.723 57.5256 35.4186 57.8583 35.971C59.3207 38.3981 59.0021 37.8693 60.3953 40.1816L53.1881 40.2808L50.1116 31.7043L54.2184 38.0285L54.2853 34.1287C54.3354 31.1999 51.772 28.7941 48.5815 28.7732L46.1258 28.757C41.3729 28.7258 37.5912 32.2626 37.6043 36.6219C37.654 53.2451 37.4262 52.235 37.6043 52.9981C38.0245 54.7972 39.5301 56.2941 41.4928 56.8943C40.5672 56.8943 35.4448 56.8943 34.5156 56.8943L29.5634 33.7766C29.2977 32.5368 27.9839 31.741 26.6548 31.9721C25.2752 32.2151 24.4136 33.4412 24.6744 34.6584L30.0216 59.6211C30.2543 60.707 31.2952 61.4663 32.4662 61.4663H33.8801C33.7246 61.8945 33.6238 62.3458 33.5881 62.8141L32.5151 76.9111C32.4354 77.9607 33.2977 78.871 34.4416 78.9442C35.5839 79.0165 36.5774 78.2261 36.6572 77.1764L37.7302 63.0795C37.7974 62.195 38.6069 61.5021 39.5731 61.5021H45.7642C46.7513 61.5021 47.562 62.211 47.6094 63.1159L48.0555 71.6078C48.6215 70.2954 53.8334 58.1592 54.1656 57.3497L57.4296 57.341L50.3188 73.8301C49.4821 75.7703 50.5177 77.9657 52.6322 78.7336C54.7463 79.5014 57.1392 78.551 57.9758 76.6106L67.3221 54.9367C68.1401 53.0399 67.1702 50.8687 65.0891 50.0652C66.3533 50.0652 75.8411 50.0652 77.2109 50.0652V74.4143H72.3712C70.9954 74.4143 69.8799 75.4379 69.8799 76.7004C69.8799 77.9628 70.9954 78.9864 72.3712 78.9864H79.7021C81.0779 78.9864 82.1933 77.9628 82.1933 76.7004V47.7796C82.1935 46.517 81.0782 45.4935 79.7023 45.4935ZM54.0165 49.794L54.0334 48.8049C50.2033 48.8576 51.2747 48.8428 49.729 48.8641C47.3358 48.897 45.3438 47.2181 45.1156 45.0703L44.0785 35.0239C44.0904 35.0574 47.4428 44.4024 47.4592 44.448C47.9091 45.7028 49.2143 46.6273 50.7697 46.6119L59.6786 46.4892C59.4042 46.8565 59.2433 47.3006 59.2433 47.7794C59.2433 48.5969 59.7291 49.3699 60.5235 49.7765L54.0165 49.794Z" fill="black"/>
<path d="M36.5781 97.2422H33.4961L32.9102 99H31.041L34.2168 90.4688H35.8457L39.0391 99H37.1699L36.5781 97.2422ZM33.9707 95.8184H36.1035L35.0312 92.625L33.9707 95.8184ZM41.5938 97.5879H45.3262V99H39.8359V90.4688H41.5938V97.5879ZM52.6562 90.4688V96.0879C52.6562 97.0215 52.3633 97.7598 51.7773 98.3027C51.1953 98.8457 50.3984 99.1172 49.3867 99.1172C48.3906 99.1172 47.5996 98.8535 47.0137 98.3262C46.4277 97.7988 46.1289 97.0742 46.1172 96.1523V90.4688H47.875V96.0996C47.875 96.6582 48.0078 97.0664 48.2734 97.3242C48.543 97.5781 48.9141 97.7051 49.3867 97.7051C50.375 97.7051 50.877 97.1855 50.8926 96.1465V90.4688H52.6562ZM56.3945 90.4688L58.5859 96.6562L60.7656 90.4688H63.0742V99H61.3105V96.668L61.4863 92.6426L59.1836 99H57.9766L55.6797 92.6484L55.8555 96.668V99H54.0977V90.4688H56.3945ZM71.5469 99H69.7891L66.3672 93.3867V99H64.6094V90.4688H66.3672L69.7949 96.0938V90.4688H71.5469V99ZM80.0898 94.9277C80.0898 95.7676 79.9414 96.5039 79.6445 97.1367C79.3477 97.7695 78.9219 98.2578 78.3672 98.6016C77.8164 98.9453 77.1836 99.1172 76.4688 99.1172C75.7617 99.1172 75.1309 98.9473 74.5762 98.6074C74.0215 98.2676 73.5918 97.7832 73.2871 97.1543C72.9824 96.5215 72.8281 95.7949 72.8242 94.9746V94.5527C72.8242 93.7129 72.9746 92.9746 73.2754 92.3379C73.5801 91.6973 74.0078 91.207 74.5586 90.8672C75.1133 90.5234 75.7461 90.3516 76.457 90.3516C77.168 90.3516 77.7988 90.5234 78.3496 90.8672C78.9043 91.207 79.332 91.6973 79.6328 92.3379C79.9375 92.9746 80.0898 93.7109 80.0898 94.5469V94.9277ZM78.3086 94.541C78.3086 93.6465 78.1484 92.9668 77.8281 92.502C77.5078 92.0371 77.0508 91.8047 76.457 91.8047C75.8672 91.8047 75.4121 92.0352 75.0918 92.4961C74.7715 92.9531 74.6094 93.625 74.6055 94.5117V94.9277C74.6055 95.7988 74.7656 96.4746 75.0859 96.9551C75.4062 97.4355 75.8672 97.6758 76.4688 97.6758C77.0586 97.6758 77.5117 97.4453 77.8281 96.9844C78.1445 96.5195 78.3047 95.8438 78.3086 94.957V94.541ZM85.791 96.7617C85.791 96.4297 85.6738 96.1758 85.4395 96C85.2051 95.8203 84.7832 95.6328 84.1738 95.4375C83.5645 95.2383 83.082 95.043 82.7266 94.8516C81.7578 94.3281 81.2734 93.623 81.2734 92.7363C81.2734 92.2754 81.4023 91.8652 81.6602 91.5059C81.9219 91.1426 82.2949 90.8594 82.7793 90.6562C83.2676 90.4531 83.8145 90.3516 84.4199 90.3516C85.0293 90.3516 85.5723 90.4629 86.0488 90.6855C86.5254 90.9043 86.8945 91.2148 87.1562 91.6172C87.4219 92.0195 87.5547 92.4766 87.5547 92.9883H85.7969C85.7969 92.5977 85.6738 92.2949 85.4277 92.0801C85.1816 91.8613 84.8359 91.752 84.3906 91.752C83.9609 91.752 83.627 91.8438 83.3887 92.0273C83.1504 92.207 83.0312 92.4453 83.0312 92.7422C83.0312 93.0195 83.1699 93.252 83.4473 93.4395C83.7285 93.627 84.1406 93.8027 84.6836 93.9668C85.6836 94.2676 86.4121 94.6406 86.8691 95.0859C87.3262 95.5312 87.5547 96.0859 87.5547 96.75C87.5547 97.4883 87.2754 98.0684 86.7168 98.4902C86.1582 98.9082 85.4062 99.1172 84.4609 99.1172C83.8047 99.1172 83.207 98.998 82.668 98.7598C82.1289 98.5176 81.7168 98.1875 81.4316 97.7695C81.1504 97.3516 81.0098 96.8672 81.0098 96.3164H82.7734C82.7734 97.2578 83.3359 97.7285 84.4609 97.7285C84.8789 97.7285 85.2051 97.6445 85.4395 97.4766C85.6738 97.3047 85.791 97.0664 85.791 96.7617Z" fill="black"/>
</svg>
