<svg width="173" height="173" viewBox="0 0 173 173" fill="none" xmlns="http://www.w3.org/2000/svg">
<circle cx="86.5" cy="86.5" r="86.5" fill="#011140"/>
<path d="M114.932 34.1075V34.0961C113.174 32.1154 110.786 31.0011 108.294 31H64.6953C59.517 31.0189 55.3235 35.7207 55.3066 41.5267V131.462C55.3077 134.256 56.3015 136.934 58.068 138.904C59.8227 140.882 62.2072 141.996 64.6953 142H108.304C110.792 141.996 113.177 140.882 114.932 138.904C116.696 136.936 117.689 134.263 117.693 131.473V41.5381C117.689 38.7485 116.696 36.075 114.932 34.1075ZM86.4998 134.856C85.0989 134.856 83.9635 133.583 83.9635 132.012C83.9635 130.442 85.0989 129.168 86.4998 129.168C87.9007 129.168 89.0362 130.442 89.0362 132.012C89.0362 133.583 87.9007 134.856 86.4998 134.856ZM110.237 117.002C110.237 120.802 107.49 123.882 104.101 123.882H68.8885C65.4994 123.882 62.7521 120.802 62.7521 117.002V49.9778C62.7521 46.1779 65.4994 43.0976 68.8885 43.0976H104.111C107.5 43.0976 110.248 46.1779 110.248 49.9778L110.237 117.002Z" fill="#FFF9F9"/>
</svg>
