<?xml version="1.0" standalone="no"?>
<!DOCTYPE svg PUBLIC "-//W3C//DTD SVG 20010904//EN"
 "http://www.w3.org/TR/2001/REC-SVG-20010904/DTD/svg10.dtd">
<svg version="1.0" xmlns="http://www.w3.org/2000/svg"
 width="112.000000pt" height="113.000000pt" viewBox="0 0 112.000000 113.000000"
 preserveAspectRatio="xMidYMid meet">
<metadata>
Created by potrace 1.16, written by Peter Selinger 2001-2019
</metadata>
<g transform="translate(0.000000,113.000000) scale(0.022400,-0.022600)"
fill="#000000" stroke="none">
<path d="M0 2500 l0 -2500 2500 0 2500 0 0 2500 0 2500 -2500 0 -2500 0 0
-2500z m4960 0 l0 -2460 -2465 0 -2465 0 0 2460 0 2460 2465 0 2465 0 0 -2460z"/>
<path d="M2349 4591 c-115 -37 -212 -140 -239 -252 -38 -157 44 -336 188 -406
78 -38 202 -44 284 -13 75 28 155 101 193 177 27 52 30 68 30 153 0 82 -4 103
-27 153 -74 159 -266 243 -429 188z"/>
<path d="M1323 4426 c-88 -22 -164 -65 -233 -135 -78 -78 -125 -164 -146 -263
-17 -80 -16 -118 17 -401 10 -93 35 -314 54 -490 19 -177 50 -470 70 -651 19
-180 35 -330 35 -332 0 -2 74 -4 164 -4 l165 0 3 448 c4 427 5 450 26 512 41
125 138 244 247 305 72 40 243 97 292 97 22 0 43 -8 58 -22 15 -14 85 -178
201 -468 158 -398 178 -443 190 -427 8 10 14 22 14 26 0 4 75 196 166 426 100
252 174 427 188 442 32 31 70 30 190 -8 214 -67 342 -180 408 -362 22 -63 23
-73 26 -516 l3 -453 163 0 164 0 6 43 c6 39 25 211 121 1102 19 176 42 390 51
475 22 197 14 267 -44 384 -66 132 -182 229 -321 268 -56 15 -105 18 -343 18
-153 0 -278 -3 -278 -7 0 -5 7 -42 16 -83 28 -135 -2 -277 -85 -402 -105 -157
-264 -242 -451 -243 -312 0 -552 240 -551 550 0 50 6 111 14 138 l15 47 -281
-1 c-189 0 -299 -5 -334 -13z m1249 -853 c28 -25 22 -61 -23 -129 l-41 -63 16
-124 c9 -67 16 -138 15 -157 -1 -48 -62 -204 -82 -208 -10 -2 -24 20 -46 79
-45 117 -45 116 -26 269 l17 139 -41 65 c-45 71 -50 99 -24 128 23 25 207 27
235 1z"/>
<path d="M1892 3280 c-137 -48 -218 -143 -242 -281 -7 -41 -10 -205 -8 -454
l3 -390 358 -3 c204 -1 357 2 357 7 0 5 -84 242 -186 527 -102 286 -193 538
-201 561 -8 24 -18 45 -22 47 -3 2 -30 -4 -59 -14z"/>
<path d="M2956 3292 c-9 -15 -406 -1126 -406 -1136 0 -4 162 -6 360 -6 l361 0
-3 438 -3 437 -29 62 c-34 75 -104 144 -179 178 -70 31 -94 38 -101 27z"/>
<path d="M490 1961 c-19 -10 -45 -36 -57 -57 -22 -37 -23 -49 -23 -264 0 -215
1 -227 23 -264 12 -21 38 -47 57 -57 33 -18 104 -19 1965 -19 1818 0 1932 1
1964 18 19 9 44 30 55 45 20 27 21 41 21 277 0 236 -1 250 -21 277 -11 15 -36
36 -55 45 -32 17 -146 18 -1964 18 -1861 0 -1932 -1 -1965 -19z"/>
<path d="M2465 926 c-104 -46 -127 -216 -41 -302 58 -58 154 -58 214 2 18 18
32 41 30 51 -3 18 -58 38 -58 22 0 -6 -11 -21 -25 -34 -50 -51 -126 -18 -140
59 -23 121 72 204 145 126 23 -24 34 -29 54 -24 31 7 31 10 6 52 -34 56 -118
77 -185 48z"/>
<path d="M3110 923 c-119 -62 -119 -274 0 -336 45 -24 130 -19 168 10 48 36
67 80 67 158 0 78 -19 122 -67 158 -38 29 -123 34 -168 10z m122 -54 c41 -22
60 -112 37 -177 -29 -83 -137 -80 -170 5 -21 56 -1 149 38 172 24 14 69 14 95
0z"/>
<path d="M1240 755 l0 -175 88 0 c146 0 192 42 192 175 0 133 -46 175 -192
175 l-88 0 0 -175z m185 90 c22 -21 25 -33 25 -95 0 -91 -16 -110 -95 -110
l-55 0 0 115 0 115 50 0 c41 0 56 -5 75 -25z"/>
<path d="M1580 755 l0 -175 35 0 35 0 0 175 0 175 -35 0 -35 0 0 -175z"/>
<path d="M1720 755 l0 -175 30 0 30 0 0 76 0 75 33 -3 c27 -3 39 -13 81 -75
47 -69 52 -73 88 -73 21 0 38 2 38 5 0 13 -83 136 -98 144 -13 7 -11 10 9 16
56 17 81 72 59 126 -20 47 -55 59 -170 59 l-100 0 0 -175z"/>
<path d="M2070 755 l0 -175 130 0 130 0 0 30 0 30 -100 0 -100 0 0 45 0 45 90
0 90 0 0 30 0 30 -90 0 -90 0 0 40 0 40 95 0 95 0 0 30 0 30 -125 0 -125 0 0
-175z"/>
<path d="M2720 900 c0 -29 1 -30 50 -30 l50 0 0 -145 0 -145 35 0 35 0 0 145
0 145 50 0 c49 0 50 1 50 30 l0 30 -135 0 -135 0 0 -30z"/>
<path d="M3410 755 l0 -175 30 0 30 0 0 76 0 75 33 -3 c27 -3 39 -13 81 -75
47 -69 52 -73 88 -73 21 0 38 2 38 5 0 13 -83 136 -98 144 -13 7 -11 10 9 16
56 17 81 72 59 126 -20 47 -55 59 -170 59 l-100 0 0 -175z"/>
</g>
</svg>
