<?xml version="1.0" standalone="no"?>
<!DOCTYPE svg PUBLIC "-//W3C//DTD SVG 20010904//EN"
 "http://www.w3.org/TR/2001/REC-SVG-20010904/DTD/svg10.dtd">
<svg version="1.0" xmlns="http://www.w3.org/2000/svg"
 width="112.000000pt" height="113.000000pt" viewBox="0 0 112.000000 113.000000"
 preserveAspectRatio="xMidYMid meet">
<metadata>
Created by potrace 1.16, written by Peter Selinger 2001-2019
</metadata>
<g transform="translate(0.000000,113.000000) scale(0.022400,-0.022600)"
fill="#000000" stroke="none">
<path d="M0 2500 l0 -2500 2500 0 2500 0 0 2500 0 2500 -2500 0 -2500 0 0
-2500z m4960 0 l0 -2460 -2465 0 -2465 0 0 2460 0 2460 2465 0 2465 0 0 -2460z"/>
<path d="M2349 4591 c-115 -37 -212 -140 -239 -252 -38 -157 44 -336 188 -406
78 -38 202 -44 284 -13 75 28 155 101 193 177 27 52 30 68 30 153 0 82 -4 103
-27 153 -74 159 -266 243 -429 188z"/>
<path d="M1323 4426 c-88 -22 -164 -65 -233 -135 -78 -78 -125 -164 -146 -263
-17 -80 -16 -118 17 -401 10 -93 35 -314 54 -490 19 -177 50 -470 70 -651 19
-180 35 -330 35 -332 0 -2 74 -4 164 -4 l165 0 3 448 c4 427 5 450 26 512 41
125 138 244 247 305 72 40 243 97 292 97 22 0 43 -8 58 -22 15 -14 85 -178
201 -468 158 -398 178 -443 190 -427 8 10 14 22 14 26 0 4 75 196 166 426 100
252 174 427 188 442 32 31 70 30 190 -8 214 -67 342 -180 408 -362 22 -63 23
-73 26 -516 l3 -453 163 0 164 0 6 43 c6 39 25 211 121 1102 19 176 42 390 51
475 22 197 14 267 -44 384 -66 132 -182 229 -321 268 -56 15 -105 18 -343 18
-153 0 -278 -3 -278 -7 0 -5 7 -42 16 -83 28 -135 -2 -277 -85 -402 -105 -157
-264 -242 -451 -243 -312 0 -552 240 -551 550 0 50 6 111 14 138 l15 47 -281
-1 c-189 0 -299 -5 -334 -13z m1249 -853 c28 -25 22 -61 -23 -129 l-41 -63 16
-124 c9 -67 16 -138 15 -157 -1 -48 -62 -204 -82 -208 -10 -2 -24 20 -46 79
-45 117 -45 116 -26 269 l17 139 -41 65 c-45 71 -50 99 -24 128 23 25 207 27
235 1z"/>
<path d="M1892 3280 c-137 -48 -218 -143 -242 -281 -7 -41 -10 -205 -8 -454
l3 -390 358 -3 c204 -1 357 2 357 7 0 5 -84 242 -186 527 -102 286 -193 538
-201 561 -8 24 -18 45 -22 47 -3 2 -30 -4 -59 -14z"/>
<path d="M2956 3292 c-9 -15 -406 -1126 -406 -1136 0 -4 162 -6 360 -6 l361 0
-3 438 -3 437 -29 62 c-34 75 -104 144 -179 178 -70 31 -94 38 -101 27z"/>
<path d="M490 1961 c-19 -10 -45 -36 -57 -57 -22 -37 -23 -49 -23 -264 0 -215
1 -227 23 -264 12 -21 38 -47 57 -57 33 -18 104 -19 1965 -19 1818 0 1932 1
1964 18 19 9 44 30 55 45 20 27 21 41 21 277 0 236 -1 250 -21 277 -11 15 -36
36 -55 45 -32 17 -146 18 -1964 18 -1861 0 -1932 -1 -1965 -19z"/>
<path d="M2515 883 c-34 -9 -74 -43 -92 -76 -26 -50 -23 -154 6 -200 32 -52
60 -68 129 -74 71 -7 125 15 153 61 31 51 27 57 -48 80 -17 6 -23 3 -23 -8 0
-24 -37 -56 -65 -56 -44 0 -65 32 -65 98 0 45 5 63 20 80 27 29 66 28 94 -2
20 -23 26 -24 64 -14 23 6 42 13 42 17 0 13 -38 63 -59 78 -23 16 -121 26
-156 16z"/>
<path d="M3210 868 c-61 -32 -85 -75 -85 -158 0 -83 24 -126 85 -157 58 -30
122 -30 180 0 61 31 85 74 85 157 0 47 -6 75 -20 100 -26 45 -94 80 -155 80
-28 0 -63 -9 -90 -22z m140 -78 c16 -16 20 -33 20 -80 0 -70 -21 -100 -70
-100 -47 0 -70 33 -70 100 0 43 5 61 20 78 26 28 73 29 100 2z"/>
<path d="M1140 710 l0 -170 98 0 c161 0 207 38 207 170 0 132 -46 170 -207
170 l-98 0 0 -170z m178 74 c18 -13 22 -25 22 -74 0 -69 -15 -90 -66 -90 l-34
0 0 90 0 90 28 0 c15 0 38 -7 50 -16z"/>
<path d="M1510 710 l0 -170 55 0 55 0 0 170 0 170 -55 0 -55 0 0 -170z"/>
<path d="M1700 711 l0 -171 50 0 50 0 0 65 c0 45 4 65 13 65 21 0 33 -14 67
-72 l32 -58 59 0 59 0 -26 51 c-14 28 -37 62 -51 75 -14 13 -21 24 -14 24 7 0
23 11 36 25 36 35 35 102 -1 136 -24 22 -34 24 -150 27 l-124 4 0 -171z"/>
<path d="M2070 710 l0 -170 145 0 145 0 0 40 0 40 -95 0 -95 0 0 30 0 30 85 0
85 0 0 40 0 40 -85 0 c-78 0 -85 2 -85 20 0 19 7 20 90 20 l90 0 0 40 0 40
-140 0 -140 0 0 -170z"/>
<path d="M2760 840 l0 -40 55 0 55 0 0 -130 0 -130 55 0 55 0 0 130 0 130 50
0 50 0 0 40 0 40 -160 0 -160 0 0 -40z"/>
<path d="M3540 711 l0 -171 50 0 50 0 0 65 c0 45 4 65 13 65 21 0 33 -14 67
-72 l32 -58 59 0 59 0 -26 51 c-14 28 -37 62 -51 75 -14 13 -21 24 -14 24 7 0
23 11 36 25 36 35 35 102 -1 136 -24 22 -34 24 -150 27 l-124 4 0 -171z"/>
</g>
</svg>
