<?xml version="1.0" standalone="no"?>
<!DOCTYPE svg PUBLIC "-//W3C//DTD SVG 20010904//EN"
 "http://www.w3.org/TR/2001/REC-SVG-20010904/DTD/svg10.dtd">
<svg version="1.0" xmlns="http://www.w3.org/2000/svg"
 width="806.400000pt" height="813.600000pt" viewBox="0 0 806.400000 813.600000"
 preserveAspectRatio="xMidYMid meet">
<metadata>
Created by potrace 1.16, written by Peter Selinger 2001-2019
</metadata>
<g transform="translate(0.000000,813.600000) scale(0.161280,-0.162720)"
fill="#000000" stroke="none">
<path d="M2355 4585 c-16 -7 -26 -14 -20 -14 5 -1 -8 -11 -30 -22 -35 -19 -54
-26 -77 -28 -5 -1 -8 -6 -8 -12 0 -7 -16 -27 -35 -46 -20 -19 -33 -38 -30 -43
3 -6 -5 -32 -18 -60 -34 -70 -31 -155 7 -229 15 -29 22 -50 16 -46 -27 17 11
-33 45 -59 19 -15 33 -31 30 -36 -6 -10 53 -38 95 -46 13 -3 27 -8 30 -12 3
-4 25 -8 50 -9 25 -2 63 -5 85 -8 31 -4 36 -3 25 6 -12 9 -11 10 8 6 12 -3 22
-1 22 5 0 6 7 8 15 4 8 -3 15 -1 15 4 0 6 9 10 20 10 28 0 82 29 75 40 -3 5
11 21 30 36 35 26 72 76 45 59 -9 -6 -9 -2 0 14 6 12 15 19 19 16 5 -3 9 5 9
18 0 12 6 43 13 70 10 38 10 56 0 95 -7 26 -13 57 -14 69 -1 11 -5 19 -9 16
-8 -4 -9 -2 -13 34 -1 12 -16 35 -34 50 -17 15 -31 33 -31 39 0 10 -46 34 -72
38 -4 1 -17 9 -28 19 -12 10 -33 22 -46 28 -37 13 -154 10 -189 -6z"/>
<path d="M1391 4431 c-30 -4 -56 -12 -58 -18 -3 -7 -11 -9 -19 -6 -8 3 -14 0
-14 -6 0 -6 -3 -10 -7 -9 -5 1 -21 -4 -38 -11 -28 -12 -49 -18 -67 -20 -4 -1
-22 -17 -39 -36 -18 -19 -38 -35 -45 -35 -12 0 -58 -53 -60 -68 -1 -18 -38
-81 -44 -77 -23 14 -46 -138 -41 -265 7 -184 18 -345 28 -425 5 -39 8 -45 15
-30 6 14 7 9 4 -17 -3 -21 0 -38 5 -38 5 0 9 -17 9 -37 0 -21 4 -81 10 -133 5
-52 8 -101 5 -107 -2 -7 1 -13 6 -13 8 0 9 -17 5 -52 -4 -29 0 -114 9 -188 8
-74 15 -139 15 -143 0 -5 5 -5 12 -1 8 5 9 -2 5 -24 -4 -17 -2 -34 4 -37 5 -4
9 -21 9 -38 0 -18 2 -48 4 -67 3 -19 7 -67 9 -107 3 -40 8 -77 12 -83 3 -5 3
-30 0 -54 -4 -25 -4 -63 0 -85 l7 -41 156 2 157 2 -155 6 -155 6 153 2 152 2
0 413 c0 328 3 428 15 492 9 44 20 82 25 83 6 2 8 8 4 13 -3 5 0 9 5 9 6 0 10
6 8 13 -1 6 4 11 11 10 6 -2 12 4 12 12 0 8 15 31 33 52 17 20 25 33 17 29 -8
-4 -5 1 7 11 12 10 31 29 43 43 12 14 18 18 14 10 -8 -16 55 37 69 58 4 6 13
12 18 12 6 0 7 -6 3 -12 -5 -9 -2 -9 9 1 19 15 23 26 5 15 -7 -5 -8 -3 -4 5 5
7 14 10 22 7 8 -3 14 -1 14 5 0 6 4 8 8 5 10 -6 79 17 149 50 67 31 115 32
137 2 9 -13 14 -17 11 -10 -14 28 4 9 32 -35 42 -67 66 -114 59 -121 -3 -3 -6
1 -6 8 0 7 -2 11 -5 8 -9 -8 6 -38 16 -32 5 3 6 -1 4 -8 -3 -8 11 -44 30 -82
20 -37 34 -70 31 -74 -3 -3 -6 1 -6 8 0 7 -2 11 -5 8 -10 -9 17 -58 28 -51 6
4 7 1 3 -6 -9 -14 10 -67 33 -94 8 -10 16 -28 17 -40 1 -32 14 -68 22 -63 4 2
7 -9 8 -24 1 -15 11 -42 24 -59 12 -18 23 -43 24 -56 0 -13 4 -21 9 -18 7 4
10 -8 8 -37 -1 -21 42 -103 54 -103 13 0 55 83 53 103 -3 26 13 61 24 54 8 -5
9 -1 4 11 -4 11 0 25 8 34 21 23 47 101 39 114 -3 5 -1 7 4 4 6 -4 14 0 17 9
3 8 2 12 -4 9 -13 -8 7 45 24 65 20 24 47 100 40 112 -4 6 -3 8 3 5 11 -7 38
42 28 51 -3 3 -5 -1 -5 -8 0 -7 -2 -11 -5 -8 -3 3 11 37 31 76 19 39 32 77 28
83 -4 7 -3 9 3 6 12 -7 36 40 27 54 -5 8 53 109 63 109 2 0 1 -5 -3 -11 -4 -8
0 -8 15 0 11 7 21 16 21 21 0 14 53 12 90 -4 22 -9 28 -15 19 -19 -8 -4 -2 -4
14 -1 15 4 27 2 27 -3 0 -9 85 -38 107 -36 7 0 10 -4 7 -9 -4 -6 1 -8 14 -4
12 4 23 2 28 -5 4 -8 3 -9 -4 -5 -18 11 -14 0 5 -15 11 -10 14 -10 9 -1 -4 6
-3 12 3 12 5 0 14 -6 18 -12 5 -7 23 -26 41 -43 27 -24 32 -26 27 -10 -7 20
-7 20 9 0 8 -11 28 -33 43 -49 15 -16 21 -25 13 -21 -8 5 -1 -7 15 -26 56 -62
71 -83 55 -75 -8 4 -5 -1 7 -11 44 -36 53 -134 53 -595 l0 -418 155 0 155 0 7
28 c4 15 7 69 7 120 0 50 2 92 5 92 3 0 6 19 6 43 0 23 4 71 9 107 4 36 9 77
10 91 2 14 6 30 9 37 14 21 47 357 41 405 -4 26 -3 47 2 47 5 0 9 21 9 48 0
26 4 74 8 107 4 33 10 75 12 93 3 19 8 38 11 43 3 6 14 81 23 167 18 170 20
439 2 484 -5 14 -27 50 -48 79 -21 29 -31 49 -23 44 8 -5 0 10 -18 33 -19 23
-39 42 -45 42 -7 0 -29 18 -50 41 -21 22 -44 38 -50 36 -7 -2 -28 4 -48 14
-20 10 -39 15 -43 12 -3 -4 -6 -1 -6 6 0 7 -5 9 -11 6 -6 -4 -16 1 -24 11 -12
17 -37 19 -299 22 -157 3 -286 1 -286 -2 0 -4 5 -17 11 -28 7 -12 12 -77 13
-147 2 -111 0 -132 -20 -177 -12 -28 -24 -60 -26 -70 -2 -11 -11 -25 -21 -32
-10 -8 -16 -19 -15 -27 2 -7 -9 -24 -25 -39 -15 -14 -31 -36 -36 -49 -5 -13
-25 -31 -44 -40 -19 -9 -50 -31 -68 -48 -34 -32 -96 -68 -85 -50 5 8 -1 8 -21
0 -65 -25 -142 -41 -198 -41 -56 0 -133 16 -198 41 -20 8 -26 8 -21 0 11 -19
-38 12 -85 52 -23 21 -46 37 -50 36 -10 -3 -61 39 -61 51 0 6 -15 25 -32 43
-18 18 -32 38 -30 45 1 7 -5 18 -15 26 -10 7 -19 22 -21 33 -2 11 -15 45 -29
75 -20 43 -26 73 -29 145 -2 66 -1 82 6 60 7 -24 8 -19 5 25 -3 41 -2 50 6 35
8 -16 8 -14 5 12 -3 18 -1 35 4 38 6 3 10 13 10 21 0 12 -37 14 -237 13 -131
-1 -262 -5 -292 -8z m1636 -213 c-2 -24 -4 -7 -4 37 0 44 2 63 4 43 2 -21 2
-57 0 -80z m-461 -613 c10 -8 15 -15 9 -15 -5 0 1 -7 13 -16 29 -20 28 -57 -3
-98 -14 -18 -22 -36 -18 -39 3 -4 -1 -7 -10 -7 -9 0 -17 -5 -17 -11 0 -5 5 -7
11 -3 6 3 4 -4 -5 -18 -13 -20 -14 -34 -5 -88 5 -35 7 -75 4 -87 -3 -13 -2
-54 2 -91 7 -64 8 -65 14 -27 6 37 6 37 8 8 1 -40 -8 -65 -22 -56 -6 3 -7 1
-3 -6 10 -16 -71 -181 -89 -181 -8 0 -30 32 -50 72 -34 70 -45 99 -25 68 5 -8
10 -10 10 -5 0 14 -20 43 -20 30 0 -5 -7 1 -15 15 -16 28 -20 80 -6 80 5 0 7
19 4 43 -3 28 -1 38 5 29 7 -11 11 -7 17 15 10 39 14 184 5 178 -4 -3 -13 1
-19 9 -9 11 -9 15 1 19 8 4 7 6 -4 6 -10 1 -18 7 -18 15 0 7 -9 25 -20 39 -27
33 -26 72 2 91 12 9 18 16 13 16 -6 0 -1 7 9 15 14 11 46 15 111 15 65 0 97
-4 111 -15z"/>
<path d="M2417 3603 c18 -2 50 -2 70 0 21 2 7 4 -32 4 -38 0 -55 -2 -38 -4z"/>
<path d="M1834 3245 c-19 -11 -41 -31 -50 -43 -8 -12 -20 -19 -26 -16 -6 4 -8
2 -4 -4 3 -6 -4 -19 -17 -29 -36 -28 -58 -68 -51 -88 5 -12 4 -16 -3 -12 -14
9 -13 32 -19 -455 l-6 -418 341 0 c188 0 341 3 341 6 0 4 -16 40 -35 81 -20
40 -33 78 -30 83 3 6 1 10 -5 10 -6 0 -8 5 -5 10 7 11 -21 95 -38 117 -5 7 -5
18 -1 24 4 7 3 9 -3 6 -14 -9 -34 38 -26 60 4 10 2 14 -4 10 -5 -4 -10 6 -10
22 0 16 -9 48 -21 71 -11 23 -18 50 -15 59 4 12 3 13 -5 3 -7 -11 -12 -6 -21
19 -14 40 -14 42 2 34 6 -4 5 -1 -3 7 -8 7 -15 18 -15 23 0 24 -28 105 -37
105 -5 0 -6 10 -3 21 4 13 3 19 -2 16 -12 -7 -36 40 -28 54 4 5 1 9 -6 9 -7 0
-10 3 -6 6 6 7 -21 105 -33 118 -5 5 -6 15 -3 24 4 9 2 13 -4 9 -6 -4 -17 9
-26 31 -11 27 -12 39 -3 44 28 18 -89 2 -120 -17z"/>
<path d="M2950 3261 c0 -7 4 -10 10 -6 5 3 5 -7 -1 -25 -13 -35 -23 -41 -14
-7 5 19 4 20 -5 4 -6 -9 -9 -21 -5 -26 3 -6 -4 -28 -16 -51 -12 -23 -22 -54
-23 -70 -1 -15 -4 -26 -7 -24 -3 2 -11 -8 -18 -22 -16 -35 -13 -44 4 -14 17
30 20 21 4 -14 -7 -14 -16 -23 -22 -19 -6 4 -7 1 -2 -6 4 -8 -4 -35 -20 -66
-14 -29 -28 -69 -29 -88 -2 -19 -20 -70 -41 -114 -21 -43 -38 -90 -38 -105 0
-15 -4 -25 -8 -23 -8 6 -22 -25 -14 -33 3 -3 5 1 5 8 0 7 3 11 6 7 3 -3 -6
-27 -20 -54 -37 -70 -76 -174 -70 -184 3 -5 -8 -38 -25 -73 -17 -34 -31 -66
-31 -69 0 -4 153 -7 341 -7 l340 0 -2 428 c-1 235 -4 433 -6 439 -3 7 -10 10
-16 6 -7 -4 -8 0 -3 12 7 19 -15 61 -43 82 -9 6 -16 17 -16 25 0 7 -4 13 -10
13 -5 1 -25 15 -44 33 -19 18 -40 31 -48 28 -8 -3 -12 -2 -9 3 3 5 -1 12 -10
15 -24 9 -31 7 -14 -5 12 -9 11 -9 -5 -4 -40 15 -75 17 -75 6z"/>
<path d="M1827 2163 c94 -2 252 -2 350 0 98 1 21 2 -172 2 -192 1 -273 -1
-178 -2z"/>
<path d="M2733 2163 c97 -2 257 -2 355 0 97 1 17 2 -178 2 -195 0 -275 -1
-177 -2z"/>
<path d="M3548 2163 c46 -2 118 -2 160 0 42 1 5 3 -83 3 -88 0 -123 -2 -77 -3z"/>
<path d="M510 1957 c-16 -4 -30 -12 -30 -17 0 -6 -13 -24 -30 -42 l-30 -31 0
-230 c0 -225 0 -230 23 -252 12 -12 32 -34 44 -49 l21 -26 1947 0 1946 0 25
28 c13 15 34 37 47 50 21 22 22 33 25 209 5 226 0 260 -38 303 -17 19 -30 37
-30 42 0 4 -10 10 -22 13 -36 9 -3865 11 -3898 2z"/>
<path d="M2486 930 c-41 -13 -84 -58 -96 -99 -13 -47 -13 -113 1 -148 38 -101
170 -132 241 -56 39 43 42 62 11 69 -18 5 -28 3 -31 -6 -18 -53 -104 -69 -147
-25 -22 21 -25 33 -25 95 0 62 3 74 25 95 34 35 97 35 129 0 25 -27 66 -34 66
-11 0 26 -51 75 -88 86 -42 11 -47 11 -86 0z"/>
<path d="M3134 929 c-42 -12 -91 -69 -100 -114 -10 -58 1 -143 22 -172 37 -49
69 -66 128 -67 60 0 92 16 130 68 30 40 30 182 0 222 -43 59 -113 83 -180 63z
m114 -69 c45 -42 48 -149 6 -199 -34 -41 -98 -44 -133 -7 -46 49 -46 153 0
202 29 31 95 33 127 4z"/>
<path d="M1240 755 l0 -178 95 5 c142 8 179 43 179 173 0 130 -37 165 -179
173 l-95 5 0 -178z m191 96 c19 -15 24 -30 27 -87 3 -59 1 -73 -18 -96 -19
-25 -28 -28 -81 -28 l-59 0 0 115 0 115 54 0 c38 0 61 -6 77 -19z"/>
<path d="M1590 755 l0 -175 25 0 25 0 0 175 0 175 -25 0 -25 0 0 -175z"/>
<path d="M1720 755 l0 -175 30 0 30 0 0 75 0 75 35 0 c32 0 38 -6 85 -75 47
-69 53 -75 86 -75 l35 0 -36 58 c-20 31 -47 67 -61 79 l-25 22 26 7 c57 14 85
98 48 143 -23 28 -77 40 -175 41 l-78 0 0 -175z m208 87 c6 -40 -14 -52 -84
-52 l-64 0 0 40 0 41 73 -3 c67 -3 72 -5 75 -26z"/>
<path d="M2070 755 l0 -175 125 0 125 0 0 30 0 30 -95 0 -95 0 0 45 0 45 85 0
85 0 0 30 0 30 -85 0 -85 0 0 40 0 40 90 0 90 0 0 30 0 30 -120 0 -120 0 0
-175z"/>
<path d="M2730 900 c0 -29 1 -30 50 -30 l50 0 0 -145 0 -145 25 0 25 0 0 145
0 145 55 0 c54 0 55 0 55 30 l0 30 -130 0 -130 0 0 -30z"/>
<path d="M3410 755 l0 -175 30 0 30 0 0 75 0 75 35 0 c32 0 38 -6 85 -75 47
-69 53 -75 86 -75 l35 0 -36 58 c-20 31 -47 67 -61 79 l-25 22 26 7 c57 14 85
98 48 143 -23 28 -77 40 -175 41 l-78 0 0 -175z m208 87 c6 -40 -14 -52 -84
-52 l-64 0 0 40 0 41 73 -3 c67 -3 72 -5 75 -26z"/>
</g>
</svg>
