<svg width="112" height="112" viewBox="0 0 112 112" fill="none" xmlns="http://www.w3.org/2000/svg">
<rect x="0.5" y="0.5" width="111" height="111" fill="#F5F5F5" stroke="#B5B5B5"/>
<path d="M28.7617 98V89.4688H31.3867C32.1367 89.4688 32.8066 89.6387 33.3965 89.9785C33.9902 90.3145 34.4531 90.7949 34.7852 91.4199C35.1172 92.041 35.2832 92.748 35.2832 93.541V93.9336C35.2832 94.7266 35.1191 95.4316 34.791 96.0488C34.4668 96.666 34.0078 97.1445 33.4141 97.4844C32.8203 97.8242 32.1504 97.9961 31.4043 98H28.7617ZM30.5195 90.8926V96.5879H31.3691C32.0566 96.5879 32.582 96.3633 32.9453 95.9141C33.3086 95.4648 33.4941 94.8223 33.502 93.9863V93.5352C33.502 92.668 33.3223 92.0117 32.9629 91.5664C32.6035 91.1172 32.0781 90.8926 31.3867 90.8926H30.5195ZM43.5742 93.9277C43.5742 94.7676 43.4258 95.5039 43.1289 96.1367C42.832 96.7695 42.4062 97.2578 41.8516 97.6016C41.3008 97.9453 40.668 98.1172 39.9531 98.1172C39.2461 98.1172 38.6152 97.9473 38.0605 97.6074C37.5059 97.2676 37.0762 96.7832 36.7715 96.1543C36.4668 95.5215 36.3125 94.7949 36.3086 93.9746V93.5527C36.3086 92.7129 36.459 91.9746 36.7598 91.3379C37.0645 90.6973 37.4922 90.207 38.043 89.8672C38.5977 89.5234 39.2305 89.3516 39.9414 89.3516C40.6523 89.3516 41.2832 89.5234 41.834 89.8672C42.3887 90.207 42.8164 90.6973 43.1172 91.3379C43.4219 91.9746 43.5742 92.7109 43.5742 93.5469V93.9277ZM41.793 93.541C41.793 92.6465 41.6328 91.9668 41.3125 91.502C40.9922 91.0371 40.5352 90.8047 39.9414 90.8047C39.3516 90.8047 38.8965 91.0352 38.5762 91.4961C38.2559 91.9531 38.0938 92.625 38.0898 93.5117V93.9277C38.0898 94.7988 38.25 95.4746 38.5703 95.9551C38.8906 96.4355 39.3516 96.6758 39.9531 96.6758C40.543 96.6758 40.9961 96.4453 41.3125 95.9844C41.6289 95.5195 41.7891 94.8438 41.793 93.957V93.541ZM51.5488 95.1582C51.4824 96.0762 51.1426 96.7988 50.5293 97.3262C49.9199 97.8535 49.1152 98.1172 48.1152 98.1172C47.0215 98.1172 46.1602 97.75 45.5312 97.0156C44.9062 96.2773 44.5938 95.2656 44.5938 93.9805V93.459C44.5938 92.6387 44.7383 91.916 45.0273 91.291C45.3164 90.666 45.7285 90.1875 46.2637 89.8555C46.8027 89.5195 47.4277 89.3516 48.1387 89.3516C49.123 89.3516 49.916 89.6152 50.5176 90.1426C51.1191 90.6699 51.4668 91.4102 51.5605 92.3633H49.8027C49.7598 91.8125 49.6055 91.4141 49.3398 91.168C49.0781 90.918 48.6777 90.793 48.1387 90.793C47.5527 90.793 47.1133 91.0039 46.8203 91.4258C46.5312 91.8438 46.3828 92.4941 46.375 93.377V94.0215C46.375 94.9434 46.5137 95.6172 46.791 96.043C47.0723 96.4688 47.5137 96.6816 48.1152 96.6816C48.6582 96.6816 49.0625 96.5586 49.3281 96.3125C49.5977 96.0625 49.752 95.6777 49.791 95.1582H51.5488ZM57.8359 94.3027H54.4609V96.5879H58.4219V98H52.7031V89.4688H58.4102V90.8926H54.4609V92.9258H57.8359V94.3027ZM66.3906 98H64.6328L61.2109 92.3867V98H59.4531V89.4688H61.2109L64.6387 95.0938V89.4688H66.3906V98ZM74.1719 90.8926H71.5586V98H69.8008V90.8926H67.2227V89.4688H74.1719V90.8926ZM80.3125 94.3027H76.9375V96.5879H80.8984V98H75.1797V89.4688H80.8867V90.8926H76.9375V92.9258H80.3125V94.3027ZM86.3535 95.7617C86.3535 95.4297 86.2363 95.1758 86.002 95C85.7676 94.8203 85.3457 94.6328 84.7363 94.4375C84.127 94.2383 83.6445 94.043 83.2891 93.8516C82.3203 93.3281 81.8359 92.623 81.8359 91.7363C81.8359 91.2754 81.9648 90.8652 82.2227 90.5059C82.4844 90.1426 82.8574 89.8594 83.3418 89.6562C83.8301 89.4531 84.377 89.3516 84.9824 89.3516C85.5918 89.3516 86.1348 89.4629 86.6113 89.6855C87.0879 89.9043 87.457 90.2148 87.7188 90.6172C87.9844 91.0195 88.1172 91.4766 88.1172 91.9883H86.3594C86.3594 91.5977 86.2363 91.2949 85.9902 91.0801C85.7441 90.8613 85.3984 90.752 84.9531 90.752C84.5234 90.752 84.1895 90.8438 83.9512 91.0273C83.7129 91.207 83.5938 91.4453 83.5938 91.7422C83.5938 92.0195 83.7324 92.252 84.0098 92.4395C84.291 92.627 84.7031 92.8027 85.2461 92.9668C86.2461 93.2676 86.9746 93.6406 87.4316 94.0859C87.8887 94.5312 88.1172 95.0859 88.1172 95.75C88.1172 96.4883 87.8379 97.0684 87.2793 97.4902C86.7207 97.9082 85.9688 98.1172 85.0234 98.1172C84.3672 98.1172 83.7695 97.998 83.2305 97.7598C82.6914 97.5176 82.2793 97.1875 81.9941 96.7695C81.7129 96.3516 81.5723 95.8672 81.5723 95.3164H83.3359C83.3359 96.2578 83.8984 96.7285 85.0234 96.7285C85.4414 96.7285 85.7676 96.6445 86.002 96.4766C86.2363 96.3047 86.3535 96.0664 86.3535 95.7617Z" fill="black"/>
<g clip-path="url(#clip0)">
<path d="M88.7608 13.7512H51.5496C50.3116 13.7512 49.3103 14.6839 49.3103 15.8317V30.5063L50.9294 28.7486C51.6982 27.9129 52.7117 27.3975 53.789 27.1822V17.9114H86.5212V45.0775H53.7891V40.5299L52.7807 41.6249C51.8994 42.5798 50.6554 43.1723 49.3103 43.289V47.1573C49.3103 48.3052 50.3116 49.2366 51.5496 49.2366H63.6347L57.4949 75.1204C57.2199 76.2811 58.0099 77.4291 59.2609 77.6852C60.5006 77.9381 61.7472 77.2069 62.0197 76.0474L68.3787 49.2368H72.0754L78.4344 76.0474C78.6727 77.0511 79.6315 77.7361 80.6949 77.7349C80.8599 77.7349 81.0287 77.7193 81.1958 77.6852C82.4468 77.4291 83.2366 76.2813 82.9591 75.1204L76.82 49.2366H88.7609C89.9978 49.2366 91.0002 48.3052 91.0002 47.1573V15.8317C91 14.6839 89.9976 13.7512 88.7608 13.7512Z" fill="black"/>
<path d="M70.9731 25.8989C70.7966 25.4858 70.2962 25.283 69.8517 25.4465L56.6587 29.7705C55.4479 28.9 53.701 29.0555 52.6912 30.146L48.505 34.6855L44.793 31.7309C44.8174 31.9749 44.8731 32.212 44.8731 32.4624V38.8764L46.9383 40.5196C48.1638 41.4942 49.9971 41.3436 51.0219 40.2276L56.0056 34.8161L60.025 32.6327L70.6028 26.8859C70.9685 26.6901 71.1306 26.2717 70.9731 25.8989Z" fill="black"/>
<path d="M36.7235 27.0493H34.2373C32.3338 27.0493 30.6599 27.9084 29.596 29.2179L21.9647 35.7421C20.7756 36.7256 20.6677 38.4293 21.7385 39.5401L27.9647 45.9932C29.0262 47.0968 30.8636 47.1944 32.0526 46.2025C33.2446 45.2105 33.3453 43.5113 32.2771 42.4057L27.9856 37.9557L34.0813 32.8907L30.5311 37.3695L34.0039 40.9699C35.9229 42.9612 35.7419 46.0207 33.5985 47.8039C32.1351 49.0222 30.138 49.308 28.4067 48.7462C28.4067 48.7462 28.4336 61.1861 28.4336 74.5084C28.4336 76.2904 29.9889 77.7348 31.9081 77.7348C33.8252 77.7348 35.3826 76.2904 35.3826 74.5084C35.3826 61.1902 35.3826 68.7903 35.3826 55.2798H37.7003C37.7003 68.7805 37.7003 61.1861 37.7003 74.5084C37.7003 75.4387 37.4209 76.3002 36.9755 77.0627C37.5585 77.4791 38.284 77.7348 39.0747 77.7348C40.9949 77.7348 42.5503 76.2904 42.5503 74.5084C42.5503 61.1902 42.5547 66.7733 42.5547 32.4624C42.555 29.4728 39.945 27.0493 36.7235 27.0493Z" fill="black"/>
<path d="M32.3847 25.1129C33.3137 25.5613 34.3567 25.8396 35.4772 25.8396C36.6004 25.8396 37.6435 25.5613 38.5752 25.1121C40.75 24.0659 42.249 21.983 42.249 19.552C42.249 16.0792 39.2172 13.2649 35.477 13.2649C31.7374 13.2649 28.7063 16.0792 28.7063 19.552C28.7064 21.9843 30.2071 24.068 32.3847 25.1129Z" fill="black"/>
</g>
<defs>
<clipPath id="clip0">
<rect width="70" height="65" fill="white" transform="translate(21 13)"/>
</clipPath>
</defs>
</svg>
