<svg width="112" height="112" viewBox="0 0 112 112" fill="none" xmlns="http://www.w3.org/2000/svg">
<rect x="0.5" y="0.5" width="111" height="111" fill="#F5F5F5" stroke="#B5B5B5"/>
<path d="M36.8945 94.5137H33.5195V98H31.7617V89.4688H37.3164V90.8926H33.5195V93.0957H36.8945V94.5137ZM42.0273 96.2422H38.9453L38.3594 98H36.4902L39.666 89.4688H41.2949L44.4883 98H42.6191L42.0273 96.2422ZM39.4199 94.8184H41.5527L40.4805 91.625L39.4199 94.8184ZM47.582 89.4688L49.7734 95.6562L51.9531 89.4688H54.2617V98H52.498V95.668L52.6738 91.6426L50.3711 98H49.1641L46.8672 91.6484L47.043 95.668V98H45.2852V89.4688H47.582ZM57.666 98H55.9082V89.4688H57.666V98ZM61.0586 96.5879H64.791V98H59.3008V89.4688H61.0586V96.5879ZM67.6738 98H65.916V89.4688H67.6738V98ZM74.2305 96.2422H71.1484L70.5625 98H68.6934L71.8691 89.4688H73.498L76.6914 98H74.8223L74.2305 96.2422ZM71.623 94.8184H73.7559L72.6836 91.625L71.623 94.8184Z" fill="black"/>
<g clip-path="url(#clip0)">
<path d="M69.2462 42.8813C68.8118 43.5012 68.5798 44.233 68.5798 44.9724C68.5798 46.2008 69.2304 47.3756 70.3041 48.0927C71.393 48.8195 72.8326 49.0091 74.0966 48.5931C75.3255 48.1886 76.2997 47.2407 76.6757 46.0815C77.0623 44.8897 76.7914 43.5664 75.9594 42.5906C75.1346 41.6237 73.8354 41.0765 72.5089 41.1371C71.1932 41.1969 69.9641 41.8561 69.2462 42.8813Z" fill="black"/>
<path d="M80.4687 58.1363C80.4774 58.3466 80.463 57.9256 80.4687 58.1363V58.1363Z" fill="black"/>
<path d="M43.283 29.8369C44.2656 30.3278 45.3742 30.5845 46.4897 30.5845C49.1405 30.5845 51.6046 29.0978 52.6832 26.849C53.7759 24.5711 53.2812 21.8342 51.4544 20.0092C49.6288 18.1852 46.734 17.5261 44.207 18.3654C41.7223 19.1906 39.9388 21.3535 39.7339 23.7967C39.5271 26.2624 40.937 28.6645 43.283 29.8369Z" fill="black"/>
<path d="M54.9791 24.4529C56.273 25.537 57.9775 26.1449 59.7202 26.1449C62.3679 26.1449 64.8482 24.7259 66.0419 22.5314C67.2522 20.307 66.9751 17.5592 65.3449 15.5808C63.7204 13.6092 60.9714 12.643 58.3471 13.1218C55.7716 13.5918 53.6356 15.4166 52.9134 17.7595C52.1764 20.1517 52.9907 22.7865 54.9791 24.4529Z" fill="black"/>
<path d="M78.0358 59.2642C78.1047 59.8609 78.6837 60.3139 79.328 60.2792C79.9645 60.2451 80.4779 59.7426 80.4831 59.1511C80.4861 58.8118 80.4811 58.4753 80.4683 58.1362C80.4487 57.3425 80.2758 56.5196 80.0266 55.7616C79.812 55.1081 79.5357 54.4723 79.1845 53.8717C78.3261 52.4037 77.0998 51.128 75.627 50.1682C75.2828 49.9442 74.9182 49.7099 74.5243 49.5682C73.4063 49.0599 72.0655 49.0539 70.9422 49.5516C70.6409 49.6501 70.3632 49.8152 70.0963 49.9752C69.7642 50.1743 69.4459 50.3929 69.1389 50.6242C68.4248 51.1621 67.7774 51.7791 67.2177 52.4565C66.2373 53.6427 65.5124 55.0345 65.1844 56.5021C64.9882 57.3816 64.9244 58.255 64.9317 59.1513C64.9364 59.7513 65.4644 60.2557 66.1091 60.2805C66.7461 60.3052 67.3104 59.8524 67.3793 59.2643C67.5237 58.0001 67.8482 56.7556 68.5947 55.6713V56.9026L65.8633 67.1472C65.7407 67.589 65.6601 68.0458 66.5882 68.0458H68.8572L69.2781 76.5995C69.3149 77.2997 69.9567 77.8703 70.7123 77.8696C71.4621 77.8688 72.0984 77.3067 72.1394 76.6118L72.6494 68.0457H72.8023L73.2231 76.5994C73.26 77.2996 73.9017 77.8701 74.6574 77.8695C75.4071 77.8685 76.0436 77.3066 76.0849 76.6117L76.5944 68.0455H78.8142C79.057 68.0455 79.2853 67.9457 79.4401 67.7719C79.595 67.5976 79.6575 67.3708 79.6099 67.1446L76.8348 56.8619V55.6931C77.5883 56.7517 77.8943 58.0228 78.0358 59.2642Z" fill="black"/>
<path d="M65.0323 67.6363L65.9745 63.849L66.1025 61.499C64.9274 61.2242 64.0746 60.2457 64.0658 59.0923C64.0558 58.0356 64.1403 57.0015 64.3979 55.9704C64.6554 54.9393 65.0695 53.9621 65.6116 53.0332C65.9329 52.483 66.3151 51.96 66.7301 51.4677C66.781 51.0384 66.7726 50.6076 66.7726 50.1762C66.7726 49.5715 66.7726 48.9665 66.7726 48.3616C66.7726 46.6204 66.7726 44.879 66.7726 43.1378C66.7726 41.8909 66.7726 40.6442 66.7726 39.3973C66.7726 39.332 66.7726 39.2668 66.7726 39.2015C67.3711 40.4 67.7903 41.6548 68.1309 42.9354C68.8676 41.2678 70.4466 40.4234 72.6301 40.0885C72.2695 38.7871 71.6984 37.1655 71.0942 35.9412C70.3227 34.3786 69.3864 32.896 68.2178 31.5589C67.4549 30.6855 66.6016 29.8832 65.6773 29.1573C65.2263 28.8092 64.7572 28.4791 64.2669 28.1798C63.855 27.9285 63.4125 27.7058 62.9659 27.5087C58.3219 25.4595 54.6349 28.7885 54.5436 28.8636C53.5525 29.681 52.5616 30.4984 51.5706 31.316C54.1854 33.0274 56.3468 35.2998 57.8621 37.9135C58.8322 39.5865 59.5049 41.4281 59.8382 43.3021C60.0649 44.576 60.1285 45.8492 60.1171 47.1394C60.1012 48.8953 58.4992 50.3599 56.6074 50.3448C56.3204 50.3425 56.0413 50.3083 55.7741 50.2449C55.7741 50.2449 58.3797 59.0702 58.5273 59.6339C58.7268 60.397 58.7953 61.9836 56.8925 61.9836C54.7665 61.9836 53.7339 61.9836 53.7339 61.9836L53.4922 65.9456L53.9271 75.6196C53.9854 76.8195 55.082 77.8002 56.3767 77.8012C57.6659 77.8022 58.7604 76.8341 58.8255 75.6392L59.7067 59.432L60.4351 75.6195C60.4934 76.8193 61.5902 77.8002 62.8847 77.801C64.174 77.802 65.2684 76.8339 65.3334 75.639L65.7166 68.5991C64.718 68.526 65.0323 67.6363 65.0323 67.6363Z" fill="black"/>
<path d="M56.5196 61.2877C56.8837 61.2877 57.2257 61.1381 57.4576 60.8773C57.6898 60.6161 57.7907 60.3184 57.7122 59.9374L53.0267 44.1585V41.6604C53.7053 42.633 54.1851 43.7556 54.5078 44.871C54.7593 45.7403 54.8906 46.6192 54.9932 47.5122C55.1057 48.4857 56.0473 49.2267 57.0988 49.1762C58.1467 49.1259 58.9951 48.3007 59.0037 47.3268C59.009 46.7269 59.004 46.1316 58.9722 45.5324C58.9289 44.7095 58.7907 43.886 58.6106 43.0804C58.2346 41.4006 57.565 39.7715 56.6441 38.2838C55.7227 36.7942 54.5585 35.4376 53.2165 34.2561C52.5716 33.6884 51.8833 33.1612 51.1599 32.6818C50.6064 32.315 50.0271 31.9496 49.4065 31.6875C49.3512 31.6642 49.2952 31.6436 49.2384 31.6236C47.4067 30.7912 45.2102 30.7808 43.37 31.5967C42.7163 31.8103 42.1153 32.1962 41.5503 32.5607C40.8348 33.022 40.1562 33.5315 39.5142 34.0779C38.1464 35.2417 36.9801 36.5881 36.0222 38.0614C35.5427 38.799 35.1328 39.5819 34.7883 40.3816C34.4512 41.1655 34.1563 41.9891 33.9729 42.8169C33.7896 43.6433 33.6558 44.4645 33.569 45.3046C33.5006 45.9674 33.5154 46.6358 33.5207 47.3005C33.521 47.3092 33.521 47.3182 33.521 47.3271C33.5289 48.3067 34.3873 49.1311 35.4399 49.1769C36.4876 49.2225 37.4189 48.4797 37.5317 47.5121C37.6347 46.619 37.7659 45.7402 38.017 44.8712C38.3456 43.7358 38.8406 42.6176 39.5227 41.6245V43.9686L34.8238 59.9407C34.7535 60.2736 34.8464 60.6143 35.0779 60.876C35.3099 61.1377 35.6523 61.2879 36.0174 61.2879H39.9285L40.6433 75.9189C40.7036 77.0625 41.749 77.9964 42.9834 78C44.2159 78.0034 45.2649 77.0815 45.3325 75.9396L46.1975 61.2882H46.394L47.1085 75.9191C47.1688 77.0627 48.2145 77.9967 49.4487 78.0002C50.6811 78.0037 51.7305 77.0817 51.7981 75.9398L52.6631 61.2885H56.5196V61.2877V61.2877Z" fill="black"/>
</g>
<defs>
<clipPath id="clip0">
<rect width="70" height="65" fill="white" transform="translate(22 13)"/>
</clipPath>
</defs>
</svg>
