<?xml version="1.0" standalone="no"?>
<!DOCTYPE svg PUBLIC "-//W3C//DTD SVG 20010904//EN"
 "http://www.w3.org/TR/2001/REC-SVG-20010904/DTD/svg10.dtd">
<svg version="1.0" xmlns="http://www.w3.org/2000/svg"
 width="512.000000pt" height="512.000000pt" viewBox="0 0 512.000000 512.000000"
 preserveAspectRatio="xMidYMid meet">
<metadata>
Created by potrace 1.16, written by Peter Selinger 2001-2019
</metadata>
<g transform="translate(0.000000,512.000000) scale(0.100000,-0.100000)"
fill="#000000" stroke="none">
<path d="M2483 4630 c-29 -4 -80 -21 -115 -37 -344 -163 -345 -653 -1 -815
300 -142 643 75 643 407 0 224 -163 414 -382 445 -70 11 -72 11 -145 0z"/>
<path d="M1165 4414 c-38 -9 -108 -34 -155 -56 -207 -99 -359 -338 -360 -567
-1 -36 52 -555 117 -1153 l118 -1088 212 0 213 0 0 543 c0 610 1 616 77 767
48 95 169 221 264 274 82 45 299 117 358 118 78 2 81 -4 326 -625 121 -306
222 -557 225 -557 3 0 104 251 225 557 245 621 248 627 326 625 59 -1 276 -73
358 -118 95 -53 216 -179 264 -274 76 -151 77 -157 77 -767 l0 -543 213 0 212
0 118 1088 c65 598 118 1117 117 1153 0 87 -31 203 -77 292 -56 109 -173 222
-283 275 -137 65 -189 72 -576 72 -316 0 -336 -1 -329 -17 20 -53 35 -149 35
-229 0 -302 -195 -564 -490 -656 -107 -33 -273 -33 -380 0 -295 92 -490 354
-490 656 0 80 15 176 35 229 7 16 -13 17 -336 16 -263 0 -361 -4 -414 -15z
m1514 -1072 c61 -31 61 -59 -2 -159 l-56 -88 23 -182 22 -182 -44 -120 c-33
-90 -49 -121 -62 -121 -13 0 -29 31 -62 121 l-44 120 22 182 23 182 -56 88
c-47 75 -53 91 -46 115 14 43 64 62 163 62 61 0 95 -5 119 -18z"/>
<path d="M1850 2972 c-149 -54 -236 -140 -286 -281 -24 -66 -24 -66 -24 -603
l0 -538 455 0 c250 0 455 3 455 7 0 16 -514 1443 -519 1442 -3 0 -40 -12 -81
-27z"/>
<path d="M2927 2282 c-141 -395 -257 -721 -257 -725 0 -4 205 -7 455 -7 l455
0 0 535 c0 516 -1 538 -21 598 -50 149 -142 238 -299 292 -41 14 -74 25 -75
25 -1 0 -117 -323 -258 -718z"/>
<path d="M165 1344 c-11 -3 -30 -7 -42 -10 -29 -6 -90 -59 -109 -95 -11 -23
-14 -85 -14 -324 0 -337 3 -350 82 -402 l42 -28 2436 0 2436 0 42 28 c79 52
82 65 82 402 0 235 -3 302 -14 323 -16 31 -60 73 -96 93 -21 12 -412 14 -2425
15 -1320 1 -2409 0 -2420 -2z"/>
</g>
</svg>
