<svg width="648" height="485" viewBox="0 0 648 485" fill="none" xmlns="http://www.w3.org/2000/svg">
<g clip-path="url(#clip0)">
<path d="M332.272 339.267H267.963V274.957H332.272V339.267Z" fill="#ACEBE2"/>
<path d="M294.759 339.268H267.963V274.958H294.759V339.268Z" fill="#98D7CE"/>
<path d="M289.4 17.7183L326.914 39.4899L289.4 60.5916L26.8014 60.5916V17.7183L289.4 17.7183Z" fill="#F3D4B7"/>
<path d="M58.9561 60.5915L26.8011 60.5915L26.8011 17.7183L58.9561 17.7183L58.9561 60.5915Z" fill="#E1C3A7"/>
<path d="M332.272 114.183L10.7232 114.183V339.267C25.282 329.076 316.295 125.367 332.272 114.183ZM64.3147 167.774H162.26L64.3147 236.338V167.774Z" fill="#9AF9FF"/>
<path d="M10.724 339.268L10.724 114.183H42.8789L42.8789 316.759L10.724 339.268Z" fill="#86EFFD"/>
<path d="M332.273 253.022V274.958H267.964V253.022C267.964 241.183 277.561 231.585 289.4 231.585H310.837C322.676 231.585 332.273 241.183 332.273 253.022Z" fill="#E2E0E0"/>
<path d="M267.962 274.958V253.019C267.962 241.182 277.562 231.582 289.399 231.582C312.551 231.582 311.385 231.549 312.685 231.662C302.395 233.237 294.51 242.126 294.51 252.851V274.958H267.962Z" fill="#CECCCC"/>
<path d="M162.261 157.056H64.3152C58.3954 157.056 53.5969 161.855 53.5969 167.775L53.5969 236.337C53.5969 244.959 63.3325 250.108 70.4622 245.118L168.408 176.556C176.969 170.562 172.709 157.056 162.261 157.056ZM75.0335 215.75L75.0335 178.493H128.259L75.0335 215.75Z" fill="black"/>
<path d="M342.991 339.268V253.521C342.991 235.79 328.566 221.366 310.836 221.366H289.4C271.67 221.366 257.245 235.79 257.245 253.521V339.268C257.245 345.187 262.044 349.986 267.963 349.986H332.273C338.193 349.986 342.991 345.187 342.991 339.268V339.268ZM289.4 242.803H310.836C316.746 242.803 321.555 247.611 321.555 253.521V264.239H278.681V253.521C278.681 247.611 283.49 242.803 289.4 242.803ZM278.681 328.549V285.676H321.555V328.549H278.681Z" fill="black"/>
<path d="M16.8705 348.049L338.42 122.964C346.981 116.971 342.721 103.465 332.273 103.465L10.7236 103.465C4.8037 103.465 0.0052292 108.264 0.0052292 114.183L0.0052292 339.268C0.0052292 347.917 9.76963 353.019 16.8705 348.049V348.049ZM21.4419 124.901H42.8785V130.261C42.8785 136.18 47.6769 140.979 53.5968 140.979C59.5167 140.979 64.3151 136.18 64.3151 130.261V124.901H85.7517V130.261C85.7517 136.18 90.5502 140.979 96.47 140.979C102.39 140.979 107.188 136.18 107.188 130.261V124.901H128.625V130.261C128.625 136.18 133.423 140.979 139.343 140.979C145.263 140.979 150.062 136.18 150.062 130.261V124.901H171.498V130.261C171.498 136.18 176.297 140.979 182.217 140.979C188.136 140.979 192.935 136.18 192.935 130.261V124.901H214.371V130.261C214.371 136.18 219.17 140.979 225.09 140.979C231.01 140.979 235.808 136.18 235.808 130.261V124.901H298.27L21.4419 318.682V124.901Z" fill="black"/>
<path d="M26.8016 7L289.4 7C291.241 7 293.05 7.47428 294.655 8.37663L332.169 29.4783C335.522 31.3641 337.606 34.9018 337.633 38.7476C337.658 42.5942 335.621 46.1593 332.294 48.09L294.78 69.8616C293.146 70.8101 291.289 71.3099 289.4 71.3099L26.8016 71.3099C20.8817 71.3099 16.0833 66.5108 16.0833 60.5916V17.7183C16.0833 11.7991 20.8817 7 26.8016 7ZM286.593 28.4366L37.5199 28.4366V49.8733L286.516 49.8733L305.311 38.9654L286.593 28.4366Z" fill="black"/>
</g>
<path d="M535.453 101.828C528.033 101.828 520.78 99.6279 514.611 95.5056C508.441 91.3833 503.633 85.5242 500.793 78.6691C497.954 71.814 497.211 64.2709 498.658 56.9936C500.106 49.7162 503.679 43.0316 508.926 37.7849C514.172 32.5383 520.857 28.9653 528.134 27.5177C535.412 26.0702 542.955 26.8131 549.81 29.6526C556.665 32.4921 562.524 37.3005 566.646 43.4699C570.769 49.6394 572.969 56.8926 572.969 64.3125C572.957 74.2587 569.001 83.7942 561.968 90.8272C554.935 97.8603 545.399 101.817 535.453 101.828ZM535.453 37.5156C530.153 37.5156 524.972 39.0872 520.566 42.0317C516.159 44.9762 512.724 49.1613 510.696 54.0578C508.668 58.9543 508.137 64.3422 509.171 69.5403C510.205 74.7384 512.757 79.5131 516.505 83.2608C520.253 87.0084 525.027 89.5605 530.225 90.5945C535.423 91.6284 540.811 91.0978 545.708 89.0696C550.604 87.0414 554.789 83.6068 557.734 79.2C560.678 74.7933 562.25 69.6124 562.25 64.3125C562.242 57.2081 559.416 50.3971 554.392 45.3735C549.369 40.3499 542.558 37.524 535.453 37.5156V37.5156Z" fill="#2B93CB"/>
<path d="M428.266 58.9531H449.703V278.688H428.266V58.9531Z" fill="#EEBA2B"/>
<path d="M406.828 58.9531H428.266V278.688H406.828V58.9531Z" fill="#C77708"/>
<path d="M449.703 58.9531L428.266 16.0781L406.828 58.9531H449.703Z" fill="#914C0E"/>
<path d="M385.391 257.25H342.516V69.6719H385.391V257.25Z" fill="#EEBA2B"/>
<path d="M385.391 69.6719L369.312 32.1562H358.594L342.516 69.6719H385.391Z" fill="#C77708"/>
<path d="M449.703 300.125H406.828V278.688H449.703V300.125Z" fill="#F2CB6F"/>
<path d="M449.703 326.922H406.828V300.125H449.703V326.922Z" fill="#FFEEBA"/>
<path d="M358.594 10.7188H369.312V32.1562H358.594V10.7188Z" fill="#914C0E"/>
<path d="M385.391 289.406H342.516V257.25H385.391V289.406Z" fill="#C77708"/>
<path d="M374.672 326.922H353.234V289.406H374.672V326.922Z" fill="#EEB71F"/>
<path d="M342.516 278.688H321.078C320.374 278.688 319.677 278.549 319.027 278.28C318.377 278.011 317.786 277.616 317.288 277.118C316.79 276.62 316.396 276.03 316.126 275.379C315.857 274.729 315.719 274.032 315.719 273.328V198.297H326.438V267.969H342.516V278.688Z" fill="#914C0E"/>
<path d="M524.734 16.0781H546.172V53.5938H524.734V16.0781Z" fill="#5AB9E6"/>
<path d="M476.5 139.344H508.656V160.781H476.5V139.344Z" fill="#216EAD"/>
<path d="M562.25 139.344H594.406V160.781H562.25V139.344Z" fill="#216EAD"/>
<path d="M546.172 101.828L562.25 123.266L583.688 326.922H567.609L535.453 112.547V101.828H546.172Z" fill="#2B93CB"/>
<path d="M535.453 101.828H524.734L508.656 123.266L487.219 326.922H503.297L535.453 112.547V101.828Z" fill="#2B93CB"/>
<path d="M535.453 112.547C544.333 112.547 551.531 105.348 551.531 96.4688C551.531 87.589 544.333 80.3906 535.453 80.3906C526.573 80.3906 519.375 87.589 519.375 96.4688C519.375 105.348 526.573 112.547 535.453 112.547Z" fill="#5AB9E6"/>
<path d="M622.711 170.299L479.934 317.835C479.202 318.592 478.709 319.547 478.516 320.582C478.324 321.616 478.44 322.685 478.851 323.654C479.261 324.623 479.948 325.45 480.826 326.031C481.703 326.612 482.732 326.922 483.785 326.922H626.562C627.984 326.922 629.347 326.357 630.352 325.352C631.357 324.347 631.922 322.984 631.922 321.563V174.026C631.922 172.958 631.603 171.915 631.006 171.03C630.41 170.145 629.562 169.458 628.573 169.058C627.583 168.657 626.497 168.562 625.452 168.783C624.408 169.004 623.453 169.532 622.711 170.299V170.299ZM605.125 300.125H556.891L605.125 246.531V300.125Z" fill="#EEBA2B"/>
<path d="M606.695 218.164L614.274 210.586L598.748 195.06L591.294 202.763L606.695 218.164Z" fill="#C77708"/>
<path d="M585.257 239.602L592.835 232.023L577.661 216.849L570.207 224.552L585.257 239.602Z" fill="#C77708"/>
<path d="M563.819 261.039L571.397 253.461L556.575 238.638L549.121 246.341L563.819 261.039Z" fill="#C77708"/>
<path d="M542.381 282.477L549.959 274.898L535.488 260.427L528.034 268.13L542.381 282.477Z" fill="#C77708"/>
<path d="M520.945 303.914L528.523 296.336L514.403 282.217L506.949 289.919L520.945 303.914Z" fill="#C77708"/>
<path d="M134.078 270.625H444.922V447.484H134.078V270.625Z" fill="#FEE9AB"/>
<path d="M418.125 270.625H444.922V447.484H418.125V270.625Z" fill="#FFDE55"/>
<path d="M134.078 270.625L144.797 179.516H434.203L444.922 270.625H134.078Z" fill="#A78966"/>
<path d="M444.922 270.625H418.125L407.406 179.516H434.203L444.922 270.625Z" fill="#957856"/>
<path d="M369.891 340.297H402.047V404.609H369.891V340.297Z" fill="#91DC5A"/>
<path d="M402.047 270.625V297.422H369.891V259.906H402.047V270.625Z" fill="#91DC5A"/>
<path d="M391.328 222.391L402.047 259.906H369.891L380.609 222.391H391.328Z" fill="#5EAC24"/>
<path d="M337.734 340.297H369.891V404.609H337.734V340.297Z" fill="#57A4FF"/>
<path d="M337.734 259.906H369.891V297.422H337.734V259.906Z" fill="#57A4FF"/>
<path d="M359.172 222.391L369.891 259.906H337.734L348.453 222.391H359.172Z" fill="#004FAC"/>
<path d="M305.578 340.297H337.734V404.609H305.578V340.297Z" fill="#BB7FD9"/>
<path d="M305.578 259.906H337.734V297.422H305.578V259.906Z" fill="#BB7FD9"/>
<path d="M327.016 222.391L337.734 259.906H305.578L316.297 222.391H327.016Z" fill="#933EC5"/>
<path d="M273.422 340.297H305.578V404.609H273.422V340.297Z" fill="#F072AE"/>
<path d="M273.422 259.906H305.578V297.422H273.422V259.906Z" fill="#F072AE"/>
<path d="M294.859 222.391L305.578 259.906H273.422L284.141 222.391H294.859Z" fill="#EA348B"/>
<path d="M241.266 340.297H273.422V404.609H241.266V340.297Z" fill="#FFBCAB"/>
<path d="M241.266 259.906H273.422V297.422H241.266V259.906Z" fill="#FFBCAB"/>
<path d="M262.703 222.391L273.422 259.906H241.266L251.984 222.391H262.703Z" fill="#FF3051"/>
<path d="M209.109 340.297H241.266V404.609H209.109V340.297Z" fill="#F1CFA2"/>
<path d="M209.109 259.906H241.266V297.422H209.109V259.906Z" fill="#F1CFA2"/>
<path d="M230.547 222.391L241.266 259.906H209.109L219.828 222.391H230.547Z" fill="#FFA733"/>
<path d="M176.953 340.297H209.109V404.609H176.953V340.297Z" fill="#FFEB99"/>
<path d="M209.109 259.906V297.422H176.953V270.625V259.906H209.109Z" fill="#FFEB99"/>
<path d="M198.391 222.391L209.109 259.906H176.953L187.672 222.391H198.391Z" fill="#FFD422"/>
<path d="M385.969 340.297H402.047V404.609H385.969V340.297Z" fill="#5EAC24"/>
<path d="M402.047 259.906H385.969V297.422H402.047" fill="#5EAC24"/>
<path d="M353.812 340.297H369.891V404.609H353.812V340.297Z" fill="#006DF0"/>
<path d="M369.891 259.906H353.812V297.422H369.891" fill="#006DF0"/>
<path d="M321.656 340.297H337.734V404.609H321.656V340.297Z" fill="#933EC5"/>
<path d="M337.734 259.906H321.656V297.422H337.734" fill="#933EC5"/>
<path d="M289.5 340.297H305.578V404.609H289.5V340.297Z" fill="#EA348B"/>
<path d="M305.578 259.906H289.5V297.422H305.578" fill="#EA348B"/>
<path d="M257.344 340.297H273.422V404.609H257.344V340.297Z" fill="#FF7956"/>
<path d="M273.422 259.906H257.344V297.422H273.422" fill="#FF7956"/>
<path d="M225.188 340.297H241.266V404.609H225.188V340.297Z" fill="#FF9478"/>
<path d="M241.266 259.906H225.188V297.422H241.266" fill="#FF9478"/>
<path d="M193.031 340.297H209.109V404.609H193.031V340.297Z" fill="#FFDE55"/>
<path d="M209.109 259.906H193.031V297.422H209.109" fill="#FFDE55"/>
<path d="M450.228 269.982L439.509 178.873C439.352 177.574 438.726 176.379 437.749 175.51C436.772 174.641 435.511 174.16 434.203 174.156H144.797C143.49 174.16 142.229 174.641 141.251 175.51C140.274 176.379 139.648 177.574 139.491 178.873L128.773 269.982C128.728 270.193 128.71 270.409 128.719 270.625V447.484C128.719 448.906 129.284 450.269 130.289 451.274C131.294 452.279 132.657 452.844 134.078 452.844H444.922C446.343 452.844 447.707 452.279 448.712 451.274C449.717 450.269 450.281 448.906 450.281 447.484V270.625C450.29 270.409 450.272 270.193 450.228 269.982V269.982ZM149.567 184.875H429.433L438.92 265.266H407.406V259.906C407.418 259.415 407.346 258.926 407.192 258.459L396.473 220.944C396.158 219.82 395.486 218.831 394.557 218.125C393.628 217.418 392.495 217.035 391.328 217.031H380.61C379.443 217.035 378.309 217.418 377.381 218.125C376.452 218.831 375.78 219.82 375.465 220.944L369.891 240.398L364.317 220.944C364.002 219.82 363.329 218.831 362.401 218.125C361.472 217.418 360.339 217.035 359.172 217.031H348.453C347.287 217.035 346.153 217.418 345.225 218.125C344.296 218.831 343.623 219.82 343.308 220.944L337.735 240.398L332.161 220.944C331.846 219.82 331.173 218.831 330.244 218.125C329.316 217.418 328.182 217.035 327.016 217.031H316.297C315.131 217.035 313.997 217.418 313.068 218.125C312.14 218.831 311.467 219.82 311.152 220.944L305.578 240.398L300.005 220.944C299.69 219.82 299.017 218.831 298.088 218.125C297.16 217.418 296.026 217.035 294.86 217.031H284.141C282.974 217.035 281.841 217.418 280.912 218.125C279.984 218.831 279.311 219.82 278.996 220.944L273.422 240.398L267.848 220.944C267.533 219.82 266.861 218.831 265.932 218.125C265.003 217.418 263.87 217.035 262.703 217.031H251.985C250.818 217.035 249.684 217.418 248.756 218.125C247.827 218.831 247.155 219.82 246.84 220.944L241.266 240.398L235.692 220.944C235.377 219.82 234.704 218.831 233.776 218.125C232.847 217.418 231.714 217.035 230.547 217.031H219.828C218.662 217.035 217.528 217.418 216.6 218.125C215.671 218.831 214.998 219.82 214.683 220.944L209.11 240.398L203.536 220.944C203.221 219.82 202.548 218.831 201.62 218.125C200.691 217.418 199.557 217.035 198.391 217.031H187.672C186.506 217.035 185.372 217.418 184.443 218.125C183.515 218.831 182.842 219.82 182.527 220.944L171.808 258.459C171.655 258.926 171.582 259.415 171.594 259.906V265.266H140.081L149.567 184.875ZM396.688 265.266V292.062H375.25V265.266H396.688ZM377.019 254.547L384.629 227.75H387.309L394.919 254.547H377.019ZM364.531 265.266V292.062H343.094V265.266H364.531ZM344.863 254.547L352.473 227.75H355.153L362.763 254.547H344.863ZM332.375 265.266V292.062H310.938V265.266H332.375ZM312.706 254.547L320.317 227.75H322.996L330.607 254.547H312.706ZM300.219 265.266V292.062H278.781V265.266H300.219ZM280.55 254.547L288.16 227.75H290.84L298.45 254.547H280.55ZM268.063 265.266V292.062H246.625V265.266H268.063ZM248.394 254.547L256.004 227.75H258.684L266.294 254.547H248.394ZM235.906 265.266V292.062H214.469V265.266H235.906ZM216.238 254.547L223.848 227.75H226.528L234.138 254.547H216.238ZM203.75 265.266V292.062H182.313V265.266H203.75ZM184.081 254.547L191.692 227.75H194.371L201.982 254.547H184.081ZM439.563 442.125H139.438V275.984H171.594V297.422C171.594 298.843 172.159 300.206 173.164 301.212C174.169 302.217 175.532 302.781 176.953 302.781H402.047C403.468 302.781 404.832 302.217 405.837 301.212C406.842 300.206 407.406 298.843 407.406 297.422V275.984H439.563V442.125Z" fill="black"/>
<path d="M402.047 334.938H176.953C175.532 334.938 174.169 335.502 173.163 336.507C172.158 337.512 171.594 338.875 171.594 340.297V404.609C171.594 406.031 172.158 407.394 173.163 408.399C174.169 409.404 175.532 409.969 176.953 409.969H402.047C403.468 409.969 404.831 409.404 405.837 408.399C406.842 407.394 407.406 406.031 407.406 404.609V340.297C407.406 338.875 406.842 337.512 405.837 336.507C404.831 335.502 403.468 334.938 402.047 334.938ZM203.75 399.25H182.312V345.656H203.75V399.25ZM235.906 399.25H214.469V345.656H235.906V399.25ZM268.062 399.25H246.625V345.656H268.062V399.25ZM300.219 399.25H278.781V345.656H300.219V399.25ZM332.375 399.25H310.938V345.656H332.375V399.25ZM364.531 399.25H343.094V345.656H364.531V399.25ZM396.688 399.25H375.25V345.656H396.688V399.25Z" fill="black"/>
<defs>
<clipPath id="clip0">
<rect width="343" height="343" fill="white" transform="translate(343 350) rotate(-180)"/>
</clipPath>
</defs>
</svg>
