<?xml version="1.0" standalone="no"?>
<!DOCTYPE svg PUBLIC "-//W3C//DTD SVG 20010904//EN"
 "http://www.w3.org/TR/2001/REC-SVG-20010904/DTD/svg10.dtd">
<svg version="1.0" xmlns="http://www.w3.org/2000/svg"
 width="226.000000pt" height="223.000000pt" viewBox="0 0 226.000000 223.000000"
 preserveAspectRatio="xMidYMid meet">

<g transform="translate(0.000000,223.000000) scale(0.100000,-0.100000)"
fill="#000000" stroke="none">
<path d="M1874 2178 c-39 -34 -120 -118 -130 -136 -1 -2 -23 4 -48 12 -26 9
-51 16 -55 16 -5 0 -27 -30 -49 -67 -22 -38 -60 -90 -86 -117 -54 -58 -62 -55
-97 32 -41 104 -94 150 -160 138 -13 -3 -40 -5 -59 -5 -21 -1 -30 -4 -23 -9
10 -7 10 -12 -1 -27 -12 -17 -12 -21 6 -33 19 -14 19 -15 -9 -45 l-28 -30 31
21 31 21 35 -37 c50 -52 90 -119 77 -128 -14 -9 -27 6 -31 36 -2 19 -10 26
-30 28 -14 2 -32 10 -38 18 -27 31 -49 16 -86 -58 -43 -85 -74 -171 -74 -205
0 -28 -16 -30 -25 -3 -11 35 -68 70 -113 70 -40 0 -42 1 -42 30 0 27 -3 30
-30 30 -20 0 -35 -8 -46 -25 -11 -17 -25 -25 -45 -25 -41 0 -36 15 19 55 26
19 67 57 90 84 26 31 56 54 75 60 25 7 27 9 10 10 -19 1 -23 7 -23 31 0 17 7
34 18 40 15 10 15 11 -3 5 -43 -15 -55 -17 -71 -11 -16 6 -16 8 0 24 9 10 16
23 16 28 0 5 -13 -8 -30 -27 -20 -25 -49 -44 -90 -59 -34 -13 -78 -34 -97 -47
-19 -13 -36 -23 -38 -21 -1 2 -15 23 -30 48 -15 25 -48 73 -72 108 -49 69 -56
70 -115 15 -14 -14 -31 -22 -37 -19 -5 4 -23 30 -40 59 -57 100 -116 142 -167
118 -48 -21 -29 -75 73 -202 29 -36 53 -70 53 -75 0 -5 -13 -24 -28 -42 l-28
-34 -52 20 c-29 11 -68 34 -87 51 -20 17 -39 31 -44 31 -31 0 -51 -89 -27
-124 16 -25 111 -76 141 -76 13 0 15 -7 10 -43 -8 -49 2 -61 97 -121 31 -20
60 -40 63 -46 3 -6 -2 -22 -13 -38 -74 -104 -112 -198 -112 -279 0 -51 1 -52
19 -36 15 12 17 21 11 34 -19 35 42 202 99 269 24 28 28 30 63 20 l37 -11 -20
-47 c-12 -26 -29 -73 -39 -104 -32 -99 -73 -161 -103 -157 -31 4 -40 -1 -28
-15 8 -10 23 -13 45 -9 20 3 36 1 40 -6 4 -6 12 -11 18 -11 6 0 4 8 -5 18 -15
16 -13 25 27 119 24 56 56 124 72 150 l28 48 14 -65 c14 -67 17 -100 11 -135
-3 -15 2 -21 23 -23 19 -2 28 -9 28 -21 0 -26 32 -51 74 -58 44 -7 45 -19 6
-68 -16 -20 -32 -45 -35 -56 -6 -18 -16 -23 -42 -20 -20 3 -53 -18 -53 -33 0
-8 7 -20 16 -27 13 -10 15 -23 9 -59 -4 -25 -8 -65 -9 -89 0 -24 -6 -46 -12
-48 -21 -7 -35 26 -49 123 -8 53 -16 98 -18 98 -23 8 -43 29 -53 57 l-13 34 6
-42 c7 -51 -9 -57 -32 -13 -9 17 -18 30 -21 30 -2 0 0 -9 6 -19 25 -47 0 -69
-35 -31 -10 11 -20 18 -23 16 -2 -3 5 -14 16 -26 15 -17 19 -30 15 -56 -4 -26
2 -51 27 -102 18 -37 39 -75 48 -84 8 -10 12 -24 8 -33 -9 -25 -88 -55 -168
-63 -72 -7 -73 -7 -76 -38 -2 -20 4 -39 17 -55 l21 -24 -14 36 c-21 50 -9 62
71 70 45 4 107 22 186 53 115 45 137 49 137 21 0 -24 56 -61 112 -74 31 -6 63
-20 73 -31 16 -18 16 -23 -5 -92 -28 -91 -79 -203 -118 -260 -32 -47 -82 -68
-161 -68 -83 0 -196 125 -256 282 l-18 48 -22 -24 c-12 -13 -40 -33 -62 -44
-55 -28 -66 -59 -52 -135 17 -96 42 -101 126 -23 l59 54 82 -80 82 -80 -22
-74 c-21 -70 -21 -75 -5 -91 12 -12 38 -19 87 -21 95 -6 103 2 98 94 l-3 73
35 23 c24 16 45 45 68 91 36 75 60 92 111 77 17 -5 74 -4 133 1 91 8 104 7
116 -8 6 -9 12 -12 12 -7 0 6 -5 15 -12 22 -9 9 -8 17 2 37 12 22 19 25 49 20
27 -3 30 -3 11 3 -14 4 -25 13 -24 20 1 7 2 21 3 32 0 13 8 20 21 20 11 0 20
4 20 10 0 5 -13 7 -29 4 -16 -4 -32 -1 -36 5 -4 8 -33 10 -93 5 -112 -8 -172
6 -172 41 0 44 10 55 50 55 21 0 57 7 80 15 23 8 59 15 79 15 64 0 79 37 36
89 l-26 30 27 79 26 79 -20 65 c-32 103 -51 141 -89 180 l-36 37 26 10 c65 25
137 107 137 157 0 13 8 6 23 -21 28 -50 94 -95 189 -130 116 -42 118 -44 75
-43 -22 1 -42 -4 -46 -10 -3 -6 -24 -12 -46 -14 -35 -3 -40 -6 -38 -25 2 -18
-6 -26 -34 -38 -34 -14 -35 -16 -19 -34 16 -18 15 -20 -19 -40 -39 -22 -53
-47 -38 -62 7 -7 0 -20 -19 -40 -34 -33 -30 -53 7 -39 33 13 31 4 -5 -27 -38
-31 -39 -53 -3 -53 25 0 25 -1 9 -19 -9 -10 -18 -31 -19 -47 -2 -27 0 -29 31
-26 27 2 32 -1 32 -21 0 -59 61 -86 115 -51 22 15 29 14 82 -4 31 -11 65 -19
74 -17 32 6 29 -25 -5 -62 -33 -36 -35 -37 -99 -35 -37 2 -68 -2 -72 -8 -3 -5
-15 -10 -26 -10 -11 0 -17 -4 -14 -10 3 -5 2 -25 -4 -44 -8 -32 -7 -37 22 -60
30 -25 30 -26 11 -42 -18 -14 -18 -15 5 -3 13 6 40 9 62 5 50 -8 72 2 147 68
35 31 67 56 70 56 4 0 15 -12 24 -28 9 -15 31 -43 50 -63 18 -20 45 -51 59
-70 25 -32 28 -33 58 -22 31 11 33 11 109 -66 72 -73 219 -181 247 -181 26 0
65 41 65 70 0 23 -21 47 -116 136 -63 59 -122 121 -130 137 -14 27 -13 36 21
143 25 76 42 114 52 114 8 0 49 -15 91 -32 165 -70 255 -27 211 100 -12 34
-38 45 -130 58 -25 3 -65 16 -89 28 -35 16 -46 27 -48 49 -3 20 -9 27 -26 27
-33 0 -116 30 -116 42 0 6 19 53 42 106 l42 95 -20 35 c-16 30 -25 35 -62 37
-33 3 -44 -1 -53 -16 -5 -11 -13 -18 -17 -15 -4 2 -7 -19 -8 -47 0 -44 1 -48
9 -24 5 15 13 27 19 27 6 0 8 7 5 15 -9 21 10 28 22 8 5 -10 13 -14 17 -10 4
4 2 13 -4 19 -18 18 -15 28 9 28 12 0 23 -8 26 -20 3 -11 10 -20 15 -20 17 0
0 -59 -38 -138 -32 -66 -38 -73 -62 -70 -26 3 -27 5 -25 68 1 61 1 63 -12 35
l-13 -30 -11 30 c-7 17 -21 40 -33 52 -15 16 -18 29 -13 53 5 23 2 37 -12 52
-18 20 -17 21 5 35 26 18 29 58 6 91 -9 13 -14 25 -13 27 7 7 37 -21 63 -59
14 -21 26 -34 26 -27 0 19 27 12 44 -12 16 -22 16 -22 6 0 -5 12 -10 26 -10
32 0 14 37 14 45 1 3 -5 11 -10 18 -10 6 0 1 7 -11 16 -19 13 -22 22 -17 45 5
21 0 39 -15 65 -12 19 -21 36 -19 38 2 1 39 7 82 13 44 6 84 16 90 22 7 7 13
49 14 99 l2 86 114 41 c63 22 121 46 131 54 24 20 20 47 -11 69 -44 30 -60 33
-186 42 -130 8 -144 15 -181 84 l-18 34 31 59 c18 33 52 83 77 111 76 87 28
117 -62 40z m76 12 c0 -6 -17 -29 -38 -53 -21 -23 -49 -60 -61 -83 -19 -34
-27 -40 -47 -36 -13 2 -24 10 -24 16 0 21 61 96 108 131 46 36 62 42 62 25z
m-1717 -31 c27 -15 52 -45 73 -89 10 -19 26 -47 38 -63 18 -25 19 -29 4 -43
-21 -22 -46 -12 -100 39 -62 57 -102 120 -93 146 7 24 43 28 78 10z m1103
-150 c13 -12 31 -43 40 -68 9 -25 25 -66 36 -90 21 -50 12 -71 -28 -71 -18 0
-40 21 -88 82 -35 45 -62 87 -59 95 3 8 -2 13 -14 13 -15 0 -20 7 -21 29 0 21
3 28 13 25 7 -3 16 0 20 6 11 18 74 5 101 -21z m-436 -105 c0 -19 -77 -93
-148 -141 -35 -24 -64 -43 -66 -43 -1 0 -11 24 -21 54 -22 65 -17 74 59 114
97 49 176 57 176 16z m-789 -35 c30 -22 66 -47 81 -55 53 -28 10 -61 -63 -49
-75 13 -116 70 -93 129 9 23 14 21 75 -25z m434 -83 c14 -18 25 -38 25 -44 0
-7 -24 -37 -53 -68 l-54 -57 -61 33 c-34 18 -62 38 -62 45 0 17 46 83 88 127
l35 37 29 -20 c15 -11 39 -35 53 -53z m1160 40 c16 -37 47 -177 41 -183 -11
-11 -196 54 -196 69 0 9 129 148 137 148 2 0 10 -15 18 -34z m363 4 c88 -10
162 -33 162 -52 0 -18 -37 -39 -112 -64 -46 -15 -88 -29 -94 -31 -11 -4 -82
99 -97 140 -8 21 4 21 141 7z m-803 -23 c0 -12 -13 -24 -32 -32 -32 -13 -33
-13 -33 8 0 13 6 29 12 35 18 18 53 11 53 -11z m121 -51 c119 -15 187 -171
131 -298 -8 -18 -18 -44 -21 -58 -3 -14 -13 -34 -21 -45 -17 -21 -8 -23 -130
29 -39 17 -79 26 -114 26 -51 0 -53 1 -47 23 23 78 28 143 17 210 -11 65 -10
71 8 89 23 21 84 37 121 32 14 -2 39 -6 56 -8z m-536 -71 c0 -33 -1 -34 -25
-23 -29 13 -32 33 -7 47 27 16 32 13 32 -24z m-30 -44 c19 -10 50 -27 68 -36
43 -23 49 -54 23 -117 -11 -28 -21 -66 -21 -84 0 -29 -9 -40 -84 -98 -69 -54
-91 -66 -121 -66 -53 0 -126 35 -152 73 -27 39 -46 118 -37 155 18 72 80 151
142 179 43 19 142 16 182 -6z m784 -216 c9 -14 13 -25 8 -25 -5 0 -19 11 -32
25 -18 19 -20 25 -8 25 9 0 23 -11 32 -25z m96 4 c56 -21 78 -38 99 -78 16
-30 9 -47 -25 -55 -21 -6 -33 -1 -57 21 -59 56 -105 133 -79 133 4 0 32 -9 62
-21z m-174 -75 c-3 -8 -2 -12 4 -9 15 9 12 -11 -2 -23 -7 -5 -21 -7 -31 -3
-16 6 -16 8 -2 29 18 25 40 30 31 6z m-976 -84 c0 -10 -31 -22 -38 -16 -2 3
-2 12 1 20 6 15 37 12 37 -4z m341 -106 c51 -26 86 -74 103 -141 9 -34 16 -68
16 -75 0 -19 -79 62 -100 102 -10 20 -41 57 -69 83 l-50 47 35 0 c19 0 49 -7
65 -16z m-96 -20 c50 -34 73 -61 85 -106 7 -26 24 -47 60 -73 28 -21 53 -48
56 -62 11 -43 -15 -130 -59 -196 l-42 -62 -63 -3 c-68 -3 -168 18 -216 46 -48
28 -70 75 -70 152 -1 59 4 76 41 151 59 119 110 176 159 178 6 1 28 -11 49
-25z m628 15 c14 14 47 15 47 1 0 -5 -6 -10 -12 -10 -31 0 -136 -61 -170 -98
-43 -48 -76 -143 -85 -244 -6 -73 -22 -99 -43 -73 -9 11 -17 12 -32 4 -41 -22
-42 -1 -1 39 23 22 39 43 36 46 -3 3 -25 3 -47 -1 -39 -6 -40 -5 -26 12 8 10
30 24 48 32 41 17 33 33 -16 33 -35 1 -36 1 -17 16 11 9 33 21 49 26 l28 11
-33 14 -34 14 24 20 c14 11 37 23 53 26 34 7 36 15 6 28 -34 15 -28 30 15 33
36 3 47 14 27 27 -25 15 -7 26 34 20 38 -6 44 -4 48 13 5 19 9 20 47 10 31 -8
45 -8 54 1z m132 1 c-3 -5 -10 -10 -16 -10 -5 0 -9 5 -9 10 0 6 7 10 16 10 8
0 12 -4 9 -10z m103 -17 c4 -27 5 -27 -43 -7 -30 12 -35 18 -24 25 25 17 64 6
67 -18z m-75 -33 c74 -28 127 -87 127 -142 0 -32 -127 -224 -179 -271 -50 -45
-78 -57 -134 -57 -52 0 -109 38 -143 95 -27 46 -29 79 -13 157 21 99 51 140
150 203 64 41 112 45 192 15z m-1028 -127 c-8 -34 -11 -37 -24 -28 -15 9 -14
42 2 48 25 11 29 6 22 -20z m1222 -93 c24 -10 69 -22 102 -26 32 -3 63 -9 69
-13 11 -7 -35 -230 -64 -311 -36 -99 -113 -190 -183 -220 l-35 -14 -48 54
c-65 73 -112 143 -143 213 l-25 57 56 27 c40 19 63 38 81 67 83 134 120 185
133 185 8 1 34 -8 57 -19z m-760 -204 c-5 -15 -47 -20 -59 -8 -6 6 -4 19 8 37
l18 27 18 -22 c10 -13 17 -28 15 -34z m234 8 c24 -25 24 -26 5 -40 -11 -8 -35
-14 -53 -14 -26 0 -33 4 -33 20 0 20 32 60 48 60 5 0 19 -12 33 -26z m217
-159 c7 -14 12 -32 12 -39 0 -20 -77 -86 -126 -108 -53 -23 -114 -16 -121 13
-3 11 -9 19 -14 19 -18 0 -8 37 15 59 26 25 41 27 104 16 40 -7 44 -6 75 29
17 20 35 36 38 36 3 0 11 -11 17 -25z"/>
<path d="M1286 1741 c-5 -7 6 -11 34 -11 94 0 131 -49 138 -181 4 -78 2 -89
-16 -107 -12 -12 -17 -24 -12 -27 5 -3 17 7 27 21 13 20 18 48 18 103 0 88
-26 158 -69 186 -32 21 -111 32 -120 16z"/>
<path d="M1340 1581 c0 -18 19 -51 29 -51 13 0 2 37 -15 51 -11 9 -14 9 -14 0z"/>
<path d="M1260 1546 c0 -9 5 -16 10 -16 6 0 10 4 10 9 0 6 -4 13 -10 16 -5 3
-10 -1 -10 -9z"/>
<path d="M1300 1461 c0 -6 5 -13 10 -16 6 -3 10 1 10 9 0 9 -4 16 -10 16 -5 0
-10 -4 -10 -9z"/>
<path d="M685 1621 c-52 -23 -121 -99 -134 -146 -16 -59 6 -145 37 -145 12 0
10 5 -6 23 -17 18 -22 36 -22 79 0 48 5 61 35 102 39 49 74 72 145 92 39 11
41 12 15 13 -16 0 -48 -8 -70 -18z"/>
<path d="M663 1528 c-25 -33 -23 -39 5 -18 36 27 62 21 62 -15 0 -14 5 -25 10
-25 16 0 12 37 -6 54 -19 19 -58 21 -71 4z"/>
<path d="M820 1496 c0 -9 7 -16 16 -16 17 0 14 22 -4 28 -7 2 -12 -3 -12 -12z"/>
<path d="M670 1330 c0 -5 5 -10 10 -10 6 0 10 5 10 10 0 6 -4 10 -10 10 -5 0
-10 -4 -10 -10z"/>
<path d="M591 944 c-16 -37 -9 -39 11 -3 9 16 14 29 9 29 -4 0 -13 -12 -20
-26z"/>
<path d="M694 945 c-8 -20 4 -35 27 -35 21 0 25 20 7 38 -16 16 -27 15 -34 -3z
m31 -15 c3 -5 -1 -10 -9 -10 -9 0 -16 5 -16 10 0 6 4 10 9 10 6 0 13 -4 16
-10z"/>
<path d="M581 847 c-2 -15 56 -132 70 -143 8 -6 25 -15 39 -19 20 -6 18 -3
-10 16 -23 16 -46 47 -67 89 -18 36 -32 62 -32 57z"/>
<path d="M670 843 c0 -6 18 -29 39 -51 43 -44 81 -69 81 -53 0 5 -9 12 -20 16
-10 3 -37 27 -60 52 -22 25 -40 41 -40 36z"/>
<path d="M832 823 c2 -10 10 -18 18 -18 8 0 16 8 18 18 2 12 -3 17 -18 17 -15
0 -20 -5 -18 -17z"/>
<path d="M880 715 c-7 -8 -27 -19 -44 -24 l-31 -9 30 -1 c21 0 36 7 48 24 19
27 17 34 -3 10z"/>
<path d="M753 673 c9 -2 25 -2 35 0 9 3 1 5 -18 5 -19 0 -27 -2 -17 -5z"/>
<path d="M1387 1053 c-13 -13 -7 -31 13 -36 16 -4 20 0 20 19 0 23 -18 32 -33
17z"/>
<path d="M1570 1045 c0 -2 5 -15 11 -28 9 -20 6 -37 -19 -95 -32 -78 -112
-196 -142 -212 -10 -5 -31 -10 -46 -10 -35 0 -25 -10 21 -20 49 -11 99 5 121
37 9 15 38 52 62 83 55 67 96 152 87 180 -8 27 -95 86 -95 65z m62 -42 c26
-23 22 -57 -13 -124 -40 -74 -144 -189 -170 -189 -17 0 -13 10 27 61 57 74
112 180 120 232 7 42 10 44 36 20z"/>
<path d="M1435 930 c-3 -5 -1 -10 4 -10 6 0 11 5 11 10 0 6 -2 10 -4 10 -3 0
-8 -4 -11 -10z"/>
<path d="M1285 850 c-8 -13 3 -30 20 -30 14 0 27 24 18 34 -10 9 -31 7 -38 -4z"/>
<path d="M1705 756 c-72 -17 -78 -22 -71 -65 3 -20 9 -55 12 -78 10 -63 21
-68 101 -42 37 12 74 23 82 25 8 3 10 10 5 22 -4 9 -9 37 -11 62 -7 81 -11 90
-41 89 -15 0 -50 -6 -77 -13z"/>
<path d="M405 628 c-34 -19 -65 -51 -64 -67 0 -12 3 -11 10 4 15 29 58 58 98
66 35 6 35 7 6 8 -16 0 -39 -5 -50 -11z"/>
<path d="M606 568 c10 -14 21 -24 23 -22 3 3 -6 15 -18 27 l-24 22 19 -27z"/>
<path d="M340 502 c-1 -49 78 -113 137 -111 24 1 23 2 -10 10 -52 12 -85 36
-107 78 -11 20 -19 30 -20 23z"/>
<path d="M601 447 c-14 -16 -38 -35 -55 -43 -20 -8 -24 -13 -13 -14 18 0 106
75 97 83 -3 2 -16 -9 -29 -26z"/>
</g>
</svg>
