<svg id="svg" version="1.1" xmlns="http://www.w3.org/2000/svg" xmlns:xlink="http://www.w3.org/1999/xlink" width="50" height="50" viewBox="0, 0, 400,400"><g id="svgg"><path id="path0" d="M332.900 0.267 C 332.185 0.368,331.600 0.619,331.600 0.825 C 331.600 1.031,331.060 1.200,330.400 1.200 C 329.740 1.200,329.200 1.380,329.200 1.600 C 329.200 1.820,328.840 2.000,328.400 2.000 C 327.960 2.000,327.600 2.180,327.600 2.400 C 327.600 2.620,327.330 2.800,327.000 2.800 C 326.670 2.800,326.400 2.980,326.400 3.200 C 326.400 3.420,326.080 3.600,325.688 3.600 C 325.297 3.600,324.717 3.960,324.400 4.400 C 324.083 4.840,323.593 5.200,323.312 5.200 C 323.030 5.200,322.800 5.380,322.800 5.600 C 322.800 5.820,322.616 6.000,322.392 6.000 C 321.807 6.000,317.015 10.654,305.344 22.553 C 302.673 25.276,300.264 27.579,299.991 27.670 C 299.681 27.773,299.595 28.155,299.763 28.685 C 300.192 30.035,370.897 99.914,371.593 99.675 C 372.227 99.457,373.414 98.400,373.024 98.400 C 372.895 98.400,374.457 96.718,376.495 94.661 C 378.533 92.605,380.335 90.995,380.500 91.085 C 380.665 91.174,380.800 90.937,380.800 90.557 C 380.800 90.177,380.910 89.977,381.044 90.111 C 381.179 90.246,381.735 89.826,382.280 89.178 C 382.825 88.530,383.660 87.986,384.136 87.968 C 384.611 87.951,384.777 87.847,384.504 87.736 C 383.851 87.473,384.868 86.400,385.771 86.400 C 386.117 86.400,386.400 86.117,386.400 85.771 C 386.400 84.868,387.473 83.851,387.736 84.504 C 387.847 84.777,387.954 84.550,387.975 84.000 C 387.997 83.418,388.135 83.190,388.306 83.456 C 388.521 83.789,388.732 83.770,389.088 83.385 C 389.473 82.971,389.473 82.817,389.088 82.661 C 388.820 82.552,389.050 82.446,389.600 82.425 C 390.397 82.395,390.478 82.309,390.000 82.000 C 389.515 81.686,389.572 81.611,390.300 81.606 C 390.914 81.602,391.200 81.360,391.200 80.842 C 391.200 79.898,393.298 77.600,394.160 77.600 C 394.705 77.600,394.912 76.982,394.774 75.770 C 394.759 75.643,395.119 75.217,395.574 74.823 C 396.028 74.429,396.400 73.824,396.400 73.480 C 396.400 73.136,396.784 72.732,397.253 72.583 C 397.936 72.366,397.996 72.236,397.553 71.926 C 397.126 71.627,397.114 71.493,397.500 71.336 C 397.775 71.225,398.000 70.778,398.000 70.343 C 398.000 69.908,398.180 69.664,398.400 69.800 C 398.642 69.950,398.800 69.396,398.800 68.400 C 398.800 67.494,398.963 66.854,399.163 66.977 C 400.207 67.622,400.140 52.860,399.090 51.167 C 398.690 50.521,398.710 50.306,399.200 49.994 C 399.599 49.740,399.632 49.610,399.300 49.606 C 399.025 49.603,398.800 49.345,398.800 49.033 C 398.800 48.722,398.575 48.375,398.300 48.264 C 397.914 48.107,397.926 47.973,398.353 47.674 C 398.796 47.364,398.736 47.234,398.053 47.017 C 397.128 46.723,396.889 46.017,397.700 45.973 C 397.975 45.958,397.795 45.751,397.300 45.512 C 396.805 45.273,396.400 44.817,396.400 44.499 C 396.400 44.181,395.860 43.417,395.200 42.800 C 394.540 42.183,394.000 41.475,394.000 41.225 C 394.000 40.778,388.672 35.115,384.442 31.066 C 378.855 25.718,376.800 23.604,376.800 23.205 C 376.800 22.671,376.320 22.150,369.707 15.513 C 362.763 8.543,360.000 6.000,359.370 6.000 C 359.086 6.000,358.743 5.651,358.608 5.225 C 358.473 4.799,357.831 4.215,357.181 3.927 C 356.531 3.640,356.000 3.269,356.000 3.102 C 356.000 2.936,355.766 2.800,355.480 2.800 C 354.744 2.800,352.807 1.859,352.803 1.500 C 352.801 1.335,352.275 1.200,351.633 1.200 C 350.992 1.200,350.394 0.981,350.304 0.713 C 350.140 0.220,335.830 -0.147,332.900 0.267 " stroke="none" fill="#e7547f" fill-rule="evenodd"></path><path id="path1" d="M376.800 23.407 C 376.800 23.604,379.340 26.158,383.938 30.585 C 385.072 31.677,386.000 32.415,386.000 32.226 C 386.000 31.874,377.345 23.200,376.994 23.200 C 376.887 23.200,376.800 23.293,376.800 23.407 M388.215 34.865 C 389.307 36.000,390.797 37.548,391.527 38.305 C 392.256 39.061,392.948 39.585,393.064 39.469 C 393.317 39.216,387.078 32.800,386.579 32.800 C 386.387 32.800,387.123 33.729,388.215 34.865 M394.000 41.369 C 394.000 41.516,394.450 42.086,395.000 42.636 C 395.921 43.557,396.380 43.533,395.694 42.600 C 395.229 41.968,394.000 41.074,394.000 41.369 M398.800 50.576 C 398.800 50.893,398.980 51.264,399.200 51.400 C 399.420 51.536,399.600 51.277,399.600 50.824 C 399.600 50.371,399.420 50.000,399.200 50.000 C 398.980 50.000,398.800 50.259,398.800 50.576 M399.693 53.600 C 399.693 54.370,399.775 54.685,399.876 54.300 C 399.976 53.915,399.976 53.285,399.876 52.900 C 399.775 52.515,399.693 52.830,399.693 53.600 M399.693 64.800 C 399.693 65.570,399.775 65.885,399.876 65.500 C 399.976 65.115,399.976 64.485,399.876 64.100 C 399.775 63.715,399.693 64.030,399.693 64.800 M353.198 82.500 L 370.596 99.999 358.600 112.000 C 352.003 118.600,346.402 124.000,346.154 124.000 C 345.906 124.000,337.960 116.260,328.497 106.800 C 319.034 97.340,311.048 89.600,310.752 89.600 C 310.455 89.600,318.174 97.570,327.906 107.310 C 337.638 117.051,345.600 125.165,345.600 125.342 C 345.600 125.518,344.858 126.376,343.950 127.248 C 343.043 128.120,342.399 128.933,342.521 129.054 C 342.809 129.342,344.768 127.446,361.083 111.089 C 362.448 109.720,365.643 106.566,368.183 104.080 C 370.722 101.595,372.797 99.345,372.794 99.080 C 372.790 98.743,372.700 98.731,372.494 99.040 C 371.598 100.381,370.579 99.495,353.400 82.457 L 335.800 65.000 353.198 82.500 M398.800 67.576 C 398.800 68.029,398.980 68.400,399.200 68.400 C 399.420 68.400,399.600 68.141,399.600 67.824 C 399.600 67.507,399.420 67.136,399.200 67.000 C 398.980 66.864,398.800 67.123,398.800 67.576 M395.324 74.973 C 394.679 75.708,395.153 76.104,395.848 75.410 C 396.151 75.106,396.400 74.754,396.400 74.629 C 396.400 74.226,395.815 74.413,395.324 74.973 M392.300 78.866 C 391.695 79.545,391.200 80.266,391.200 80.468 C 391.200 80.830,392.471 79.653,393.549 78.293 C 394.501 77.092,393.451 77.573,392.300 78.866 M382.400 89.000 C 381.883 89.550,381.574 90.000,381.712 90.000 C 381.850 90.000,382.414 89.550,382.964 89.000 C 383.514 88.450,383.823 88.000,383.652 88.000 C 383.480 88.000,382.917 88.450,382.400 89.000 M376.512 94.645 C 374.483 96.692,372.953 98.437,373.112 98.522 C 373.270 98.608,375.060 97.003,377.088 94.955 C 379.117 92.908,380.647 91.163,380.488 91.078 C 380.330 90.992,378.540 92.597,376.512 94.645 M37.300 290.610 C 36.805 291.139,36.400 291.768,36.400 292.009 C 36.400 292.250,36.192 292.319,35.938 292.162 C 35.673 291.998,35.584 292.051,35.730 292.287 C 36.028 292.769,34.640 294.506,34.259 294.126 C 34.117 293.983,34.000 294.257,34.000 294.733 C 34.000 295.210,33.820 295.600,33.600 295.600 C 33.380 295.600,33.200 295.960,33.200 296.400 C 33.200 296.840,33.020 297.200,32.800 297.200 C 32.580 297.200,32.400 297.560,32.400 298.000 C 32.400 298.440,32.220 298.800,32.000 298.800 C 31.780 298.800,31.600 299.160,31.600 299.600 C 31.600 300.040,31.420 300.400,31.200 300.400 C 30.980 300.400,30.800 300.940,30.800 301.600 C 30.800 302.260,30.620 302.800,30.400 302.800 C 30.180 302.800,30.000 303.340,30.000 304.000 C 30.000 304.660,29.820 305.200,29.600 305.200 C 29.380 305.200,29.200 305.629,29.200 306.154 C 29.200 306.679,28.939 307.611,28.620 308.226 C 28.302 308.840,28.132 309.491,28.244 309.671 C 28.356 309.852,28.263 310.000,28.037 310.000 C 27.812 310.000,27.508 310.900,27.362 312.000 C 27.216 313.100,26.940 314.000,26.748 314.000 C 26.557 314.000,26.400 314.630,26.400 315.400 C 26.400 316.170,26.259 316.800,26.087 316.800 C 25.915 316.800,25.543 317.655,25.261 318.700 C 24.978 319.745,24.579 320.913,24.373 321.295 C 24.168 321.677,24.000 322.442,24.000 322.995 C 24.000 323.548,23.820 324.000,23.600 324.000 C 23.380 324.000,23.200 324.540,23.200 325.200 C 23.200 325.860,23.020 326.400,22.800 326.400 C 22.580 326.400,22.400 326.850,22.400 327.400 C 22.400 327.950,22.220 328.400,22.000 328.400 C 21.780 328.400,21.600 328.940,21.600 329.600 C 21.600 330.260,21.420 330.800,21.200 330.800 C 20.980 330.800,20.800 331.340,20.800 332.000 C 20.800 332.660,20.620 333.200,20.400 333.200 C 20.180 333.200,20.000 333.614,20.000 334.120 C 20.000 334.626,19.836 335.211,19.635 335.420 C 19.434 335.629,19.209 336.250,19.135 336.800 C 19.061 337.350,18.866 337.900,18.702 338.022 C 18.538 338.145,18.364 338.730,18.315 339.322 C 18.266 339.915,18.085 340.400,17.913 340.400 C 17.741 340.400,17.600 340.850,17.600 341.400 C 17.600 341.950,17.420 342.400,17.200 342.400 C 16.980 342.400,16.800 342.929,16.800 343.576 C 16.800 344.223,16.620 344.864,16.400 345.000 C 16.180 345.136,16.000 345.687,16.000 346.224 C 16.000 346.761,15.820 347.200,15.600 347.200 C 15.380 347.200,15.200 347.740,15.200 348.400 C 15.200 349.060,15.020 349.600,14.800 349.600 C 14.580 349.600,14.400 350.125,14.400 350.767 C 14.400 351.408,14.175 352.028,13.900 352.143 C 13.556 352.288,13.649 352.507,14.200 352.847 C 14.991 353.334,23.115 361.436,39.361 377.942 C 45.183 383.856,47.850 386.310,48.141 386.019 C 48.372 385.788,48.963 385.600,49.456 385.600 C 49.949 385.600,50.464 385.420,50.600 385.200 C 50.736 384.980,51.276 384.800,51.800 384.800 C 52.324 384.800,52.864 384.620,53.000 384.400 C 53.136 384.180,53.687 384.000,54.224 384.000 C 54.761 384.000,55.200 383.820,55.200 383.600 C 55.200 383.380,55.639 383.200,56.176 383.200 C 56.713 383.200,57.264 383.020,57.400 382.800 C 57.536 382.580,58.087 382.400,58.624 382.400 C 59.161 382.400,59.600 382.220,59.600 382.000 C 59.600 381.780,60.140 381.600,60.800 381.600 C 61.460 381.600,62.000 381.420,62.000 381.200 C 62.000 380.980,62.540 380.800,63.200 380.800 C 63.860 380.800,64.400 380.620,64.400 380.400 C 64.400 380.180,64.929 380.000,65.576 380.000 C 66.223 380.000,66.864 379.820,67.000 379.600 C 67.136 379.380,67.676 379.200,68.200 379.200 C 68.724 379.200,69.264 379.020,69.400 378.800 C 69.536 378.580,70.051 378.400,70.544 378.400 C 71.037 378.400,71.611 378.251,71.820 378.070 C 72.029 377.888,73.010 377.510,74.000 377.231 C 74.990 376.951,76.113 376.560,76.495 376.361 C 76.877 376.162,77.462 376.000,77.795 376.000 C 78.128 376.000,78.400 375.838,78.400 375.639 C 78.400 375.441,79.480 375.153,80.800 375.000 C 82.120 374.847,83.200 374.598,83.200 374.448 C 83.200 374.298,84.055 373.943,85.100 373.661 C 86.145 373.378,87.313 372.979,87.695 372.773 C 88.077 372.568,88.741 372.400,89.171 372.400 C 89.601 372.400,90.064 372.220,90.200 372.000 C 90.336 371.780,90.876 371.600,91.400 371.600 C 91.924 371.600,92.464 371.420,92.600 371.200 C 92.736 370.980,93.276 370.800,93.800 370.800 C 94.324 370.800,94.864 370.620,95.000 370.400 C 95.136 370.180,95.676 370.000,96.200 370.000 C 96.724 370.000,97.264 369.820,97.400 369.600 C 97.536 369.380,98.087 369.200,98.624 369.200 C 99.161 369.200,99.600 369.020,99.600 368.800 C 99.600 368.580,99.960 368.400,100.400 368.400 C 100.840 368.400,101.200 368.220,101.200 368.000 C 101.200 367.780,101.560 367.600,102.000 367.600 C 102.440 367.600,102.800 367.420,102.800 367.200 C 102.800 366.980,103.160 366.800,103.600 366.800 C 104.040 366.800,104.400 366.620,104.400 366.400 C 104.400 366.180,104.688 366.000,105.040 366.000 C 105.391 366.000,106.183 365.460,106.800 364.800 C 107.417 364.140,108.037 363.600,108.179 363.600 C 108.320 363.600,108.914 363.122,109.498 362.539 L 110.559 361.477 74.380 325.553 C 54.481 305.795,38.200 289.634,38.200 289.639 C 38.200 289.644,37.795 290.081,37.300 290.610 " stroke="none" fill="#e2d7c4" fill-rule="evenodd"></path><path id="path2" d="M296.469 31.286 C 293.112 34.770,284.873 43.024,281.534 46.247 C 278.394 49.278,274.800 53.149,274.800 53.500 C 274.800 53.904,310.531 89.600,310.935 89.600 C 311.131 89.600,319.034 97.340,328.497 106.800 C 337.960 116.260,345.906 124.000,346.154 124.000 C 346.697 124.000,370.643 100.116,370.382 99.834 C 370.282 99.726,354.211 83.635,334.669 64.077 L 299.138 28.516 296.469 31.286 M13.600 353.173 C 13.600 353.378,13.987 353.669,14.460 353.819 C 14.933 353.969,16.013 354.821,16.860 355.712 C 17.708 356.603,18.497 357.236,18.615 357.119 C 18.869 356.864,14.497 352.800,13.968 352.800 C 13.765 352.800,13.600 352.968,13.600 353.173 M11.439 359.138 C 11.300 359.361,11.382 359.665,11.620 359.812 C 12.235 360.193,12.632 359.672,12.118 359.158 C 11.831 358.871,11.607 358.864,11.439 359.138 M22.989 361.989 C 24.511 363.522,25.828 364.706,25.915 364.618 C 26.116 364.417,20.919 359.200,20.518 359.200 C 20.355 359.200,21.467 360.455,22.989 361.989 M10.806 361.500 C 10.803 361.995,10.980 362.400,11.200 362.400 C 11.701 362.400,11.701 361.976,11.200 361.200 C 10.886 360.715,10.811 360.772,10.806 361.500 M10.006 363.900 C 10.003 364.395,10.180 364.800,10.400 364.800 C 10.901 364.800,10.901 364.376,10.400 363.600 C 10.086 363.115,10.011 363.172,10.006 363.900 M9.200 366.400 C 9.200 366.840,9.380 367.200,9.600 367.200 C 9.820 367.200,10.000 366.840,10.000 366.400 C 10.000 365.960,9.820 365.600,9.600 365.600 C 9.380 365.600,9.200 365.960,9.200 366.400 M27.200 365.858 C 27.200 366.222,28.414 367.493,38.151 377.327 C 45.959 385.213,46.941 386.469,45.005 386.099 C 44.354 385.975,43.930 386.117,43.779 386.510 C 43.634 386.889,43.242 387.032,42.724 386.896 C 42.220 386.764,41.767 386.917,41.559 387.287 C 41.342 387.675,40.857 387.823,40.210 387.700 C 39.618 387.587,39.200 387.691,39.200 387.953 C 39.200 388.199,38.660 388.400,38.000 388.400 C 37.200 388.400,36.800 388.600,36.800 389.000 C 36.800 389.669,38.213 389.826,38.600 389.200 C 38.736 388.980,39.276 388.800,39.800 388.800 C 40.324 388.800,40.864 388.620,41.000 388.400 C 41.136 388.180,41.676 388.000,42.200 388.000 C 42.724 388.000,43.264 387.820,43.400 387.600 C 43.536 387.380,43.976 387.200,44.378 387.200 C 44.780 387.200,45.606 386.942,46.214 386.626 L 47.320 386.053 38.194 376.726 C 27.230 365.521,27.200 365.492,27.200 365.858 M8.400 368.800 C 8.400 369.240,8.580 369.600,8.800 369.600 C 9.020 369.600,9.200 369.240,9.200 368.800 C 9.200 368.360,9.020 368.000,8.800 368.000 C 8.580 368.000,8.400 368.360,8.400 368.800 M7.600 371.000 C 7.600 371.330,7.780 371.600,8.000 371.600 C 8.220 371.600,8.400 371.330,8.400 371.000 C 8.400 370.670,8.220 370.400,8.000 370.400 C 7.780 370.400,7.600 370.670,7.600 371.000 M7.079 372.957 C 6.915 373.374,6.875 373.809,6.991 373.924 C 7.355 374.289,7.676 373.691,7.524 372.931 C 7.383 372.235,7.362 372.236,7.079 372.957 M6.279 375.357 C 6.115 375.774,6.075 376.209,6.191 376.324 C 6.555 376.689,6.876 376.091,6.724 375.331 C 6.583 374.635,6.562 374.636,6.279 375.357 M5.412 377.717 C 5.241 378.112,5.213 378.547,5.351 378.684 C 5.757 379.090,6.084 378.520,5.897 377.731 C 5.732 377.033,5.710 377.032,5.412 377.717 M4.612 380.117 C 4.441 380.512,4.413 380.947,4.551 381.084 C 4.957 381.490,5.284 380.920,5.097 380.131 C 4.932 379.433,4.910 379.432,4.612 380.117 M3.812 382.517 C 3.641 382.912,3.613 383.347,3.751 383.484 C 4.157 383.890,4.484 383.320,4.297 382.531 C 4.132 381.833,4.110 381.832,3.812 382.517 M3.012 384.917 C 2.841 385.312,2.813 385.747,2.951 385.884 C 3.357 386.290,3.684 385.720,3.497 384.931 C 3.332 384.233,3.310 384.232,3.012 384.917 M34.400 389.600 C 34.400 389.820,33.860 390.000,33.200 390.000 C 32.400 390.000,32.000 390.200,32.000 390.600 C 32.000 391.322,33.246 391.394,33.928 390.712 C 34.197 390.443,34.802 390.218,35.273 390.212 C 35.744 390.205,36.206 389.975,36.298 389.700 C 36.404 389.386,36.083 389.200,35.433 389.200 C 34.865 389.200,34.400 389.380,34.400 389.600 M29.600 391.200 C 29.600 391.420,29.060 391.600,28.400 391.600 C 27.740 391.600,27.200 391.780,27.200 392.000 C 27.200 392.220,27.639 392.400,28.176 392.400 C 28.713 392.400,29.264 392.220,29.400 392.000 C 29.536 391.780,30.087 391.600,30.624 391.600 C 31.161 391.600,31.600 391.420,31.600 391.200 C 31.600 390.980,31.150 390.800,30.600 390.800 C 30.050 390.800,29.600 390.980,29.600 391.200 M0.679 391.757 C 0.515 392.174,0.475 392.609,0.591 392.724 C 0.955 393.089,1.276 392.491,1.124 391.731 C 0.983 391.035,0.962 391.036,0.679 391.757 M25.200 392.800 C 25.200 393.020,24.660 393.200,24.000 393.200 C 23.340 393.200,22.800 393.380,22.800 393.600 C 22.800 393.820,22.260 394.000,21.600 394.000 C 20.940 394.000,20.400 394.180,20.400 394.400 C 20.400 394.620,19.860 394.800,19.200 394.800 C 18.540 394.800,18.000 394.980,18.000 395.200 C 18.000 395.420,18.439 395.600,18.976 395.600 C 19.513 395.600,20.064 395.420,20.200 395.200 C 20.336 394.980,20.876 394.800,21.400 394.800 C 21.924 394.800,22.464 394.620,22.600 394.400 C 22.736 394.180,23.276 394.000,23.800 394.000 C 24.324 394.000,24.864 393.820,25.000 393.600 C 25.136 393.380,25.597 393.200,26.024 393.200 C 26.451 393.200,26.800 393.020,26.800 392.800 C 26.800 392.580,26.440 392.400,26.000 392.400 C 25.560 392.400,25.200 392.580,25.200 392.800 M15.600 396.000 C 15.600 396.220,16.050 396.400,16.600 396.400 C 17.150 396.400,17.600 396.220,17.600 396.000 C 17.600 395.780,17.150 395.600,16.600 395.600 C 16.050 395.600,15.600 395.780,15.600 396.000 M13.200 396.800 C 13.200 397.020,12.660 397.200,12.000 397.200 C 11.340 397.200,10.800 397.399,10.800 397.643 C 10.800 397.886,10.551 397.990,10.246 397.873 C 9.941 397.756,9.326 397.917,8.878 398.230 C 8.431 398.543,7.782 398.691,7.436 398.558 C 7.057 398.413,6.707 398.576,6.556 398.970 C 6.395 399.391,6.040 399.540,5.561 399.388 C 5.151 399.258,4.498 399.354,4.108 399.601 C 3.553 399.955,3.867 400.005,5.569 399.836 C 6.763 399.718,7.924 399.436,8.149 399.211 C 8.375 398.985,8.963 398.800,9.456 398.800 C 9.949 398.800,10.464 398.620,10.600 398.400 C 10.736 398.180,11.276 398.000,11.800 398.000 C 12.324 398.000,12.864 397.820,13.000 397.600 C 13.136 397.380,13.687 397.200,14.224 397.200 C 14.761 397.200,15.200 397.020,15.200 396.800 C 15.200 396.580,14.750 396.400,14.200 396.400 C 13.650 396.400,13.200 396.580,13.200 396.800 M0.098 399.300 C 0.188 399.575,0.788 399.829,1.431 399.863 C 2.246 399.908,2.328 399.869,1.700 399.736 C 1.205 399.630,0.800 399.377,0.800 399.172 C 0.800 398.967,0.605 398.800,0.367 398.800 C 0.128 398.800,0.007 399.025,0.098 399.300 " stroke="none" fill="#939ab1" fill-rule="evenodd"></path><path id="path3" d="M270.899 56.931 C 269.084 58.729,265.934 61.865,263.899 63.901 C 260.531 67.270,256.010 71.792,247.202 80.600 C 245.442 82.360,241.752 86.050,239.002 88.800 C 236.252 91.550,232.539 95.263,230.752 97.051 C 224.295 103.507,217.529 110.273,213.901 113.900 C 211.865 115.935,207.996 119.805,205.301 122.500 C 202.607 125.195,198.940 128.863,197.152 130.651 C 195.364 132.438,191.651 136.151,188.901 138.901 C 186.151 141.651,182.461 145.341,180.701 147.101 C 174.293 153.509,167.518 160.283,163.901 163.900 C 161.865 165.935,157.996 169.805,155.301 172.500 C 152.607 175.195,148.917 178.885,147.101 180.701 C 145.286 182.517,141.595 186.207,138.901 188.901 C 136.207 191.595,132.562 195.240,130.802 197.000 C 124.349 203.453,117.510 210.292,113.901 213.900 C 111.865 215.935,107.996 219.805,105.301 222.500 C 102.607 225.195,98.962 228.840,97.202 230.600 C 95.442 232.360,91.752 236.050,89.002 238.800 C 86.252 241.550,82.517 245.285,80.701 247.101 C 74.240 253.562,67.548 260.254,63.901 263.900 C 61.865 265.935,57.996 269.805,55.301 272.500 C 52.607 275.195,48.917 278.884,47.101 280.698 C 41.088 286.707,38.800 289.181,38.784 289.693 C 38.769 290.195,109.937 361.157,110.485 361.185 C 110.905 361.207,113.826 358.460,119.739 352.481 C 122.633 349.555,126.304 345.865,127.898 344.281 C 131.626 340.575,140.575 331.626,144.281 327.898 C 145.865 326.304,149.555 322.626,152.481 319.723 C 155.406 316.821,159.092 313.131,160.672 311.523 C 162.251 309.916,165.941 306.224,168.872 303.320 C 171.802 300.417,175.680 296.547,177.488 294.720 C 179.296 292.894,183.166 289.014,186.088 286.098 C 189.010 283.183,192.696 279.493,194.281 277.898 C 195.865 276.304,199.555 272.626,202.481 269.723 C 205.406 266.821,209.092 263.131,210.672 261.523 C 212.251 259.916,215.941 256.224,218.872 253.320 C 221.802 250.417,225.680 246.547,227.488 244.720 C 229.296 242.894,233.166 239.014,236.088 236.098 C 239.010 233.183,242.696 229.493,244.281 227.898 C 245.865 226.304,249.555 222.626,252.481 219.723 C 255.406 216.821,259.092 213.131,260.672 211.523 C 262.251 209.916,265.941 206.224,268.872 203.320 C 271.802 200.417,275.680 196.547,277.488 194.720 C 279.296 192.894,283.166 189.014,286.088 186.098 C 289.010 183.183,292.696 179.493,294.281 177.898 C 295.865 176.304,299.555 172.626,302.481 169.723 C 305.406 166.821,309.092 163.131,310.672 161.523 C 312.251 159.916,315.941 156.224,318.872 153.320 C 321.802 150.417,325.680 146.547,327.488 144.720 C 329.296 142.894,333.166 139.025,336.088 136.123 C 342.047 130.204,342.400 129.816,342.400 129.186 C 342.400 128.939,343.131 128.035,344.024 127.177 C 345.150 126.095,345.549 125.442,345.324 125.049 C 344.864 124.245,274.748 53.593,274.448 53.631 C 274.312 53.649,272.715 55.134,270.899 56.931 " stroke="none" fill="#fccc54" fill-rule="evenodd"></path><path id="path4" d="M13.704 354.354 C 13.847 354.901,13.738 355.200,13.396 355.200 C 12.686 355.200,12.425 356.039,12.868 356.900 C 13.129 357.408,13.071 357.600,12.657 357.600 C 11.968 357.600,11.479 358.678,12.017 359.011 C 12.666 359.412,12.439 360.101,11.746 359.835 C 11.194 359.623,11.128 359.803,11.321 360.992 C 11.554 362.427,11.034 362.971,10.644 361.700 C 10.526 361.315,10.491 361.855,10.566 362.900 C 10.640 363.945,10.544 364.800,10.351 364.800 C 10.158 364.800,10.000 365.312,10.000 365.939 C 10.000 366.725,9.721 367.212,9.100 367.512 C 8.605 367.751,8.425 367.958,8.700 367.973 C 9.289 368.005,9.387 369.600,8.800 369.600 C 8.580 369.600,8.400 370.050,8.400 370.600 C 8.400 371.150,8.220 371.600,8.000 371.600 C 7.780 371.600,7.600 372.140,7.600 372.800 C 7.600 373.460,7.420 374.000,7.200 374.000 C 6.980 374.000,6.800 374.540,6.800 375.200 C 6.800 375.860,6.620 376.400,6.400 376.400 C 6.180 376.400,6.000 376.866,6.000 377.436 C 6.000 378.008,5.597 378.827,5.100 379.266 C 4.605 379.703,4.425 379.947,4.700 379.807 C 5.020 379.644,5.200 379.849,5.200 380.376 C 5.200 380.829,5.020 381.200,4.800 381.200 C 4.580 381.200,4.400 381.666,4.400 382.236 C 4.400 382.808,3.997 383.627,3.500 384.066 C 3.005 384.503,2.825 384.747,3.100 384.607 C 3.418 384.445,3.600 384.643,3.600 385.149 C 3.600 385.595,3.247 386.058,2.800 386.200 C 2.360 386.340,2.000 386.632,2.000 386.851 C 2.000 387.069,2.180 387.136,2.400 387.000 C 3.166 386.527,2.794 387.827,2.000 388.400 C 1.200 388.976,0.844 389.867,1.600 389.400 C 1.820 389.264,2.000 389.433,2.000 389.776 C 2.000 390.119,1.820 390.400,1.600 390.400 C 1.380 390.400,1.200 390.925,1.200 391.567 C 1.200 392.208,1.029 392.793,0.819 392.867 C 0.057 393.134,-0.171 398.286,0.547 399.004 C 1.465 399.922,5.878 399.838,6.611 398.888 C 7.085 398.274,8.530 398.667,8.136 399.304 C 7.983 399.551,8.069 399.605,8.345 399.434 C 8.602 399.275,8.715 398.986,8.595 398.792 C 8.233 398.207,9.738 397.622,10.504 398.050 C 11.040 398.350,11.136 398.300,10.951 397.816 C 10.769 397.343,11.002 397.200,11.957 397.200 C 12.641 397.200,13.200 397.000,13.200 396.755 C 13.200 396.487,13.680 396.380,14.400 396.485 C 15.265 396.612,15.600 396.499,15.600 396.078 C 15.600 395.637,15.935 395.550,16.976 395.719 C 18.109 395.902,18.310 395.832,18.114 395.320 C 17.919 394.813,18.137 394.728,19.292 394.863 C 20.330 394.985,20.656 394.891,20.512 394.514 C 20.377 394.163,20.709 394.000,21.557 394.000 C 22.241 394.000,22.800 393.820,22.800 393.600 C 22.800 393.380,23.340 393.200,24.000 393.200 C 24.660 393.200,25.200 393.020,25.200 392.800 C 25.200 392.220,27.091 392.308,27.363 392.900 C 27.489 393.175,27.492 392.995,27.369 392.500 C 27.174 391.714,27.301 391.600,28.373 391.600 C 29.048 391.600,29.600 391.420,29.600 391.200 C 29.600 390.619,31.496 390.708,31.735 391.300 C 31.846 391.575,31.951 391.395,31.968 390.900 C 31.994 390.166,32.230 390.000,33.249 390.000 C 34.381 390.000,34.447 390.066,33.949 390.700 C 33.456 391.329,33.469 391.346,34.076 390.871 C 34.456 390.573,34.647 390.068,34.512 389.716 C 34.318 389.209,34.512 389.126,35.536 389.276 C 36.413 389.405,36.800 389.299,36.800 388.931 C 36.800 388.608,37.270 388.400,38.000 388.400 C 38.660 388.400,39.200 388.199,39.200 387.953 C 39.200 387.691,39.618 387.587,40.210 387.700 C 40.857 387.823,41.342 387.675,41.559 387.287 C 41.767 386.917,42.220 386.764,42.724 386.896 C 43.242 387.032,43.634 386.889,43.779 386.510 C 43.930 386.117,44.354 385.975,45.005 386.099 C 46.938 386.468,45.964 385.218,38.300 377.491 C 34.065 373.222,27.127 366.199,22.883 361.886 C 15.382 354.263,13.215 352.485,13.704 354.354 " stroke="none" fill="#505060" fill-rule="evenodd"></path></g></svg>