<svg width="173" height="173" viewBox="0 0 173 173" fill="none" xmlns="http://www.w3.org/2000/svg">
<circle cx="86.5" cy="86.5" r="86.5" fill="#011140"/>
<g clip-path="url(#clip0)">
<path d="M131.245 52.0108C127.484 46.8365 120.899 42.1662 112.702 38.8606C104.549 35.573 95.083 33.7549 86.0469 33.742C77.01 33.7194 67.5321 35.5189 59.3675 38.7808C51.1562 42.0617 44.5553 46.7117 40.7812 51.8738C37.1563 56.8316 36.1117 62.1754 37.7599 67.3277C38.8292 70.6698 41.9482 72.9189 45.5229 72.924L57.7635 72.9355C57.7677 72.9355 57.7718 72.9355 57.7758 72.9355C60.2166 72.9353 62.5098 71.8669 64.0683 70.0028C65.6102 68.1586 66.2488 65.7484 65.8208 63.3899C65.8081 63.3206 65.793 63.2519 65.7756 63.1836L65.1315 60.6796C68.6982 58.9778 76.7794 55.6898 86.0092 55.7421C95.2323 55.7894 103.308 59.0754 106.879 60.778L106.224 63.2678C106.206 63.3384 106.19 63.4092 106.177 63.4806C105.742 65.8378 106.374 68.2497 107.91 70.0983C109.466 71.9703 111.761 73.0456 114.208 73.0492L126.449 73.0607C126.453 73.0607 126.457 73.0607 126.461 73.0607C130.029 73.0605 133.149 70.822 134.226 67.4868C135.89 62.3358 134.859 56.9845 131.245 52.0108Z" fill="white"/>
<path d="M113.676 85.5569L104.548 75.9722C103.996 75.3926 103.231 75.0647 102.431 75.0647H96.5316V71.0791C96.5316 69.4642 95.2224 68.1548 93.6073 68.1548C91.9922 68.1548 90.683 69.464 90.683 71.0791V75.0647H81.319V71.0791C81.319 69.4642 80.0098 68.1548 78.3947 68.1548C76.7796 68.1548 75.4704 69.464 75.4704 71.0791V75.0647H69.5714C68.7712 75.0647 68.0057 75.3928 67.4539 75.9722L58.3257 85.5569C51.1687 93.0719 47.2271 102.926 47.2271 113.303V125.334C47.2271 126.949 48.5363 128.258 50.1514 128.258H121.851C123.466 128.258 124.775 126.949 124.775 125.334V113.303C124.775 102.926 120.833 93.072 113.676 85.5569ZM86.001 117.569C77.5619 117.569 70.6963 110.703 70.6963 102.264C70.6963 93.8252 77.5621 86.9595 86.001 86.9595C94.4399 86.9595 101.306 93.8252 101.306 102.264C101.306 110.703 94.4399 117.569 86.001 117.569Z" fill="white"/>
<path d="M86.001 92.8081C80.7867 92.8081 76.5449 97.05 76.5449 102.264C76.5449 107.478 80.7869 111.72 86.001 111.72C91.2151 111.72 95.457 107.478 95.457 102.264C95.457 97.0502 91.2151 92.8081 86.001 92.8081Z" fill="white"/>
</g>
<defs>
<clipPath id="clip0">
<rect width="98" height="98" fill="white" transform="translate(37 32)"/>
</clipPath>
</defs>
</svg>
