<svg width="173" height="173" viewBox="0 0 173 173" fill="none" xmlns="http://www.w3.org/2000/svg">
<circle cx="86.5" cy="86.5" r="86.5" fill="#011140"/>
<path d="M86.5 31C64.9716 31 47.4766 48.4955 47.4766 70.0234C47.4766 77.3078 49.4932 84.3973 53.3303 90.511L83.8546 140.464C84.3754 141.31 85.1559 141.83 86.0666 141.96C87.3019 142.155 88.6684 141.635 89.3836 140.399L119.995 89.9904C123.637 84.0071 125.523 77.0479 125.523 70.0234C125.523 48.4955 108.028 31 86.5 31ZM86.5 89.5352C75.5739 89.5352 66.9883 80.6898 66.9883 70.0234C66.9883 59.2918 75.7683 50.5117 86.5 50.5117C97.2317 50.5117 106.012 59.2918 106.012 70.0234C106.012 80.6248 97.5564 89.5352 86.5 89.5352Z" fill="#FDFDFD"/>
<path d="M86.5 31V50.5117C97.2317 50.5117 106.012 59.2918 106.012 70.0234C106.012 80.6248 97.5564 89.5352 86.5 89.5352V141.998C87.6098 142.024 88.751 141.492 89.3834 140.399L119.995 89.9904C123.637 84.0071 125.523 77.0479 125.523 70.0234C125.523 48.4955 108.028 31 86.5 31Z" fill="#FFFBFB"/>
</svg>
