<svg width="60" height="60" viewBox="0 0 60 60" fill="none" xmlns="http://www.w3.org/2000/svg">
<g clip-path="url(#clip0)">
<path d="M1.39386 60C1.05695 60 0.729188 59.8668 0.486115 59.621C0.16568 59.2969 0.0420843 58.8263 0.162476 58.3864L4.06308 44.1426C1.63464 39.7513 0.354279 34.7836 0.35611 29.7409C0.362977 13.3415 13.7086 0 30.1066 0C38.0603 0.00320435 45.5337 3.10135 51.1509 8.72269C56.7672 14.3445 59.859 21.8175 59.8567 29.7647C59.8494 46.1646 46.5037 59.507 30.1066 59.507C30.1066 59.507 30.0943 59.507 30.0938 59.507C25.3042 59.5052 20.5558 58.3379 16.3279 56.1269L1.7175 59.9583C1.61038 59.9863 1.50144 60 1.39386 60V60Z" fill="#E5E5E5"/>
<path d="M1.39404 58.7233L5.43335 43.9728C2.94174 39.6556 1.63116 34.7584 1.633 29.7414C1.6394 14.046 14.4119 1.2767 30.1068 1.2767C37.7231 1.27991 44.872 4.24438 50.248 9.62494C55.6235 15.0055 58.5829 22.1576 58.5802 29.7642C58.5733 45.4591 45.799 58.2303 30.1068 58.2303C30.1059 58.2303 30.1073 58.2303 30.1068 58.2303H30.0945C25.3291 58.2284 20.6471 57.0332 16.4883 54.765L1.39404 58.7233ZM17.1873 49.612L18.0521 50.1242C21.6849 52.2803 25.8501 53.4206 30.0977 53.4228H30.1068C43.1503 53.4228 53.7668 42.8082 53.7723 29.7624C53.7746 23.4402 51.3155 17.4953 46.8472 13.0234C42.3785 8.55148 36.4372 6.08734 30.1155 6.08459C17.0615 6.08459 6.44547 16.6978 6.44043 29.7432C6.4386 34.2137 7.68921 38.567 10.0586 42.3344L10.6216 43.2298L8.23029 51.9603L17.1873 49.612Z" fill="white"/>
<path d="M2.38379 57.7295L6.28348 43.4889C3.87747 39.3214 2.61267 34.5932 2.61404 29.7505C2.62 14.5985 14.9508 2.27142 30.1014 2.27142C37.4549 2.27463 44.3566 5.13657 49.5454 10.3308C54.7355 15.5251 57.5919 22.4295 57.5892 29.772C57.5828 44.9245 45.2515 57.253 30.1028 57.253C30.1014 57.253 30.1032 57.253 30.1028 57.253H30.0904C25.4903 57.2511 20.9699 56.0966 16.9553 53.9085L2.38379 57.7295Z" fill="#64B161"/>
<path d="M1.39404 58.7233L5.43335 43.9728C2.94174 39.6556 1.63116 34.7584 1.633 29.7414C1.6394 14.046 14.4119 1.2767 30.1068 1.2767C37.7231 1.27991 44.872 4.24438 50.248 9.62494C55.6235 15.0055 58.5829 22.1576 58.5802 29.7642C58.5733 45.4591 45.799 58.2303 30.1068 58.2303C30.1059 58.2303 30.1073 58.2303 30.1068 58.2303H30.0945C25.3291 58.2284 20.6471 57.0332 16.4883 54.765L1.39404 58.7233ZM17.1873 49.612L18.0521 50.1242C21.6849 52.2803 25.8501 53.4206 30.0977 53.4228H30.1068C43.1503 53.4228 53.7668 42.8082 53.7723 29.7624C53.7746 23.4402 51.3155 17.4953 46.8472 13.0234C42.3785 8.55148 36.4372 6.08734 30.1155 6.08459C17.0615 6.08459 6.44547 16.6978 6.44043 29.7432C6.4386 34.2137 7.68921 38.567 10.0586 42.3344L10.6216 43.2298L8.23029 51.9603L17.1873 49.612Z" fill="white"/>
<path fill-rule="evenodd" clip-rule="evenodd" d="M22.9908 17.8413C22.458 16.6566 21.8968 16.6328 21.3896 16.6122C20.9748 16.5944 20.5001 16.5953 20.0263 16.5953C19.5521 16.5953 18.7812 16.7738 18.1294 17.4857C17.4771 18.1975 15.6387 19.9187 15.6387 23.4192C15.6387 26.9202 18.1884 30.3026 18.5441 30.7777C18.8998 31.2524 23.466 38.6655 30.6973 41.5173C36.7072 43.8876 37.9299 43.4161 39.2346 43.2976C40.5392 43.179 43.4437 41.5764 44.0365 39.9152C44.6298 38.2539 44.6298 36.8303 44.4517 36.5323C44.2736 36.2361 43.7994 36.0581 43.088 35.7024C42.3766 35.3467 38.8789 33.625 38.2266 33.3879C37.5742 33.1503 37.1 33.0322 36.6258 33.7445C36.1511 34.4559 34.7888 36.0581 34.3736 36.5323C33.9584 37.0079 33.5432 37.0674 32.8318 36.7113C32.1205 36.3547 29.8289 35.6039 27.1107 33.1801C24.9958 31.2946 23.5676 28.9655 23.1524 28.2532C22.7377 27.5418 23.1455 27.1903 23.4651 26.8016C24.0405 26.1017 25.0059 24.8433 25.243 24.3691C25.4801 23.8939 25.3616 23.4787 25.184 23.1226C25.0059 22.7669 23.623 19.2485 22.9908 17.8413V17.8413Z" fill="white"/>
</g>
<defs>
<clipPath id="clip0">
<rect width="60" height="60" fill="white"/>
</clipPath>
</defs>
</svg>
