<?xml version="1.0" encoding="UTF-8"?>
<!DOCTYPE svg PUBLIC "-//W3C//DTD SVG 1.1//EN" "http://www.w3.org/Graphics/SVG/1.1/DTD/svg11.dtd">
<!-- Creator: CorelDRAW X6 -->
<svg xmlns="http://www.w3.org/2000/svg" xml:space="preserve" width="100%" height="100%" version="1.1" style="shape-rendering:geometricPrecision; text-rendering:geometricPrecision; image-rendering:optimizeQuality; fill-rule:evenodd; clip-rule:evenodd"
viewBox="0 0 500 500"
 xmlns:xlink="http://www.w3.org/1999/xlink">
 <defs>
  <style type="text/css">
   <![CDATA[
    .fil2 {fill:#0099FF}
    .fil1 {fill:#E5E5E5}
    .fil3 {fill:#46B5FF;fill-rule:nonzero}
   ]]>
  </style>
 </defs>
 <g id="Layer_x0020_1">
  <metadata id="CorelCorpID_0Corel-Layer"/>
  <path class="fil1" d="M186 20l227 0c6,0 10,5 10,11l0 438c0,6 -4,11 -10,11l-329 0c-6,0 -11,-5 -11,-11l0 -336 113 -113z"/>
  <path class="fil2" d="M186 20l0 96c0,8 -9,17 -17,17l-96 0 113 -113z"/>
  <path class="fil3" d="M375 335l-250 0 0 -10 250 0 0 10zm0 -80l-250 0 0 -10 250 0 0 10zm0 -80l-250 0 0 -10 250 0 0 10zm0 -80l-167 0 0 -10 167 0 0 10zm0 120l-250 0 0 -10 250 0 0 10zm0 -80l-167 0 0 -10 167 0 0 10zm0 240l-250 0 0 -10 250 0 0 10zm0 -80l-250 0 0 -10 250 0 0 10zm0 120l-250 0 0 -10 250 0 0 10z"/>
 </g>
</svg>
